<svg xmlns="http://www.w3.org/2000/svg" width="659.324" height="245.605" viewBox="0 0 659.324 245.605">
  <g id="Grupo_3098" data-name="Grupo 3098" transform="translate(-229 -1465.454)">
    <g id="Grupo_3008" data-name="Grupo 3008" transform="translate(573.21 1475.216)">
      <g id="Grupo_3005" data-name="Grupo 3005" transform="translate(0 0.93)">
        <g id="Grupo_2999" data-name="Grupo 2999" transform="translate(0 1.767)">
          <path id="Trazado_1475" data-name="Trazado 1475" d="M1420.339,2231.67a.922.922,0,0,1-.571-.2l-3.707-2.9a10.79,10.79,0,0,1-4.062-8.461v-5.965a2.843,2.843,0,0,1,1.77-2.664,2.687,2.687,0,0,1,2.99.656l4.249,4.433a.926.926,0,1,1-1.337,1.282l-4.25-4.432a.845.845,0,0,0-.961-.219.974.974,0,0,0-.607.944v5.965a8.926,8.926,0,0,0,3.351,7l3.707,2.9a.927.927,0,0,1-.572,1.656Z" transform="translate(-1412 -2211.281)" fill="#b4d3e0"/>
        </g>
        <g id="Grupo_3000" data-name="Grupo 3000" transform="translate(50.039 1.768)">
          <path id="Trazado_1476" data-name="Trazado 1476" d="M1844.927,2231.67a.926.926,0,0,1-.572-1.656l3.707-2.9a8.926,8.926,0,0,0,3.351-7v-5.965a.974.974,0,0,0-.607-.944.846.846,0,0,0-.961.219l-4.25,4.432a.926.926,0,0,1-1.337-1.282l4.25-4.432a2.688,2.688,0,0,1,2.99-.656,2.844,2.844,0,0,1,1.77,2.664v5.965a10.791,10.791,0,0,1-4.062,8.461l-3.707,2.9A.922.922,0,0,1,1844.927,2231.67Z" transform="translate(-1844 -2211.281)" fill="#ccdee6"/>
        </g>
        <path id="Trazado_1477" data-name="Trazado 1477" d="M1709.476,2220.542a45.011,45.011,0,0,1-4.63,9.271c.352-.119.7-.237,1.053-.368l5.4-2.024a5.977,5.977,0,0,0,3.733-5.657V2209.1a5.882,5.882,0,0,0-4.607-5.9l-13.336-2.5C1704.858,2205.145,1713.363,2211.212,1709.476,2220.542Z" transform="translate(-1664.07 -2200.156)" fill="#b4f5f0"/>
        <path id="Trazado_1478" data-name="Trazado 1478" d="M1492.34,2225.106c-2.613-5.226-.313-11.269,3.82-15.055l-7.553,1.415a5.882,5.882,0,0,0-4.607,5.9v12.666a5.977,5.977,0,0,0,3.733,5.657l5.4,2.024a34.517,34.517,0,0,0,20.33,1.229,49.31,49.31,0,0,0-10.006-5.5C1500.68,2232.519,1494.193,2228.812,1492.34,2225.106Z" transform="translate(-1475.66 -2208.426)" fill="#00c8c8"/>
        <path id="Trazado_1479" data-name="Trazado 1479" d="M1576.261,2216.408c3.887-9.329-4.618-15.4-12.383-19.845l-2.417-.453a5.166,5.166,0,0,0-1.906,0l-8.2,1.536c-4.133,3.785-6.433,9.829-3.82,15.055,1.853,3.707,8.34,7.413,11.12,8.34a49.322,49.322,0,0,1,10.006,5.5q1.5-.364,2.971-.861A45.012,45.012,0,0,0,1576.261,2216.408Z" transform="translate(-1530.855 -2196.022)" fill="#64e1dc"/>
        <g id="Grupo_3004" data-name="Grupo 3004" transform="translate(12.973 8.34)">
          <g id="Grupo_3001" data-name="Grupo 3001">
            <path id="Trazado_1480" data-name="Trazado 1480" d="M1556.434,2271.73a.872.872,0,0,1-.11-.006l-15.645-1.841-15.645,1.841a.927.927,0,0,1-.216-1.841l15.753-1.853a.971.971,0,0,1,.216,0l15.753,1.853a.926.926,0,0,1-.107,1.847Z" transform="translate(-1523.999 -2268.024)" fill="#5d99af"/>
          </g>
          <g id="Grupo_3002" data-name="Grupo 3002" transform="translate(0 5.56)">
            <path id="Trazado_1481" data-name="Trazado 1481" d="M1556.434,2319.73a.873.873,0,0,1-.11-.006l-15.645-1.841-15.645,1.841a.927.927,0,0,1-.216-1.841l15.753-1.853a.971.971,0,0,1,.216,0l15.753,1.853a.927.927,0,0,1-.107,1.847Z" transform="translate(-1523.999 -2316.024)" fill="#5d99af"/>
          </g>
          <g id="Grupo_3003" data-name="Grupo 3003" transform="translate(0 11.12)">
            <path id="Trazado_1482" data-name="Trazado 1482" d="M1556.434,2367.73a.873.873,0,0,1-.11-.006l-15.645-1.841-15.645,1.841a.927.927,0,0,1-.216-1.841l15.753-1.853a.971.971,0,0,1,.216,0l15.753,1.853a.927.927,0,0,1-.107,1.847Z" transform="translate(-1523.999 -2364.024)" fill="#5d99af"/>
          </g>
        </g>
      </g>
      <g id="Grupo_3007" data-name="Grupo 3007">
        <path id="Trazado_1483" data-name="Trazado 1483" d="M1498.239,2221.345a35.6,35.6,0,0,1-12.5-2.266l-2.737-1.028-2.667-1a6.9,6.9,0,0,1-4.335-6.52v-12.667a6.8,6.8,0,0,1,5.361-6.813l15.754-2.947a5.979,5.979,0,0,1,2.253,0l15.749,2.946a6.8,6.8,0,0,1,5.362,6.814v4.031a.927.927,0,1,1-1.853,0v-4.031a4.949,4.949,0,0,0-3.85-4.992l-15.752-2.946a4.148,4.148,0,0,0-1.565,0l-15.757,2.947a4.949,4.949,0,0,0-3.849,4.992v12.667a5.044,5.044,0,0,0,3.132,4.785l2.668,1,2.737,1.028a33.755,33.755,0,0,0,23.7,0l2.736-1.028,2.665-1a5.044,5.044,0,0,0,3.134-4.785v-4.93a.927.927,0,1,1,1.853,0v4.93a6.9,6.9,0,0,1-4.337,6.521l-2.665,1-2.735,1.028A35.62,35.62,0,0,1,1498.239,2221.345Z" transform="translate(-1468.587 -2187.995)" fill="#383844"/>
        <path id="Trazado_1484" data-name="Trazado 1484" d="M1420.339,2231.627a.921.921,0,0,1-.57-.2l-3.707-2.9a10.791,10.791,0,0,1-4.062-8.462V2214.1a2.843,2.843,0,0,1,1.769-2.664,2.687,2.687,0,0,1,2.99.656l4.249,4.432a.927.927,0,1,1-1.338,1.282l-4.25-4.432a.846.846,0,0,0-.961-.219.974.974,0,0,0-.607.944v5.965a8.924,8.924,0,0,0,3.351,7l3.707,2.9a.927.927,0,0,1-.571,1.656Z" transform="translate(-1412 -2208.546)" fill="#383844"/>
        <path id="Trazado_1485" data-name="Trazado 1485" d="M1844.927,2231.626a.927.927,0,0,1-.572-1.657l3.707-2.9a8.925,8.925,0,0,0,3.351-7V2214.1a.974.974,0,0,0-.607-.944.846.846,0,0,0-.961.219l-4.249,4.432a.927.927,0,1,1-1.338-1.282l4.249-4.432a2.686,2.686,0,0,1,2.99-.656,2.843,2.843,0,0,1,1.769,2.664v5.965a10.79,10.79,0,0,1-4.062,8.461l-3.707,2.9A.925.925,0,0,1,1844.927,2231.626Z" transform="translate(-1793.961 -2208.545)" fill="#383844"/>
        <g id="Grupo_3006" data-name="Grupo 3006" transform="translate(12.973 9.265)">
          <path id="Trazado_1486" data-name="Trazado 1486" d="M1556.433,2271.688a.977.977,0,0,1-.109-.006l-15.645-1.841-15.645,1.841a.927.927,0,0,1-.217-1.841l15.753-1.853a.946.946,0,0,1,.217,0l15.753,1.853a.927.927,0,0,1-.107,1.847Z" transform="translate(-1523.999 -2267.981)" fill="#383844"/>
          <path id="Trazado_1487" data-name="Trazado 1487" d="M1556.433,2319.688a.977.977,0,0,1-.109-.006l-15.645-1.841-15.645,1.841a.927.927,0,0,1-.217-1.841l15.753-1.853a.946.946,0,0,1,.217,0l15.753,1.853a.927.927,0,0,1-.107,1.847Z" transform="translate(-1523.999 -2310.421)" fill="#383844"/>
          <path id="Trazado_1488" data-name="Trazado 1488" d="M1556.433,2367.688a.977.977,0,0,1-.109-.006l-15.645-1.841-15.645,1.841a.927.927,0,0,1-.217-1.841l15.753-1.853a.946.946,0,0,1,.217,0l15.753,1.853a.927.927,0,0,1-.107,1.847Z" transform="translate(-1523.999 -2352.861)" fill="#383844"/>
        </g>
      </g>
    </g>
    <g id="Grupo_3017" data-name="Grupo 3017" transform="translate(693 1502.077)">
      <path id="Trazado_1499" data-name="Trazado 1499" d="M309.422,634.263l-9.069-8.535a9.5,9.5,0,0,1-2.88-8.345l1.945-12.781a9.495,9.495,0,0,0-1.01-5.9l-4.643-8.7a9.505,9.505,0,0,1-1.117-4.47V575.6a9.491,9.491,0,0,0-1.4-4.962l-7.8-12.724a9.469,9.469,0,0,1-1.116-2.659l-2.363-9.45-6.769-22.94a9.5,9.5,0,0,0-5.984-6.281L242.6,508a9.4,9.4,0,0,1-1.269-.548c-2.082-1.089-9.137-4.756-15.452-7.831,0-9.96,37.593-20.824,37.593-20.824s0-10.413-6.348-10.413c-2.866,0-6.4,5.433-10.06.453s-2.758-12.978-7.622-12.676-13.824,3.169-16.263,4.527-.582-2.565-2.716-5.734-8.45-5.131-8.45-5.131-10.262,1.207-11.168,15.091c-.484,7.42,5.11,28.106,6.6,33.438-10.069,3.9-27.625,10.071-33.853,12.248a9.489,9.489,0,0,0-3.9,2.58l-25.924,28.555a9.5,9.5,0,0,0-2.01,9.29l1.146,3.566a9.5,9.5,0,0,1-.709,7.463l-12.335,22.555a9.493,9.493,0,0,0-1.049,6.038l3.281,20.778a9.508,9.508,0,0,1-.13,3.632l-2.972,12.781a9.5,9.5,0,0,1-5.809,6.7h0a9.493,9.493,0,0,0-5.1,4.708l-.035.073a9.5,9.5,0,0,0,7.051,13.522l20.14,3.208a133.613,133.613,0,0,0,36.87.721l26.508-3.165a133.689,133.689,0,0,1,31.349-.04l24.084,2.813a81.66,81.66,0,0,0,42.732-6.528h0A9.5,9.5,0,0,0,309.422,634.263Z" transform="translate(-117.088 -449.825)" fill="#9b9b9b"/>
      <path id="Trazado_1500" data-name="Trazado 1500" d="M299.146,624.432a9.494,9.494,0,0,1-2.294-7.735l1.945-12.781c-5.61,12.033-64.965,24.817-32.551,23.864C279.108,627.4,291.313,626.439,299.146,624.432Z" transform="translate(-116.467 -449.138)" fill="#bcbcbc"/>
      <path id="Trazado_1501" data-name="Trazado 1501" d="M125.1,652.026l20.14,3.208a133.62,133.62,0,0,0,36.87.721l26.508-3.165a133.689,133.689,0,0,1,31.349-.04l24.084,2.813a81.661,81.661,0,0,0,42.732-6.528h0a9.5,9.5,0,0,0,2.642-15.59c-4.305,3.815-18.169,16.277-29.2,16.569-26.1.691-57.043-16.569-57.043-16.569s-40.442,15.664-53.421,17.474-51.68-12.488-51.68-12.488l-.035.073A9.5,9.5,0,0,0,125.1,652.026Z" transform="translate(-117.088 -449.007)" fill="#bababa"/>
      <path id="Trazado_1502" data-name="Trazado 1502" d="M220.049,454.947a11.318,11.318,0,0,0-3.953-3.205s-7.139,29.842-4.65,43.254c0,0,3.849-30.239,11.318-34.314C220.327,462.04,222.184,458.116,220.049,454.947Z" transform="translate(-116.67 -449.816)" fill="#535353"/>
      <path id="Trazado_1503" data-name="Trazado 1503" d="M254.548,526.324l20.222,18.26-15.51-26.861a16.407,16.407,0,0,0-7.958-6.966l-18.632-7.679-6.98-3.131c.005-.112.018-.215.018-.333,0-2.079,1.643-4.2,4.237-6.251a10.505,10.505,0,0,1,3.107-5.595l18.041-16.929a3.552,3.552,0,0,1-1.393.035l-16.392,9.273s-3.681,4.046-6.98,7.482a.755.755,0,0,1-1.127-1,7.623,7.623,0,0,1,1.442-1.388c.466-.311,3.27-6.585,3.609-7.467,0,0-4.651,5.7-4.822,5.885s-3.554,2.6-3.554,2.6,2.812-9.888,4.255-12.229a5.092,5.092,0,0,0,.6-1.63l2.812-14.174c-.823.25-1.615.505-2.356.759l-5.2,1.923s-.624,9.644-.68,9.958-3.11,13.651-3.784,13.2-.132-16.342-.132-16.342l.116-15.3q-.271-.175-.548-.339c-1.253,5.3-4.128,17.7-4,19.376.168,2.133,1.2,14.154.469,16.4s-7.062-9.42-7.062-9.42L200.728,464.3c-.018.2-.04.4-.054.611-.394,6.044,3.244,20.891,5.41,29.072l.627,1.016.572,3.344c-5.861,2.269-14.262,5.311-21.493,7.888l-29.18,31.567,19.316-13.732,11.592-12.752a28.79,28.79,0,0,1,12.059-7.9s10.756-3.645,10.3-.778c-.373,2.358-17.177,9.513-23.135,11.98a5.628,5.628,0,0,0-2.988,2.91l-14.17,31.74s21.58-32.445,22.033-32.746,19.419-12.074,18.561-7.243c-.868,4.888-11.884,17.23-15.205,20.862a3.826,3.826,0,0,0-1,2.428l-1.3,31.338,7.968-12.978s3.8-14.337,3.8-14.789,10.187-22.637,12.639-22.183,10,22.787,10,22.787l10.111,25.2s3.906-28.6,2.112-31.539-12.185-19.462-11.129-22.782S254.548,526.324,254.548,526.324Z" transform="translate(-116.912 -449.815)" fill="#838383"/>
      <path id="Trazado_1504" data-name="Trazado 1504" d="M243.9,529.114l6.8,23.369,8.436-3.4,15.241.679Z" transform="translate(-116.523 -449.472)" fill="#9b9b9b"/>
      <g id="Grupo_3014" data-name="Grupo 3014" transform="translate(21.146 91.913)">
        <path id="Trazado_1505" data-name="Trazado 1505" d="M141.482,545.487a9.484,9.484,0,0,0,.187,5.133l1.146,3.566a9.5,9.5,0,0,1-.709,7.463l-3.965,7.25,5.538,14.523,41.989,12.288-12.842-9.973c-4.694-3.645-14.447-9.869-19.475-13.028a8.735,8.735,0,0,1-3.905-5.614c-1.289-6.168-3.948-18.674-5.767-25.766h0Z" transform="translate(-138.141 -541.33)" fill="#bababa"/>
      </g>
      <path id="Trazado_1506" data-name="Trazado 1506" d="M129.51,624.759l20.733,3.123h0a59.991,59.991,0,0,1-19.57-30.04l-1.539-5.475,2.909,18.427a9.494,9.494,0,0,1-.131,3.633Z" transform="translate(-117.035 -449.19)" fill="#848484"/>
      <path id="Trazado_1507" data-name="Trazado 1507" d="M213.982,524.064l-7.3,28.574a8.6,8.6,0,0,0-.181,3.355c.836,5.849,3.518,24.9,3.038,25.472-.3.366,4.388-2.092,8.785-4.438a14.67,14.67,0,0,0,7.746-12.182l.674-12.946a8.616,8.616,0,0,0-.778-4.057L214.98,523.972A.532.532,0,0,0,213.982,524.064Z" transform="translate(-116.69 -449.496)" fill="#bcbcbc"/>
      <path id="Trazado_1508" data-name="Trazado 1508" d="M196.153,518.033l-18.411,26.56L165.67,558.778l3.432-24.229-9.173,4.512a8.6,8.6,0,0,0-4.8,7.959c.177,6.137.944,15.543,3.9,18.7,4.527,4.828,26.562,20.824,26.562,20.824s4.223-22,3.318-33.938S194.946,520.447,196.153,518.033Z" transform="translate(-116.919 -449.521)" fill="#bababa"/>
      <g id="Grupo_3015" data-name="Grupo 3015" transform="translate(85.817 0)">
        <path id="Trazado_1509" data-name="Trazado 1509" d="M215.866,451.608a28.2,28.2,0,0,0-4.23-1.783,12.8,12.8,0,0,0-9.111,7.021c1.132,2.893,6.52,15.986,6.52,15.986S208.279,455.5,215.866,451.608Z" transform="translate(-202.525 -449.825)" fill="#5d5d5d"/>
        <path id="Trazado_1510" data-name="Trazado 1510" d="M258.108,468.551c1.365,1.685,2.3,3.962.985,4.743-11.509,6.843.974,1.954,3.509,2.55C262.176,473.194,261.054,469.527,258.108,468.551Z" transform="translate(-202.294 -449.742)" fill="#5d5d5d"/>
        <path id="Trazado_1511" data-name="Trazado 1511" d="M230.511,475.9s7.721-12.258,13.7-12.107c-1.291-4.031-1.876-7.869-5.273-7.658a40.837,40.837,0,0,0-7.313,1.383C233.04,458.759,230.511,475.9,230.511,475.9Z" transform="translate(-202.4 -449.797)" fill="#5d5d5d"/>
      </g>
      <path id="Trazado_1512" data-name="Trazado 1512" d="M215.682,601.428l-15.045.753-42.375-.981s24.672,24.447,29.879,23.993,20.848.874,23.015-4.5c4.074-10.093,51.874-55.791,51.874-55.791Z" transform="translate(-116.905 -449.312)" fill="#bcbcbc"/>
      <g id="Grupo_3016" data-name="Grupo 3016" transform="translate(133.394 140.376)">
        <path id="Trazado_1513" data-name="Trazado 1513" d="M288.366,603.98c1.879-2.193,4.656-5.9,7.4-9.7l-2.508-4.7c-12.009,8.474-30.1,20.889-38.633,24.987C264.117,612.434,284.8,608.14,288.366,603.98Z" transform="translate(-249.869 -589.578)" fill="#bcbcbc"/>
        <path id="Trazado_1514" data-name="Trazado 1514" d="M250.676,615.826a11.814,11.814,0,0,0,3.972-1.372C250.685,615.344,248.672,615.857,250.676,615.826Z" transform="translate(-249.891 -589.467)" fill="#bcbcbc"/>
      </g>
      <path id="Trazado_1515" data-name="Trazado 1515" d="M270.633,576.057l-29.4,21.935-9.612,12.442s42.208-17.349,49-28.929c2.765-4.715,4.7-11.488,6.032-17.861l-3.712-6.058a9.469,9.469,0,0,1-1.116-2.659l-2.362-9.45-6.769-22.94,5.815,33.785A20.322,20.322,0,0,1,270.633,576.057Z" transform="translate(-116.578 -449.501)" fill="#9b9b9b"/>
      <path id="Trazado_1516" data-name="Trazado 1516" d="M189.182,503.971q-.3,0-.592-.015c-7.108-.36-12.309-3.8-12.1-8,.11-2.207,1.675-4.105,4.406-5.345a18.518,18.518,0,0,1,8.433-1.389c6.236.315,16.3,6.284,16.73,6.537l3.1,1.848-3.268,1.527C205.459,499.341,195.472,503.97,189.182,503.971Zm-.968-10.95a14.3,14.3,0,0,0-5.732,1.076c-1.3.592-2.134,1.38-2.169,2.057-.072,1.445,3.19,3.716,8.471,3.984,3.129.151,8.228-1.508,11.924-2.953-3.532-1.812-8.441-3.982-11.566-4.139h0Q188.676,493.021,188.214,493.021Z" transform="translate(-116.824 -449.65)" fill="#eab306"/>
      <path id="Trazado_1517" data-name="Trazado 1517" d="M207.11,499.257l-2.558-.42c-.993-.163-9.8-1.688-13.075-5.046a11.176,11.176,0,0,1-3.13-6.014,6.362,6.362,0,0,1,7.751-7.564,11.176,11.176,0,0,1,5.935,3.279c3.277,3.358,4.583,12.2,4.721,13.2Zm-12.464-15.349a2.61,2.61,0,0,0-1.863.661,3.064,3.064,0,0,0-.655,2.637,7.446,7.446,0,0,0,2.086,3.915c1.385,1.419,5.126,2.655,8.276,3.4-.668-3.169-1.811-6.942-3.192-8.358a7.448,7.448,0,0,0-3.863-2.183A4.545,4.545,0,0,0,194.645,483.908Z" transform="translate(-116.771 -449.69)" fill="#e8c100"/>
      <path id="Trazado_1518" data-name="Trazado 1518" d="M204.718,498.825c6.877,4.543,15.457,3.77,23.027,1.707a1.586,1.586,0,0,0-.843-3.056c-6.779,1.847-14.41,2.693-20.585-1.387-1.707-1.127-3.3,1.616-1.6,2.736Z" transform="translate(-116.701 -449.62)" fill="#e8c100"/>
    </g>
    <g id="Grupo_3042" data-name="Grupo 3042" transform="translate(216.943 1161.434)">
      <g id="Grupo_3024" data-name="Grupo 3024" transform="translate(145.057 304.02)">
        <path id="Trazado_1564" data-name="Trazado 1564" d="M147.433,350.18l-2.376-1.538c.243-.378,24.9-37.835,66.5-43.806,27.915-4,56.9,6.755,86.153,31.984l-1.848,2.144c-28.6-24.664-56.819-35.2-83.876-31.33C171.671,313.408,147.671,349.813,147.433,350.18Z" transform="translate(-145.057 -304.02)" fill="#f4564b"/>
        <g id="Grupo_3023" data-name="Grupo 3023" transform="translate(138.681 20.898)">
          <path id="Trazado_1565" data-name="Trazado 1565" d="M243.042,334.273l10.355-4.742,3.775-10.745,11.291,24.492Z" transform="translate(-243.042 -318.786)" fill="#f4564b"/>
        </g>
      </g>
    </g>
    <g id="Grupo_3027" data-name="Grupo 3027" transform="translate(229 1506.7)">
      <path id="Trazado_1499-2" data-name="Trazado 1499" d="M304.221,629.275l-8.824-8.3a9.24,9.24,0,0,1-2.8-8.119l1.892-12.435a9.238,9.238,0,0,0-.982-5.739l-4.517-8.469a9.248,9.248,0,0,1-1.087-4.349V572.2a9.234,9.234,0,0,0-1.362-4.828l-7.587-12.38a9.215,9.215,0,0,1-1.086-2.587l-2.3-9.194-6.586-22.319a9.242,9.242,0,0,0-5.822-6.111l-23.95-8.346a9.14,9.14,0,0,1-1.234-.534c-2.026-1.059-8.889-4.628-15.034-7.619,0-9.691,36.576-20.261,36.576-20.261s0-10.132-6.176-10.132c-2.788,0-6.228,5.286-9.788.441s-2.684-12.627-7.416-12.333-13.45,3.083-15.823,4.4-.566-2.5-2.643-5.579-8.222-4.992-8.222-4.992-9.984,1.175-10.866,14.683c-.471,7.219,4.971,27.346,6.417,32.534-9.8,3.792-26.877,9.8-32.938,11.917a9.233,9.233,0,0,0-3.79,2.511l-25.223,27.783a9.239,9.239,0,0,0-1.956,9.039l1.115,3.469a9.243,9.243,0,0,1-.69,7.261l-12,21.945a9.236,9.236,0,0,0-1.02,5.875l3.192,20.216a9.25,9.25,0,0,1-.126,3.534l-2.892,12.435a9.243,9.243,0,0,1-5.652,6.519h0a9.236,9.236,0,0,0-4.966,4.581l-.034.071a9.239,9.239,0,0,0,6.861,13.156l19.6,3.122a130.006,130.006,0,0,0,35.872.7l25.791-3.079a130.065,130.065,0,0,1,30.5-.039l23.432,2.736a79.451,79.451,0,0,0,41.576-6.351h0A9.241,9.241,0,0,0,304.221,629.275Z" transform="translate(-117.088 -449.825)" fill="#2f2f38"/>
      <path id="Trazado_1500-2" data-name="Trazado 1500" d="M298,623.877a9.237,9.237,0,0,1-2.232-7.526l1.892-12.435c-5.458,11.708-63.208,24.146-31.671,23.218C278.5,626.767,290.375,625.83,298,623.877Z" transform="translate(-120.257 -453.324)" fill="#231f20"/>
      <path id="Trazado_1501-2" data-name="Trazado 1501" d="M124.882,651.524l19.6,3.122a130.006,130.006,0,0,0,35.872.7l25.791-3.079a130.065,130.065,0,0,1,30.5-.039l23.432,2.736a79.451,79.451,0,0,0,41.576-6.351h0a9.241,9.241,0,0,0,2.57-15.169c-4.189,3.712-17.677,15.837-28.406,16.121-25.39.672-55.5-16.121-55.5-16.121s-39.349,15.241-51.976,17S118.056,638.3,118.056,638.3l-.034.071A9.239,9.239,0,0,0,124.882,651.524Z" transform="translate(-117.088 -453.995)" fill="#231f20"/>
      <path id="Trazado_1502-2" data-name="Trazado 1502" d="M219.8,454.861a11.012,11.012,0,0,0-3.846-3.119s-6.946,29.035-4.524,42.084c0,0,3.745-29.421,11.012-33.386C220.072,461.761,221.879,457.944,219.8,454.861Z" transform="translate(-119.219 -449.868)" fill="#2f2f38"/>
      <path id="Trazado_1503-2" data-name="Trazado 1503" d="M251.9,524.317l19.675,17.766-15.09-26.135a15.963,15.963,0,0,0-7.743-6.777L230.612,501.7l-6.791-3.046c0-.108.018-.209.018-.324,0-2.023,1.6-4.085,4.122-6.082a10.221,10.221,0,0,1,3.023-5.444l17.553-16.471a3.455,3.455,0,0,1-1.356.034l-15.948,9.022s-3.582,3.937-6.791,7.28a.735.735,0,0,1-1.1-.976,7.419,7.419,0,0,1,1.4-1.351c.453-.3,3.181-6.407,3.511-7.265,0,0-4.525,5.546-4.692,5.726s-3.458,2.532-3.458,2.532,2.736-9.62,4.14-11.9a4.955,4.955,0,0,0,.584-1.586l2.736-13.791c-.8.243-1.571.492-2.293.739l-5.056,1.871s-.607,9.383-.662,9.689-3.026,13.281-3.681,12.847-.128-15.9-.128-15.9l.112-14.882q-.264-.17-.534-.329c-1.219,5.156-4.017,17.226-3.89,18.852.163,2.076,1.166,13.771.456,15.956s-6.871-9.165-6.871-9.165l-5.49-13.772c-.018.2-.039.39-.053.594-.383,5.88,3.157,20.326,5.264,28.286l.61.989.556,3.253c-5.7,2.208-13.877,5.167-20.912,7.675l-28.39,30.713L175.4,522.115l11.279-12.407a28.011,28.011,0,0,1,11.732-7.685s10.465-3.547,10.025-.757c-.363,2.295-16.713,9.256-22.509,11.656a5.476,5.476,0,0,0-2.907,2.831l-13.787,30.881s21-31.567,21.437-31.861,18.894-11.748,18.059-7.047c-.844,4.755-11.562,16.764-14.794,20.3a3.723,3.723,0,0,0-.972,2.362l-1.265,30.49,7.753-12.627s3.7-13.949,3.7-14.389,9.912-22.024,12.3-21.583,9.727,22.171,9.727,22.171l9.837,24.519s3.8-27.828,2.055-30.686-11.856-18.936-10.828-22.166S251.9,524.317,251.9,524.317Z" transform="translate(-117.986 -449.876)" fill="#231f20"/>
      <path id="Trazado_1504-2" data-name="Trazado 1504" d="M243.9,529.114l6.62,22.737,8.208-3.3,14.828.661Z" transform="translate(-119.968 -451.626)" fill="#3f3f47"/>
      <g id="Grupo_3014-2" data-name="Grupo 3014" transform="translate(20.574 89.427)">
        <path id="Trazado_1505-2" data-name="Trazado 1505" d="M141.391,545.375a9.227,9.227,0,0,0,.182,4.994l1.115,3.469A9.243,9.243,0,0,1,142,561.1l-3.857,7.054,5.388,14.131,40.854,11.956-12.495-9.7c-4.567-3.547-14.056-9.6-18.949-12.675a8.5,8.5,0,0,1-3.8-5.462c-1.254-6-3.841-18.169-5.611-25.069h0Z" transform="translate(-138.141 -541.33)" fill="#231f20"/>
      </g>
      <path id="Trazado_1506-2" data-name="Trazado 1506" d="M129.5,623.883l20.172,3.038h0a58.369,58.369,0,0,1-19.041-29.228l-1.5-5.327,2.83,17.928a9.236,9.236,0,0,1-.127,3.535Z" transform="translate(-117.362 -453.062)" fill="#231f20"/>
      <path id="Trazado_1507-2" data-name="Trazado 1507" d="M213.777,524.053l-7.1,27.8a8.371,8.371,0,0,0-.176,3.264c.813,5.691,3.422,24.223,2.956,24.783-.3.356,4.27-2.036,8.547-4.318a14.273,14.273,0,0,0,7.537-11.853l.656-12.6a8.383,8.383,0,0,0-.757-3.947l-10.694-23.223A.518.518,0,0,0,213.777,524.053Z" transform="translate(-119.117 -451.502)" fill="#3f3f47"/>
      <path id="Trazado_1508-2" data-name="Trazado 1508" d="M195.043,518.033l-17.913,25.842-11.746,13.8,3.339-23.574-8.925,4.39a8.367,8.367,0,0,0-4.672,7.744c.172,5.971.919,15.123,3.8,18.194,4.4,4.7,25.843,20.261,25.843,20.261s4.109-21.4,3.228-33.02S193.869,520.381,195.043,518.033Z" transform="translate(-117.952 -451.374)" fill="#3f3f47"/>
      <g id="Grupo_3015-2" data-name="Grupo 3015" transform="translate(83.496 0)">
        <path id="Trazado_1509-2" data-name="Trazado 1509" d="M215.505,451.56a27.429,27.429,0,0,0-4.115-1.735,12.458,12.458,0,0,0-8.865,6.831c1.1,2.815,6.344,15.554,6.344,15.554S208.123,455.342,215.505,451.56Z" transform="translate(-202.525 -449.825)" fill="#3f3f47"/>
        <path id="Trazado_1510-2" data-name="Trazado 1510" d="M258,468.551c1.328,1.639,2.237,3.854.959,4.615-11.2,6.658.948,1.9,3.414,2.481C261.963,473.068,260.871,469.5,258,468.551Z" transform="translate(-203.701 -450.25)" fill="#3f3f47"/>
        <path id="Trazado_1511-2" data-name="Trazado 1511" d="M230.511,475.365s7.512-11.927,13.333-11.779c-1.256-3.922-1.826-7.656-5.131-7.451a39.733,39.733,0,0,0-7.116,1.346C232.972,458.687,230.511,475.365,230.511,475.365Z" transform="translate(-203.161 -449.968)" fill="#3f3f47"/>
      </g>
      <path id="Trazado_1512-2" data-name="Trazado 1512" d="M214.129,600.44l-14.638.733-41.229-.955s24.005,23.785,29.07,23.345,20.284.85,22.393-4.374c3.964-9.82,50.471-54.282,50.471-54.282Z" transform="translate(-118.023 -452.438)" fill="#3f3f47"/>
      <g id="Grupo_3016-2" data-name="Grupo 3016" transform="translate(129.786 136.579)">
        <path id="Trazado_1513-2" data-name="Trazado 1513" d="M287.453,603.59c1.828-2.133,4.53-5.744,7.2-9.438l-2.44-4.575c-11.685,8.244-29.286,20.324-37.589,24.311C263.86,611.816,283.985,607.638,287.453,603.59Z" transform="translate(-249.998 -589.578)" fill="#3f3f47"/>
        <path id="Trazado_1514-2" data-name="Trazado 1514" d="M250.655,615.789a11.494,11.494,0,0,0,3.864-1.335C250.663,615.32,248.7,615.819,250.655,615.789Z" transform="translate(-249.89 -590.143)" fill="#2f2f38"/>
      </g>
      <path id="Trazado_1515-2" data-name="Trazado 1515" d="M269.578,574.61l-28.6,21.342-9.352,12.106s41.067-16.88,47.673-28.147c2.69-4.587,4.577-11.177,5.869-17.378l-3.612-5.894a9.213,9.213,0,0,1-1.086-2.587l-2.3-9.194-6.586-22.319,5.658,32.871A19.772,19.772,0,0,1,269.578,574.61Z" transform="translate(-119.689 -451.476)" fill="#231f20"/>
      <path id="Trazado_1516-2" data-name="Trazado 1516" d="M188.839,503.571q-.295,0-.576-.015c-6.915-.35-11.976-3.693-11.769-7.779.107-2.147,1.63-3.994,4.286-5.2a18.017,18.017,0,0,1,8.205-1.352c6.067.307,15.863,6.114,16.278,6.36l3.013,1.8-3.179,1.485C204.675,499.067,194.959,503.57,188.839,503.571Zm-.942-10.653a13.914,13.914,0,0,0-5.577,1.047c-1.269.576-2.077,1.343-2.11,2-.07,1.406,3.1,3.616,8.241,3.876,3.044.147,8-1.467,11.6-2.873-3.436-1.763-8.213-3.874-11.253-4.027h0Q188.346,492.917,187.9,492.918Z" transform="translate(-118.437 -450.719)" fill="#eab306"/>
      <path id="Trazado_1517-2" data-name="Trazado 1517" d="M206.6,498.739l-2.489-.409c-.967-.158-9.533-1.643-12.721-4.91a10.874,10.874,0,0,1-3.045-5.851,6.19,6.19,0,0,1,7.542-7.359,10.874,10.874,0,0,1,5.775,3.19c3.188,3.267,4.459,11.869,4.593,12.839ZM194.472,483.8a2.539,2.539,0,0,0-1.813.643,2.981,2.981,0,0,0-.637,2.565,7.244,7.244,0,0,0,2.03,3.809c1.348,1.381,4.987,2.583,8.052,3.307-.65-3.083-1.762-6.754-3.106-8.132a7.246,7.246,0,0,0-3.759-2.124A4.417,4.417,0,0,0,194.472,483.8Z" transform="translate(-118.704 -450.512)" fill="#e8c100"/>
      <path id="Trazado_1518-2" data-name="Trazado 1518" d="M204.7,498.744c6.691,4.42,15.039,3.668,22.4,1.66a1.543,1.543,0,0,0-.82-2.973c-6.6,1.8-14.02,2.62-20.029-1.35-1.66-1.1-3.207,1.572-1.556,2.662Z" transform="translate(-119.062 -450.869)" fill="#e8c100"/>
    </g>
    <g id="Grupo_3053" data-name="Grupo 3053" transform="translate(273.127 1224.22)">
      <path id="Trazado_1519" data-name="Trazado 1519" d="M444.346,361.464a5.457,5.457,0,0,0,7.559-2.2,33.416,33.416,0,0,0,3.951-15.226,51.471,51.471,0,0,0-2.53-16.2c-3.9-11.563-64.57-12.183-78.31-12.179-13.707.005-72.419.64-76.268,12.184a52.4,52.4,0,0,0-2.5,16.2,33.4,33.4,0,0,0,3.951,15.231,5.525,5.525,0,0,0,7.575,2.2,122.284,122.284,0,0,1,32.931-12.591,168.052,168.052,0,0,1,70.628-.017A126.121,126.121,0,0,1,444.346,361.464Z" transform="translate(-72.388)" fill="#606060" fill-rule="evenodd"/>
      <g id="Grupo_3019" data-name="Grupo 3019" transform="translate(201.873 331.577)">
        <path id="Trazado_1520" data-name="Trazado 1520" d="M379.466,384.03c2.72,8.335,2.508,18.511-1.8,30.757-5.707,16.224,10.072,16.931,10.072,41.383,0,7.153-3.9,13.275-3.79,19.193.346,18.5,12.446,33.053,18.105,42.79,6.25,10.755,4.644,15.641-29.334,13.5-15.03,5.1-42.187,7.646-69.322,7.637-27.136.009-54.292-2.537-69.321-7.637-29.043,1.83-34.436-1.474-31.486-9.189,3.626-9.483,19.855-25.631,20.256-47.1.111-5.918-3.791-12.041-3.791-19.193,0-24.452,15.78-25.16,10.072-41.383-4.309-12.246-4.521-22.423-1.8-30.757,21.033,6.687,47.419,10.669,76.071,10.669S358.432,390.717,379.466,384.03Z" transform="translate(-201.873 -384.03)" fill="#9b9b9b" fill-rule="evenodd"/>
        <path id="Trazado_1521" data-name="Trazado 1521" d="M396.262,417.381c13.111,6.231,21.784,17.039,21.784,29.33,0,11.918-8.157,22.442-20.606,28.75,5.413,5.046,8.478,10.782,8.478,16.869,0,20.156-33.573,36.5-74.986,36.5-16.97,0-50.149.64-50.149-20.947,0-14.985,8.884-11.719,9.184-26.977.114-5.8-3.913-11.8-3.913-18.806,0-23.958,16.292-24.652,10.4-40.548-4.291-11.575-4.647-21.261-2.146-29.261,19.869,5.522,43.828,8.746,69.62,8.746a285.331,285.331,0,0,0,47.472-3.857C409.562,403.593,404.792,410.443,396.262,417.381Z" transform="translate(-262.406 -390.362)" fill="#bababa" fill-rule="evenodd"/>
        <path id="Trazado_1522" data-name="Trazado 1522" d="M352.718,424.048c-8.568-2.676-27.165-6.227-40.655,2.165-4.725-11.959-5.945-22.142-4.294-30.675-4.663-.97-9.16-2.057-13.463-3.253-2.5,8-2.145,17.687,2.146,29.261,5.893,15.9-10.4,16.59-10.4,40.548,0,7.008,4.028,13.007,3.913,18.806-.3,15.258-9.184,11.992-9.184,26.977,0,21.587,33.179,20.947,50.149,20.947q2.192,0,4.353-.063c-66.453-1.481-45.071-45.626,12.735-54.046-9.238-2.884-30.13-6.786-43.714,4.356C295.873,456.013,304.089,431.131,352.718,424.048Z" transform="translate(-262.406 -390.362)" fill="#9b9b9b" fill-rule="evenodd" opacity="0.763"/>
      </g>
      <path id="Trazado_1523" data-name="Trazado 1523" d="M436.517,353.353a5.7,5.7,0,0,1,7.835,2.246,33.67,33.67,0,0,1,4.095,15.534,51.743,51.743,0,0,1-2.623,16.533c-1.439,4.2-18.774,10.961-37.261,15.047-31.281,6.913-54.424,6.914-85.707,0-18.471-4.083-35.823-10.856-37.244-15.053a52.7,52.7,0,0,1-2.589-16.533,33.666,33.666,0,0,1,4.095-15.54,5.774,5.774,0,0,1,7.852-2.24A128,128,0,0,0,329.1,366.194a176.877,176.877,0,0,0,73.2.017A131.991,131.991,0,0,0,436.517,353.353Z" transform="translate(-62.241 -28.338)" fill="#888" fill-rule="evenodd"/>
      <path id="Trazado_1524" data-name="Trazado 1524" d="M316.3,379.874a5.36,5.36,0,0,1,7.175-2.16,129.756,129.756,0,0,0,32.117,10.5,172.613,172.613,0,0,0,34.147,2.821,166.918,166.918,0,0,0,29.663-2.961,138.218,138.218,0,0,0,28.529-8.94c3.757,19.29-33.951,36.775-70.528,37.344C340.868,417.043,306.1,400.914,316.3,379.874Z" transform="translate(-86.396 -47.165)" fill="#bababa" fill-rule="evenodd"/>
      <path id="Trazado_1525" data-name="Trazado 1525" d="M300.186,357.1a2.439,2.439,0,0,1-.132-1.2l.119-.218a5.774,5.774,0,0,1,7.852-2.24,128,128,0,0,0,34.131,12.847,176.878,176.878,0,0,0,73.2.017,131.128,131.128,0,0,0,24.883-8.25q1.282-.511,2.542-1.04c1.81,8.208-30.606,20.149-65.74,21.624C341.892,380.115,305.1,370.445,300.186,357.1Z" transform="translate(-75.297 -28.432)" fill="#ddd" fill-rule="evenodd"/>
    </g>
    <g id="Grupo_3066" data-name="Grupo 3066" transform="translate(536.267 1502.077)">
      <g id="Grupo_2994" data-name="Grupo 2994" transform="translate(0 0)">
        <g id="Grupo_2989" data-name="Grupo 2989">
          <g id="Grupo_2987" data-name="Grupo 2987">
            <g id="Grupo_2986" data-name="Grupo 2986">
              <path id="Trazado_1418" data-name="Trazado 1418" d="M2345.126,2212.685c.153.372.306.744.451,1.116A2.345,2.345,0,0,0,2345.126,2212.685Z" transform="translate(-2329.805 -2211.729)" fill="#1cadb5"/>
              <path id="Trazado_1419" data-name="Trazado 1419" d="M2205.8,2206.3v-.932a2.266,2.266,0,0,0-.03-.3c-.145-.372-.3-.744-.451-1.116a2.363,2.363,0,0,0-1.889-.957h-1.58a2.377,2.377,0,0,0-2.37,2.37v.932a2.368,2.368,0,0,0-.79-.142h-1.58a2.377,2.377,0,0,0-2.37,2.37v4.093a2.375,2.375,0,0,0-.79-.142h-1.58a2.377,2.377,0,0,0-2.37,2.37v8.38a14,14,0,0,1,1.58,3.323v-11.7a.792.792,0,0,1,.79-.79h1.58a.792.792,0,0,1,.79.79v12.642a.79.79,0,0,0,1.58,0v-18.963a.793.793,0,0,1,.79-.79h1.58a.792.792,0,0,1,.79.79v18.963a.79.79,0,0,0,1.58,0V2205.37a.793.793,0,0,1,.79-.79h1.58a.793.793,0,0,1,.79.79v22.124a.79.79,0,0,0,1.58,0v-18.963a.793.793,0,0,1,.791-.79h.145c-.174-.515-.357-1.029-.545-1.542A2.549,2.549,0,0,0,2205.8,2206.3Z" transform="translate(-2190 -2203)" fill="#1cadb5"/>
              <path id="Trazado_1420" data-name="Trazado 1420" d="M2382,2338.648v11.1a.792.792,0,0,0,.79.79.748.748,0,0,0,.186-.038A64.188,64.188,0,0,0,2382,2338.648Z" transform="translate(-2363.037 -2325.25)" fill="#1cadb5"/>
              <path id="Trazado_1421" data-name="Trazado 1421" d="M2354.741,2683v2.37a.793.793,0,0,1-.79.79h-3.342a1.635,1.635,0,0,1-.387-.521,2.369,2.369,0,0,1-.221-1.059h3.16V2683Z" transform="translate(-2334.197 -2635.592)" fill="#b4f5f0"/>
              <path id="Trazado_1422" data-name="Trazado 1422" d="M2363.014,2246.852v17.383a.79.79,0,0,1-.087.356l-4.654,9.315v3.761h-1.58v-3.951a.786.786,0,0,1,.087-.355l4.654-9.316v-17.193a.793.793,0,0,0-.79-.79h-1.58a.793.793,0,0,0-.79.79v9.482a.777.777,0,0,1-.608.751,64.064,64.064,0,0,0-.972-11.844v-7.87a.793.793,0,0,0-.79-.79h-1.438q-.261-.77-.545-1.541a2.322,2.322,0,0,1,.4-.04h1.58a2.377,2.377,0,0,1,2.37,2.37v7.253a2.374,2.374,0,0,1,.79-.142h1.58A2.378,2.378,0,0,1,2363.014,2246.852Z" transform="translate(-2337.73 -2231.84)" fill="#b4f5f0"/>
              <path id="Trazado_1423" data-name="Trazado 1423" d="M2193.16,2429.648l-3.121-9.355a.928.928,0,0,1-.04-.253v-12.16a13.828,13.828,0,0,1,1.58,3.318v8.715l3.121,9.355a.927.927,0,0,1,.04.253v3.951h-1.58Z" transform="translate(-2190 -2387.645)" fill="#5d99af"/>
              <path id="Trazado_1424" data-name="Trazado 1424" d="M2234.861,2685.637a2.355,2.355,0,0,1-.219-1.057H2223.58V2683H2222v2.37a.792.792,0,0,0,.79.79h12.46A1.636,1.636,0,0,1,2234.861,2685.637Z" transform="translate(-2218.84 -2635.592)" fill="#5d99af"/>
            </g>
            <path id="Trazado_1425" data-name="Trazado 1425" d="M2206,2441.493v.648c.019.23.041.459.064.688A3.743,3.743,0,0,0,2206,2441.493Z" transform="translate(-2204.42 -2417.938)" fill="#00c8c8"/>
            <path id="Trazado_1426" data-name="Trazado 1426" d="M2359.938,2679.683v1.58h-2.418a14.181,14.181,0,0,0,.688-1.944,2.715,2.715,0,0,1-.095.363Z" transform="translate(-2340.974 -2632.276)" fill="#64e1dc"/>
            <path id="Trazado_1427" data-name="Trazado 1427" d="M2343.482,2347.79v17.193l-4.654,9.315a.789.789,0,0,0-.087.356v3.951h-1.446c-.031.182-.071.371-.118.553.822-3.658.087-7.585-3.176-10.035,3.951.79,5.531-3.951,5.531-6.321.118-1.612.174-3.2.182-4.78a.777.777,0,0,0,.608-.751v-9.481a.792.792,0,0,1,.79-.79h1.58A.793.793,0,0,1,2343.482,2347.79Z" transform="translate(-2319.778 -2332.778)" fill="#64e1dc"/>
            <path id="Trazado_1428" data-name="Trazado 1428" d="M2361.7,2251.79a.792.792,0,0,0-.79-.79h-1.435a60.135,60.135,0,0,1,2.225,8.656Z" transform="translate(-2342.734 -2246.259)" fill="#00c8c8"/>
            <path id="Trazado_1429" data-name="Trazado 1429" d="M2218.642,2253.766c3.951.79,5.531-3.951,5.531-6.321.115-1.609.173-3.2.186-4.779a.752.752,0,0,1-.186.038.793.793,0,0,1-.79-.79v-11.1a60.136,60.136,0,0,0-2.225-8.656h-.146a.792.792,0,0,0-.79.79v18.963a.79.79,0,1,1-1.58,0V2219.79a.792.792,0,0,0-.79-.79h-1.581a.792.792,0,0,0-.79.79v22.124a.79.79,0,1,1-1.58,0V2222.95a.793.793,0,0,0-.79-.79h-1.581a.792.792,0,0,0-.79.79v18.963a.79.79,0,1,1-1.58,0v-12.642a.793.793,0,0,0-.79-.79h-1.58a.792.792,0,0,0-.79.79v11.7a3.742,3.742,0,0,1,.064,1.335,24.875,24.875,0,0,0,4.677,13.036c.79.79,2.371,3.16,4.741,2.37-.79,1.58-3.951,3.951-2.37,4.741,2.41,1.339,4.633,2.673,6.8,3.951h1.047C2222.847,2262.147,2222.706,2256.814,2218.642,2253.766Z" transform="translate(-2204.42 -2217.42)" fill="#00c8c8"/>
            <path id="Trazado_1430" data-name="Trazado 1430" d="M2206,2448.052v1.081a3.436,3.436,0,0,0,.064-.394C2206.041,2448.511,2206.019,2448.281,2206,2448.052Z" transform="translate(-2204.42 -2423.849)" fill="#00c8c8"/>
            <path id="Trazado_1431" data-name="Trazado 1431" d="M2219.915,2479.114c-2.17-1.277-4.394-2.611-6.8-3.95-1.581-.79,1.58-3.161,2.37-4.741-2.37.79-3.951-1.58-4.741-2.37a24.875,24.875,0,0,1-4.677-13.035,3.411,3.411,0,0,1-.064.393v6.985l3.121,9.355a.936.936,0,0,1,.04.253v7.111Z" transform="translate(-2204.42 -2430.126)" fill="#1cadb5"/>
          </g>
          <g id="Grupo_2988" data-name="Grupo 2988" transform="translate(3.37 45.827)">
            <path id="Trazado_1432" data-name="Trazado 1432" d="M2292.062,2667q1.4.8,2.73,1.58h4.324a13.511,13.511,0,0,0,.38-1.58Z" transform="translate(-2285.352 -2667)" fill="#64e1dc"/>
            <path id="Trazado_1433" data-name="Trazado 1433" d="M2365.345,2667v1.58h-1.825a2.742,2.742,0,0,0,.095-.363,5.07,5.07,0,0,0,.166-.664c.048-.182.087-.372.119-.553Z" transform="translate(-2349.752 -2667)" fill="#b4f5f0"/>
            <rect id="Rectángulo_852" data-name="Rectángulo 852" width="1" height="1" transform="translate(16.363 0.095)" fill="#f1f9ff"/>
            <rect id="Rectángulo_853" data-name="Rectángulo 853" width="1" height="1" transform="translate(0.363 0.095)" fill="#1cadb5"/>
            <path id="Trazado_1434" data-name="Trazado 1434" d="M2243.341,2667H2238v1.58h8.067C2245.182,2668.059,2244.274,2667.529,2243.341,2667Z" transform="translate(-2236.629 -2667)" fill="#00c8c8"/>
          </g>
        </g>
        <g id="Grupo_2993" data-name="Grupo 2993" transform="translate(25.284)">
          <g id="Grupo_2992" data-name="Grupo 2992">
            <g id="Grupo_2991" data-name="Grupo 2991">
              <path id="Trazado_1435" data-name="Trazado 1435" d="M2542.757,2212.689a2.348,2.348,0,0,0-.451,1.115c.145-.372.3-.744.451-1.115Z" transform="translate(-2532.795 -2211.732)" fill="#1cadb5"/>
              <path id="Trazado_1436" data-name="Trazado 1436" d="M2546.871,2212.686Z" transform="translate(-2536.908 -2211.729)" fill="#1cadb5"/>
              <g id="Grupo_2990" data-name="Grupo 2990">
                <path id="Trazado_1437" data-name="Trazado 1437" d="M2452.321,2360.235v3.951h-1.58v-3.761l-4.654-9.315a.788.788,0,0,1-.087-.356V2333.37a2.377,2.377,0,0,1,2.37-2.37h1.58a2.377,2.377,0,0,1,.751.134c-.126.514-.253,1.035-.371,1.557a.758.758,0,0,0-.379-.111h-1.58a.792.792,0,0,0-.79.79v17.193l4.654,9.316A.788.788,0,0,1,2452.321,2360.235Z" transform="translate(-2446 -2318.358)" fill="#5d99af"/>
                <path id="Trazado_1438" data-name="Trazado 1438" d="M2516.489,2216.473h1.581a.792.792,0,0,1,.79.79v18.963a.79.79,0,0,0,1.58,0V2214.1a.788.788,0,0,1,.518-.735,13.713,13.713,0,0,0-1.617-.679c-.153.372-.306.743-.451,1.115a2.317,2.317,0,0,0-.03.3v.932a2.558,2.558,0,0,0-.39-.1h0a2.308,2.308,0,0,0-.4-.039h-1.26q-.24.8-.485,1.614A.752.752,0,0,1,2516.489,2216.473Z" transform="translate(-2509.378 -2211.732)" fill="#1cadb5"/>
                <path id="Trazado_1439" data-name="Trazado 1439" d="M2490.282,2280.634v9.481a.777.777,0,0,0,.6.749v0a.759.759,0,0,0,.185.038.793.793,0,0,0,.79-.79v-17.631c-.558,1.886-1.1,3.807-1.58,5.74v.181c-.013,0-.028-.006-.042-.011q-.191.78-.366,1.563A.783.783,0,0,1,2490.282,2280.634Z" transform="translate(-2485.542 -2265.621)" fill="#1cadb5"/>
                <path id="Trazado_1440" data-name="Trazado 1440" d="M2495.58,2237.37a.782.782,0,0,1,.625-.756q.245-.813.485-1.614h-.32a2.377,2.377,0,0,0-2.37,2.37v7.072c.478-1.933,1.022-3.854,1.58-5.74Z" transform="translate(-2489.259 -2231.84)" fill="#5d99af"/>
                <path id="Trazado_1441" data-name="Trazado 1441" d="M2638,2319.406a.79.79,0,0,0,1.58,0v-8.848a26.092,26.092,0,0,0-1.58-5.573Z" transform="translate(-2619.037 -2294.913)" fill="#1cadb5"/>
                <path id="Trazado_1442" data-name="Trazado 1442" d="M2590.79,2258.992a.792.792,0,0,0,.79-.79v-18.963a.768.768,0,0,1,.158-.448,14.714,14.714,0,0,0-1.738-1.718V2258.2A.792.792,0,0,0,2590.79,2258.992Z" transform="translate(-2575.778 -2233.708)" fill="#1cadb5"/>
                <path id="Trazado_1443" data-name="Trazado 1443" d="M2559.83,2212.481h-1.58a2.374,2.374,0,0,0-.79.142v-4.093a2.377,2.377,0,0,0-2.37-2.37h-1.58a2.367,2.367,0,0,0-.79.142v-.932a2.377,2.377,0,0,0-2.37-2.37h-1.58a2.36,2.36,0,0,0-1.888.956,15.549,15.549,0,0,1,1.62.679.738.738,0,0,1,.269-.055h1.58a.793.793,0,0,1,.79.79v1a14.861,14.861,0,0,1,1.738,1.715.777.777,0,0,1,.632-.34h1.58a.792.792,0,0,1,.79.79v4.543a25.83,25.83,0,0,1,1.58,5.57v-3.792a.792.792,0,0,1,.79-.79h1.58a.792.792,0,0,1,.79.79v20.417l-3.121,9.355a.947.947,0,0,0-.039.253v3.95h1.58V2245l3.121-9.355a.947.947,0,0,0,.039-.253v-20.543A2.377,2.377,0,0,0,2559.83,2212.481Z" transform="translate(-2536.916 -2203)" fill="#b4f5f0"/>
                <path id="Trazado_1444" data-name="Trazado 1444" d="M2501.933,2686.16h-7.143a.792.792,0,0,1-.79-.79V2683h1.58v1.58h4.551A9.362,9.362,0,0,0,2501.933,2686.16Z" transform="translate(-2489.259 -2635.592)" fill="#5d99af"/>
                <path id="Trazado_1445" data-name="Trazado 1445" d="M2563.855,2699h-7.8a9.183,9.183,0,0,0,1.806,1.58h5.275A7.394,7.394,0,0,0,2563.855,2699Z" transform="translate(-2545.183 -2650.012)" fill="#5d99af"/>
                <path id="Trazado_1446" data-name="Trazado 1446" d="M2631.932,2683v2.37a.792.792,0,0,1-.79.79h-3.382a7.217,7.217,0,0,0,.719-1.58h1.873V2683Z" transform="translate(-2609.808 -2635.592)" fill="#5d99af"/>
              </g>
            </g>
            <path id="Trazado_1447" data-name="Trazado 1447" d="M2685.12,2441.493v.648c-.019.23-.042.459-.064.688A3.726,3.726,0,0,1,2685.12,2441.493Z" transform="translate(-2661.416 -2417.938)" fill="#00c8c8"/>
            <path id="Trazado_1448" data-name="Trazado 1448" d="M2685.417,2448.052v1.081a3.383,3.383,0,0,1-.064-.394C2685.375,2448.511,2685.4,2448.281,2685.417,2448.052Z" transform="translate(-2661.713 -2423.849)" fill="#00c8c8"/>
            <path id="Trazado_1449" data-name="Trazado 1449" d="M2565.888,2219.79a.792.792,0,0,0-.79-.79h-1.581a.778.778,0,0,0-.272.055,13.57,13.57,0,0,1,2.643,1.73Z" transform="translate(-2551.665 -2217.42)" fill="#64e1dc"/>
            <path id="Trazado_1450" data-name="Trazado 1450" d="M2609.808,2251h-1.58a.777.777,0,0,0-.633.342,18.535,18.535,0,0,1,3,4.99v-4.542A.792.792,0,0,0,2609.808,2251Z" transform="translate(-2591.635 -2246.259)" fill="#64e1dc"/>
            <path id="Trazado_1451" data-name="Trazado 1451" d="M2635.324,2682.135h1.588v1.58h-1.873a6.292,6.292,0,0,0,.253-1.2,3.091,3.091,0,0,0,.023-.379.388.388,0,0,0,.008-.095Z" transform="translate(-2616.369 -2634.727)" fill="#64e1dc"/>
            <path id="Trazado_1452" data-name="Trazado 1452" d="M2608.861,2315.79a.792.792,0,0,0-.79-.79h-1.58a.793.793,0,0,0-.79.79v3.793a30.769,30.769,0,0,1,0,10.43c-1.58,6.321-9.481,11.852-2.37,18.963a1.594,1.594,0,0,1,.182.213c.055.071.111.142.158.213a3.075,3.075,0,0,1,.182.364h1.849v-3.951a.926.926,0,0,1,.04-.253l3.121-9.355v-6.985a3.514,3.514,0,0,1-.063-.4,3.6,3.6,0,0,1,.063-1.335Z" transform="translate(-2585.157 -2303.938)" fill="#64e1dc"/>
            <path id="Trazado_1453" data-name="Trazado 1453" d="M2510,2252.1v1.332q.312-1.053.625-2.088A.781.781,0,0,0,2510,2252.1Z" transform="translate(-2503.679 -2246.567)" fill="#00c8c8"/>
            <path id="Trazado_1454" data-name="Trazado 1454" d="M2495.27,2244c-1.58,6.321-9.482,11.852-2.371,18.963a1.6,1.6,0,0,1,.182.214,1.494,1.494,0,0,1,.158.213,3.132,3.132,0,0,1,.182.364,1.475,1.475,0,0,1,.11.332,1.814,1.814,0,0,1,.071.3.23.23,0,0,1,.016.079c0,.008.008.024.008.032a.118.118,0,0,1,.008.055c.008.04.008.071.016.111v.039a.858.858,0,0,1,.016.142c.008.111.016.229.016.355v.04a.376.376,0,0,1-.008.095,3.089,3.089,0,0,1-.024.379,6.255,6.255,0,0,1-.253,1.2h-7.8a6.78,6.78,0,0,1-1.051-1.58,2.049,2.049,0,0,1-.095-.189c-.016-.032-.032-.071-.047-.111-.063-.158-.127-.324-.174-.482-.055-.174-.1-.347-.142-.521-.016-.087-.031-.182-.04-.277a5.365,5.365,0,0,1,.948-3.951h2.371c-10.485-7.174-10.564-17.43-8.312-27.544a.786.786,0,0,1,.411.68v9.481a.777.777,0,0,0,.609.751.754.754,0,0,0,.182.039.792.792,0,0,0,.79-.79v-17.628c.206-.7.419-1.4.624-2.094a1.245,1.245,0,0,1,.166-.031h1.58a.793.793,0,0,1,.79.79v18.963a.79.79,0,1,0,1.58,0v-22.124a.788.788,0,0,1,.521-.735,13.351,13.351,0,0,1,2.639,1.73v21.128a.79.79,0,0,0,1.581,0v-18.963a.779.779,0,0,1,.158-.45,18.628,18.628,0,0,1,3,4.994v14.42a.79.79,0,0,0,1.58,0v-8.849A30.776,30.776,0,0,1,2495.27,2244Z" transform="translate(-2474.726 -2217.924)" fill="#00c8c8"/>
            <path id="Trazado_1455" data-name="Trazado 1455" d="M2540.934,2670.313c-.055-.174-.095-.34-.134-.514q.059.261.142.521c.047.158.111.324.174.482C2541.045,2670.646,2540.99,2670.479,2540.934,2670.313Z" transform="translate(-2531.437 -2623.696)" fill="#1cadb5"/>
            <path id="Trazado_1456" data-name="Trazado 1456" d="M2511.841,2681.27h1.651c-.031-.063-.055-.126-.087-.189.032.063.056.126.095.189a6.787,6.787,0,0,0,1.051,1.581H2510v-1.581h1.841Z" transform="translate(-2503.679 -2633.862)" fill="#1cadb5"/>
            <path id="Trazado_1457" data-name="Trazado 1457" d="M2466.741,2374.655a.789.789,0,0,0-.087-.356l-4.654-9.315V2347.79a.792.792,0,0,1,.79-.79h1.58a.762.762,0,0,1,.379.11c-2.252,10.114-2.173,20.37,8.313,27.544h-2.371a5.363,5.363,0,0,0-.948,3.951c.008.095.024.189.04.276a2.808,2.808,0,0,1-.055-.276h-2.987Z" transform="translate(-2460.42 -2332.778)" fill="#1cadb5"/>
          </g>
          <rect id="Rectángulo_854" data-name="Rectángulo 854" width="2" height="1" transform="translate(4.449 45.923)" fill="#1cadb5"/>
          <path id="Trazado_1458" data-name="Trazado 1458" d="M2511.841,2668.58H2510V2667h2.987c.016.095.032.19.055.276a3.816,3.816,0,0,0,.134.514,5.123,5.123,0,0,0,.182.49c.016.04.032.079.047.111.032.063.056.126.087.189Z" transform="translate(-2503.679 -2621.173)" fill="#00c8c8"/>
          <path id="Trazado_1459" data-name="Trazado 1459" d="M2542.342,2675.49a5.172,5.172,0,0,1-.182-.49l.008.008C2542.215,2675.166,2542.278,2675.332,2542.342,2675.49Z" transform="translate(-2532.663 -2628.382)" fill="#00c8c8"/>
          <path id="Trazado_1460" data-name="Trazado 1460" d="M2549.887,2668.446v.134h-9.142c-.032-.063-.056-.126-.087-.189-.016-.032-.032-.071-.047-.111a5.124,5.124,0,0,1-.182-.49c-.055-.174-.095-.34-.134-.514-.024-.087-.039-.182-.055-.276h9.379a2.8,2.8,0,0,1,.119.332,1.857,1.857,0,0,1,.071.3.225.225,0,0,1,.016.079c0,.008.008.024.008.032a.118.118,0,0,1,.008.055c.008.04.008.071.016.111v.04a.852.852,0,0,1,.016.142C2549.879,2668.2,2549.887,2668.32,2549.887,2668.446Z" transform="translate(-2530.932 -2621.173)" fill="#64e1dc"/>
          <rect id="Rectángulo_855" data-name="Rectángulo 855" width="1" height="1" transform="translate(21.449 45.923)" fill="#f1f9ff"/>
          <path id="Trazado_1461" data-name="Trazado 1461" d="M2637.129,2667v1.58h-1.588v-.134c0-.126-.008-.245-.016-.355a.879.879,0,0,0-.016-.142v-.04a.461.461,0,0,0-.016-.111.118.118,0,0,0-.008-.055c0-.008-.008-.024-.008-.032a.231.231,0,0,0-.016-.079,1.858,1.858,0,0,0-.071-.3,1.482,1.482,0,0,0-.111-.332Z" transform="translate(-2616.585 -2621.173)" fill="#b4f5f0"/>
          <path id="Trazado_1462" data-name="Trazado 1462" d="M2635.208,2667a1.482,1.482,0,0,1,.11.332,2.759,2.759,0,0,0-.118-.332Z" transform="translate(-2616.513 -2621.173)" fill="#b4f5f0"/>
          <path id="Trazado_1463" data-name="Trazado 1463" d="M2637.456,2675.207c-.008-.04-.008-.087-.016-.126.008.04.008.071.016.111Z" transform="translate(-2618.532 -2628.455)" fill="#b4f5f0"/>
        </g>
      </g>
      <g id="Grupo_2997" data-name="Grupo 2997" transform="translate(0 0)">
        <g id="Grupo_2995" data-name="Grupo 2995" transform="translate(25.284)">
          <path id="Trazado_1464" data-name="Trazado 1464" d="M2467.333,2368.926h-15.8a.79.79,0,0,1-.79-.79v-7.715l-4.657-9.315a.784.784,0,0,1-.083-.354V2333.37a2.373,2.373,0,0,1,2.37-2.37h1.58a2.373,2.373,0,0,1,2.37,2.37v9.481a.79.79,0,1,1-1.58,0v-9.481a.791.791,0,0,0-.79-.79h-1.58a.791.791,0,0,0-.79.79v17.2l4.657,9.315a.786.786,0,0,1,.083.353v7.111h14.223v-7.111a.8.8,0,0,1,.04-.25l3.12-9.36v-1.452a.79.79,0,0,1,1.581,0v1.58a.791.791,0,0,1-.041.25l-3.12,9.36v7.773A.79.79,0,0,1,2467.333,2368.926Z" transform="translate(-2446 -2318.358)" fill="#383844"/>
          <path id="Trazado_1465" data-name="Trazado 1465" d="M2643.531,2317.963a.79.79,0,0,1-.79-.79v-15.8a.791.791,0,0,0-.79-.79h-1.58a.791.791,0,0,0-.79.79v12.642a.79.79,0,0,1-1.58,0V2301.37a2.373,2.373,0,0,1,2.37-2.37h1.58a2.373,2.373,0,0,1,2.37,2.37v15.8A.79.79,0,0,1,2643.531,2317.963Z" transform="translate(-2619.037 -2289.519)" fill="#383844"/>
          <path id="Trazado_1466" data-name="Trazado 1466" d="M2590.79,2257.124a.79.79,0,0,1-.79-.79V2237.37a2.373,2.373,0,0,1,2.37-2.37h1.58a2.373,2.373,0,0,1,2.37,2.37v7.111a.79.79,0,1,1-1.58,0v-7.111a.791.791,0,0,0-.79-.79h-1.58a.791.791,0,0,0-.79.79v18.963A.79.79,0,0,1,2590.79,2257.124Z" transform="translate(-2575.778 -2231.84)" fill="#383844"/>
          <path id="Trazado_1467" data-name="Trazado 1467" d="M2494.79,2257.124a.79.79,0,0,1-.79-.79V2237.37a2.373,2.373,0,0,1,2.37-2.37h1.58a2.373,2.373,0,0,1,2.37,2.37v3.161a.79.79,0,0,1-1.58,0v-3.161a.791.791,0,0,0-.79-.79h-1.58a.791.791,0,0,0-.79.79v18.963A.79.79,0,0,1,2494.79,2257.124Z" transform="translate(-2489.259 -2231.84)" fill="#383844"/>
          <path id="Trazado_1468" data-name="Trazado 1468" d="M2542.79,2228.284a.79.79,0,0,1-.79-.79V2205.37a2.373,2.373,0,0,1,2.37-2.37h1.58a2.373,2.373,0,0,1,2.37,2.37v3.16a.79.79,0,1,1-1.58,0v-3.16a.791.791,0,0,0-.79-.79h-1.58a.791.791,0,0,0-.79.79v22.124A.79.79,0,0,1,2542.79,2228.284Z" transform="translate(-2532.519 -2203)" fill="#383844"/>
          <path id="Trazado_1469" data-name="Trazado 1469" d="M2510.593,2668.58h-15.8a.79.79,0,0,1,0-1.58h15.8a.79.79,0,0,1,0,1.58Z" transform="translate(-2489.259 -2621.173)" fill="#383844"/>
        </g>
        <g id="Grupo_2996" data-name="Grupo 2996">
          <path id="Trazado_1470" data-name="Trazado 1470" d="M2209.753,2340.087h-15.8a.79.79,0,0,1-.79-.79v-7.773l-3.12-9.36a.791.791,0,0,1-.041-.25V2301.37a2.373,2.373,0,0,1,2.37-2.37h1.58a2.373,2.373,0,0,1,2.37,2.37v12.642a.79.79,0,0,1-1.58,0V2301.37a.791.791,0,0,0-.79-.79h-1.58a.791.791,0,0,0-.79.79v20.415l3.12,9.36a.791.791,0,0,1,.041.25v7.111h14.222V2331.4a.789.789,0,0,1,.083-.353l4.657-9.315v-17.2a.791.791,0,0,0-.79-.79h-1.58a.791.791,0,0,0-.79.79v9.481a.79.79,0,0,1-1.581,0v-9.481a2.373,2.373,0,0,1,2.371-2.371h1.58a2.373,2.373,0,0,1,2.371,2.371v17.383a.793.793,0,0,1-.083.354l-4.657,9.315v7.715A.79.79,0,0,1,2209.753,2340.087Z" transform="translate(-2190 -2289.519)" fill="#383844"/>
          <path id="Trazado_1471" data-name="Trazado 1471" d="M2243.531,2257.124a.79.79,0,0,1-.79-.79V2237.37a.791.791,0,0,0-.79-.79h-1.58a.791.791,0,0,0-.79.79v7.9a.79.79,0,0,1-1.58,0v-7.9a2.373,2.373,0,0,1,2.37-2.37h1.58a2.373,2.373,0,0,1,2.371,2.37v18.963A.79.79,0,0,1,2243.531,2257.124Z" transform="translate(-2233.259 -2231.84)" fill="#383844"/>
          <path id="Trazado_1472" data-name="Trazado 1472" d="M2339.531,2257.124a.79.79,0,0,1-.79-.79V2237.37a.791.791,0,0,0-.79-.79h-1.58a.791.791,0,0,0-.79.79v3.161a.79.79,0,0,1-1.58,0v-3.161a2.373,2.373,0,0,1,2.37-2.37h1.58a2.373,2.373,0,0,1,2.37,2.37v18.963A.79.79,0,0,1,2339.531,2257.124Z" transform="translate(-2319.778 -2231.84)" fill="#383844"/>
          <path id="Trazado_1473" data-name="Trazado 1473" d="M2291.531,2228.284a.79.79,0,0,1-.79-.79V2205.37a.791.791,0,0,0-.79-.79h-1.58a.791.791,0,0,0-.79.79v3.16a.79.79,0,1,1-1.58,0v-3.16a2.373,2.373,0,0,1,2.37-2.37h1.58a2.373,2.373,0,0,1,2.37,2.37v22.124A.79.79,0,0,1,2291.531,2228.284Z" transform="translate(-2276.519 -2203)" fill="#383844"/>
          <path id="Trazado_1474" data-name="Trazado 1474" d="M2238.593,2668.58h-15.8a.79.79,0,0,1,0-1.58h15.8a.79.79,0,0,1,0,1.58Z" transform="translate(-2218.84 -2621.173)" fill="#383844"/>
        </g>
      </g>
    </g>
    <text id="BOLSA_1" data-name="BOLSA 1" transform="translate(283 1657)" fill="#fff" font-size="20" font-family="CerebriSans-Bold, Cerebri Sans" font-weight="700"><tspan x="0" y="0">BOLSA 1</tspan></text>
    <text id="BOLSA_2" data-name="BOLSA 2" transform="translate(541 1657)" fill="#111" font-size="20" font-family="CerebriSans-Bold, Cerebri Sans" font-weight="700"><tspan x="0" y="0">BOLSA 2</tspan></text>
  </g>
</svg>
