<svg xmlns="http://www.w3.org/2000/svg" width="203.042" height="285.453" viewBox="0 0 203.042 285.453">
  <g id="Grupo_3097" data-name="Grupo 3097" transform="translate(-468 -845.606)">
    <g id="Grupo_3096" data-name="Grupo 3096" transform="translate(24 -27)">
      <g id="Grupo_3020" data-name="Grupo 3020" transform="translate(242.127 671.22)">
        <path id="Trazado_1519" data-name="Trazado 1519" d="M444.346,361.464a5.457,5.457,0,0,0,7.559-2.2,33.416,33.416,0,0,0,3.951-15.226,51.471,51.471,0,0,0-2.53-16.2c-3.9-11.563-64.57-12.183-78.31-12.179-13.707.005-72.419.64-76.268,12.184a52.4,52.4,0,0,0-2.5,16.2,33.4,33.4,0,0,0,3.951,15.231,5.525,5.525,0,0,0,7.575,2.2,122.284,122.284,0,0,1,32.931-12.591,168.052,168.052,0,0,1,70.628-.017A126.121,126.121,0,0,1,444.346,361.464Z" transform="translate(-72.388)" fill="#302f2f" fill-rule="evenodd"/>
        <g id="Grupo_3019" data-name="Grupo 3019" transform="translate(201.873 331.577)">
          <path id="Trazado_1520" data-name="Trazado 1520" d="M379.466,384.03c2.72,8.335,2.508,18.511-1.8,30.757-5.707,16.224,10.072,16.931,10.072,41.383,0,7.153-3.9,13.275-3.79,19.193.346,18.5,12.446,33.053,18.105,42.79,6.25,10.755,4.644,15.641-29.334,13.5-15.03,5.1-42.187,7.646-69.322,7.637-27.136.009-54.292-2.537-69.321-7.637-29.043,1.83-34.436-1.474-31.486-9.189,3.626-9.483,19.855-25.631,20.256-47.1.111-5.918-3.791-12.041-3.791-19.193,0-24.452,15.78-25.16,10.072-41.383-4.309-12.246-4.521-22.423-1.8-30.757,21.033,6.687,47.419,10.669,76.071,10.669S358.432,390.717,379.466,384.03Z" transform="translate(-201.873 -384.03)" fill="#302f2f" fill-rule="evenodd"/>
          <path id="Trazado_1521" data-name="Trazado 1521" d="M396.262,417.381c13.111,6.231,21.784,17.039,21.784,29.33,0,11.918-8.157,22.442-20.606,28.75,5.413,5.046,8.478,10.782,8.478,16.869,0,20.156-33.573,36.5-74.986,36.5-16.97,0-50.149.64-50.149-20.947,0-14.985,8.884-11.719,9.184-26.977.114-5.8-3.913-11.8-3.913-18.806,0-23.958,16.292-24.652,10.4-40.548-4.291-11.575-4.647-21.261-2.146-29.261,19.869,5.522,43.828,8.746,69.62,8.746a285.331,285.331,0,0,0,47.472-3.857C409.562,403.593,404.792,410.443,396.262,417.381Z" transform="translate(-262.406 -390.362)" fill="#3a3a3a" fill-rule="evenodd"/>
          <path id="Trazado_1522" data-name="Trazado 1522" d="M352.718,424.048c-8.568-2.676-27.165-6.227-40.655,2.165-4.725-11.959-5.945-22.142-4.294-30.675-4.663-.97-9.16-2.057-13.463-3.253-2.5,8-2.145,17.687,2.146,29.261,5.893,15.9-10.4,16.59-10.4,40.548,0,7.008,4.028,13.007,3.913,18.806-.3,15.258-9.184,11.992-9.184,26.977,0,21.587,33.179,20.947,50.149,20.947q2.192,0,4.353-.063c-66.453-1.481-45.071-45.626,12.735-54.046-9.238-2.884-30.13-6.786-43.714,4.356C295.873,456.013,304.089,431.131,352.718,424.048Z" transform="translate(-262.406 -390.362)" fill="#444" fill-rule="evenodd"/>
        </g>
        <path id="Trazado_1523" data-name="Trazado 1523" d="M436.517,353.353a5.7,5.7,0,0,1,7.835,2.246,33.67,33.67,0,0,1,4.095,15.534,51.743,51.743,0,0,1-2.623,16.533c-1.439,4.2-18.774,10.961-37.261,15.047-31.281,6.913-54.424,6.914-85.707,0-18.471-4.083-35.823-10.856-37.244-15.053a52.7,52.7,0,0,1-2.589-16.533,33.666,33.666,0,0,1,4.095-15.54,5.774,5.774,0,0,1,7.852-2.24A128,128,0,0,0,329.1,366.194a176.877,176.877,0,0,0,73.2.017A131.991,131.991,0,0,0,436.517,353.353Z" transform="translate(-62.241 -28.338)" fill="#3a3a3a" fill-rule="evenodd"/>
        <path id="Trazado_1524" data-name="Trazado 1524" d="M316.3,379.874a5.36,5.36,0,0,1,7.175-2.16,129.756,129.756,0,0,0,32.117,10.5,172.613,172.613,0,0,0,34.147,2.821,166.918,166.918,0,0,0,29.663-2.961,138.218,138.218,0,0,0,28.529-8.94c3.757,19.29-33.951,36.775-70.528,37.344C340.868,417.043,306.1,400.914,316.3,379.874Z" transform="translate(-86.396 -47.165)" fill="#302f2f" fill-rule="evenodd"/>
        <path id="Trazado_1525" data-name="Trazado 1525" d="M300.186,357.1a2.439,2.439,0,0,1-.132-1.2l.119-.218a5.774,5.774,0,0,1,7.852-2.24,128,128,0,0,0,34.131,12.847,176.878,176.878,0,0,0,73.2.017,131.128,131.128,0,0,0,24.883-8.25q1.282-.511,2.542-1.04c1.81,8.208-30.606,20.149-65.74,21.624C341.892,380.115,305.1,370.445,300.186,357.1Z" transform="translate(-75.297 -28.432)" fill="#444" fill-rule="evenodd"/>
      </g>
      <g id="Grupo_3078" data-name="Grupo 3078" transform="translate(-1626.878 -725.132) rotate(25)">
        <path id="Rectángulo_859" data-name="Rectángulo 859" d="M8.813,0H28a8.811,8.811,0,0,1,8.811,8.811V36.3A8.812,8.812,0,0,1,28,45.115H8.81A8.81,8.81,0,0,1,0,36.3V8.813A8.813,8.813,0,0,1,8.813,0Z" transform="matrix(0.897, -0.442, 0.442, 0.897, 2632.521, 620.228)" fill="#c8d3d6"/>
        <path id="Rectángulo_860" data-name="Rectángulo 860" d="M2.2,0H25.227a2.2,2.2,0,0,1,2.2,2.2v7.865a2.2,2.2,0,0,1-2.2,2.2H2.2a2.2,2.2,0,0,1-2.2-2.2V2.2A2.2,2.2,0,0,1,2.2,0Z" transform="translate(2631.28 607.107) rotate(-26.259)" fill="#e9edef"/>
        <g id="Grupo_3069" data-name="Grupo 3069" transform="translate(2634.464 607.383)">
          <path id="Trazado_1664" data-name="Trazado 1664" d="M2636.193,610.425a.541.541,0,1,0-.97.478l3.321,6.732a.54.54,0,1,0,.969-.479Z" transform="translate(-2635.166 -610.122)" fill="#d1d3d4"/>
        </g>
        <g id="Grupo_3070" data-name="Grupo 3070" transform="translate(2636.871 606.196)">
          <path id="Trazado_1665" data-name="Trazado 1665" d="M2639.132,608.975a.542.542,0,1,0-.972.479l3.321,6.732a.542.542,0,0,0,.972-.479Z" transform="translate(-2638.104 -608.672)" fill="#d1d3d4"/>
        </g>
        <g id="Grupo_3071" data-name="Grupo 3071" transform="translate(2639.278 605.008)">
          <path id="Trazado_1666" data-name="Trazado 1666" d="M2642.071,607.525a.542.542,0,1,0-.972.479l3.321,6.732a.542.542,0,0,0,.972-.479Z" transform="translate(-2641.043 -607.222)" fill="#d1d3d4"/>
        </g>
        <g id="Grupo_3072" data-name="Grupo 3072" transform="translate(2641.685 603.821)">
          <path id="Trazado_1667" data-name="Trazado 1667" d="M2645.009,606.076a.541.541,0,1,0-.971.479l3.32,6.732a.542.542,0,0,0,.972-.479Z" transform="translate(-2643.981 -605.773)" fill="#d1d3d4"/>
        </g>
        <g id="Grupo_3073" data-name="Grupo 3073" transform="translate(2644.092 602.633)">
          <path id="Trazado_1668" data-name="Trazado 1668" d="M2647.947,604.626a.542.542,0,1,0-.972.479l3.321,6.732a.541.541,0,0,0,.971-.479Z" transform="translate(-2646.919 -604.323)" fill="#d1d3d4"/>
        </g>
        <g id="Grupo_3074" data-name="Grupo 3074" transform="translate(2646.5 601.446)">
          <path id="Trazado_1669" data-name="Trazado 1669" d="M2650.885,603.177a.542.542,0,1,0-.972.479l3.321,6.732a.542.542,0,0,0,.972-.479Z" transform="translate(-2649.858 -602.874)" fill="#d1d3d4"/>
        </g>
        <g id="Grupo_3075" data-name="Grupo 3075" transform="translate(2648.907 600.258)">
          <path id="Trazado_1670" data-name="Trazado 1670" d="M2653.824,601.727a.542.542,0,1,0-.971.479l3.321,6.732a.541.541,0,0,0,.971-.479Z" transform="translate(-2652.797 -601.424)" fill="#d1d3d4"/>
        </g>
        <g id="Grupo_3076" data-name="Grupo 3076" transform="translate(2651.314 599.07)">
          <path id="Trazado_1671" data-name="Trazado 1671" d="M2656.762,600.278a.542.542,0,1,0-.972.478l3.321,6.732a.541.541,0,0,0,.971-.479Z" transform="translate(-2655.735 -599.975)" fill="#d1d3d4"/>
        </g>
        <g id="Grupo_3077" data-name="Grupo 3077" transform="translate(2653.721 597.883)">
          <path id="Trazado_1672" data-name="Trazado 1672" d="M2659.7,598.828a.542.542,0,1,0-.972.479l3.321,6.732a.542.542,0,0,0,.972-.479Z" transform="translate(-2658.673 -598.525)" fill="#d1d3d4"/>
        </g>
        <rect id="Rectángulo_861" data-name="Rectángulo 861" width="30.227" height="26.888" transform="matrix(0.897, -0.442, 0.442, 0.897, 2642.461, 625.486)" fill="#00aea5"/>
        <path id="Trazado_1673" data-name="Trazado 1673" d="M2657.065,653.922l1.953,3.958,27.108-13.373-1.84-3.73Q2670.636,647.264,2657.065,653.922Z" transform="translate(-4.661 -8.28)" fill="#fff"/>
        <rect id="Rectángulo_862" data-name="Rectángulo 862" width="30.227" height="3.905" transform="translate(2642.461 625.486) rotate(-26.26)" fill="#fff"/>
        <path id="Trazado_1674" data-name="Trazado 1674" d="M2638.93,624.956c.425-1-.176-1.549.095-2.5a7.214,7.214,0,0,0-2.5,9.21l13.573,27.513a7.218,7.218,0,0,0,9.668,3.279l20.067-9.9a7.2,7.2,0,0,0,3.89-5.121c-2.452,1.252-15.779,7.825-18.336,8.832C2659.046,659.4,2638.045,627.03,2638.93,624.956Z" transform="translate(-0.814 -4.969)" opacity="0.1"/>
      </g>
      <g id="Grupo_3083" data-name="Grupo 3083" transform="translate(-386.414 299.56)">
        <g id="Grupo_3082" data-name="Grupo 3082">
          <path id="Trazado_1675" data-name="Trazado 1675" d="M928.414,695.717l20.567,9.886,26.535-44.428-28.982-13.931Z" fill="#ef4213"/>
          <path id="Trazado_1676" data-name="Trazado 1676" d="M939.408,681.487c.708-5.041,8.173-25.135,10.67-30.428a8.74,8.74,0,0,1,1-1.63l-4.545-2.185-18.12,48.473,20.567,9.886,3.175-5.315a12.733,12.733,0,0,1-2.4-.208C941.22,698.5,938.344,689.064,939.408,681.487Z" opacity="0.07"/>
          <path id="Trazado_1677" data-name="Trazado 1677" d="M975.6,660.238l-28.387-13.645a1.541,1.541,0,0,0-2.057.722h0a1.541,1.541,0,0,0,.722,2.057l28.386,13.645a1.542,1.542,0,1,0,1.336-2.779Z" fill="#c8e3f3"/>
          <g id="Grupo_3079" data-name="Grupo 3079">
            <path id="Trazado_1678" data-name="Trazado 1678" d="M971.2,668.63l-27.791-13.358a.441.441,0,0,0-.382.794l27.791,13.359a.441.441,0,0,0,.382-.795Z" fill="#fff" opacity="0.4"/>
          </g>
          <g id="Grupo_3080" data-name="Grupo 3080">
            <path id="Trazado_1679" data-name="Trazado 1679" d="M968.9,672.9l-27.394-13.167a.44.44,0,0,0-.381.794L968.52,673.7a.44.44,0,1,0,.381-.794Z" fill="#fff" opacity="0.4"/>
          </g>
          <g id="Grupo_3081" data-name="Grupo 3081">
            <path id="Trazado_1680" data-name="Trazado 1680" d="M966.405,677.078l-26.6-12.785a.44.44,0,1,0-.381.794l26.6,12.786a.441.441,0,0,0,.381-.795Z" fill="#fff" opacity="0.4"/>
          </g>
        </g>
      </g>
      <g id="Grupo_3087" data-name="Grupo 3087" transform="translate(156.624 -245.354) rotate(30)">
        <g id="Grupo_3086" data-name="Grupo 3086" transform="translate(911.929 764.407)">
          <g id="Grupo_3085" data-name="Grupo 3085" transform="translate(0 0)">
            <g id="Grupo_3084" data-name="Grupo 3084">
              <path id="Trazado_1681" data-name="Trazado 1681" d="M945.157,768.382l-6.939-1.8-.815,2.9c-4.516,1.45-10.862,8.87-12.11,13.306l-.144.511a7.717,7.717,0,0,0,.62,5.992l-.417,1.482a9.838,9.838,0,0,0-3.815,5.357l-9.432,33.511a4.749,4.749,0,0,0,.912,4.3c.687,1.88,2.16,5.207,6.578,3.868a5.165,5.165,0,0,1,4.1,1.063c2.973,3.137,5.856,1.313,7.487.015a5.008,5.008,0,0,0,3.453-3.415l9.431-33.511a9.464,9.464,0,0,0-.486-6.47l.417-1.481a8.041,8.041,0,0,0,3.68-4.879l.144-.511c1.251-4.445-.293-13.94-3.48-17.362Z" transform="translate(-911.929 -766.586)" fill="#9be0f8"/>
              <path id="Trazado_1682" data-name="Trazado 1682" d="M957.032,775.214a2.467,2.467,0,0,0-2.746.987,59.691,59.691,0,0,0-5.915,12.53l-.153.508a17.626,17.626,0,0,0-.832,4.867l7,2.012a17.815,17.815,0,0,0,2.327-5.076l.152-.508a55.825,55.825,0,0,0,1.89-13.092A2.332,2.332,0,0,0,957.032,775.214Z" transform="translate(-926.673 -770.133)" fill="#fff" opacity="0.4"/>
              <path id="Trazado_1683" data-name="Trazado 1683" d="M934.764,817.531l-10.025,33.341a10.63,10.63,0,0,0-.475,2.8l7.481,2.149a10.579,10.579,0,0,0,1.494-3.143l10.025-33.34a22.431,22.431,0,0,0,.917-4.8l-7.233-2.077A23.108,23.108,0,0,0,934.764,817.531Z" transform="translate(-917.058 -785.661)" fill="#fff" opacity="0.4"/>
              <path id="Trazado_1684" data-name="Trazado 1684" d="M937.4,769.484c-4.516,1.45-10.862,8.87-12.11,13.306l-.144.511a7.714,7.714,0,0,0,.621,5.992l-.417,1.482a9.838,9.838,0,0,0-3.815,5.357l-9.432,33.511a4.75,4.75,0,0,0,.912,4.3c.687,1.88,2.16,5.207,6.578,3.868a5.165,5.165,0,0,1,4.1,1.063c2.016,2.128,3.991,1.973,5.562,1.248-.217-.418-.408-.849-.613-1.273q-1.25-.359-2.444-.825c-2.938-.5-6.05-1.252-8.283-2.731-3.562-2.358-2.839-6.346-1.99-9.924,1.12-4.719,7.372-25.139,9.1-30.786a4.647,4.647,0,0,1,1.364-2.175c2.479-8.778,4.669-16.953,11.662-23.44a1.391,1.391,0,0,1,.249-.184l.043-.072a4.009,4.009,0,0,1,1.86-1.609l-2-.517Z" transform="translate(-911.929 -766.586)" fill="#00658f" opacity="0.07"/>
            </g>
          </g>
        </g>
        <path id="Trazado_1685" data-name="Trazado 1685" d="M964.217,763.312l-7.53-1.949a.521.521,0,0,0-.636.35l-.99,3.518a.5.5,0,0,0,.366.609l7.53,1.949a.521.521,0,0,0,.635-.351l.99-3.517A.5.5,0,0,0,964.217,763.312Z" transform="translate(-17.929)" fill="#094c5c"/>
      </g>
    </g>
    <text id="BOLSA_1" data-name="BOLSA 1" transform="translate(529 1061)" fill="#fff" font-size="20" font-family="CerebriSans-Bold, Cerebri Sans" font-weight="700"><tspan x="0" y="0">BOLSA 1</tspan></text>
  </g>
</svg>
