<svg xmlns="http://www.w3.org/2000/svg" width="344.889" height="232.274" viewBox="0 0 344.889 232.274">
  <g id="Grupo_3092" data-name="Grupo 3092" transform="translate(-474.291 -2534.052)">
    <g id="Grupo_3022" data-name="Grupo 3022" transform="translate(-289.655 2334.052)">
      <g id="Left_Hand" data-name="Left Hand" transform="translate(763.946 200)">
        <path id="Trazado_1526" data-name="Trazado 1526" d="M1213.311,281.877s55.47-60.048,73.553-72.421l11.421-7.614s8.09-3.807,12.373-.476c0,0,8.09,3.807-2.379,13.324,0,0-36.166,29.028-49.014,43.3l52.821-41.4s10.469-9.993,16.655-10.469c0,0,9.517-.476,4.283,10.945,0,0-39.5,39.973-55.2,52.821l48.538-39.021s9.517-8.566,12.848-2.855c0,0,5.235,5.235-2.855,15.228l-50.442,46.635,35.214-24.269s10.945-8.566,13.324-3.331c0,0,4.283,4.283-5.234,14.752,0,0-32.359,27.124-43.78,34.738l-11.421,7.614-10.945,4.759-48.344-10.4Z" transform="translate(-1155.324 -200)" fill="#ffd4aa"/>
        <path id="Trazado_1527" data-name="Trazado 1527" d="M885.08,569.741l-28.552-82.8c-2.855-16.655-13.324-41.876-13.324-41.876-9.041-22.366-21.89-18.559-21.89-18.559-8.09,2.379,2.379,16.655,2.379,16.655,4.283,6.662,6.662,19.035,6.662,19.035.952,23.317,9.042,60.911,9.042,60.911l-.952,9.993c-4.184,29.29-32.648,80.281-39.458,92.164h68.047A430.27,430.27,0,0,1,885.08,569.741Z" transform="translate(-794.465 -397.063)" fill="#ffd4aa"/>
        <path id="Trazado_1528" data-name="Trazado 1528" d="M974.859,547.3a21.2,21.2,0,0,1-1.878,6.512q-9.706,23.8-19.417,47.585a18.51,18.51,0,0,1-2.648-4.991c8.038-17.224,15.537-36.1,17.534-50.042l.952-9.993s-8.089-37.592-9.041-60.909c0,0-2.379-12.372-6.662-19.039,0,0-7.634-10.407-4.826-14.932,1.831,8.027,7.345,15.1,10.386,22.913,4.407,11.312,4.4,24.03,6.052,35.911q1.715,12.352,4.469,24.522C971.291,531.518,975.315,540.5,974.859,547.3Z" transform="translate(-924.47 -410.332)" fill="#fff" opacity="0.5" style="mix-blend-mode: soft-light;isolation: isolate"/>
        <path id="Trazado_1529" data-name="Trazado 1529" d="M1165.166,1484.848l-33.873-8.376s3.307,5.665,7.08,8.5c0,0-8.329,29.283-17.606,54.987h26.523A430.068,430.068,0,0,1,1165.166,1484.848Z" transform="translate(-1074.722 -1311.755)" fill="#ffd4aa" opacity="0.5" style="mix-blend-mode: multiply;isolation: isolate"/>
        <path id="Trazado_1530" data-name="Trazado 1530" d="M1005.012,544.192c-12.206-14.14-15.223-33.795-17.425-52.338s-4.453-38.128-15.655-53.082c-2.152-2.875-9.927-7.541-13.106-11.414a4.627,4.627,0,0,1,1.7-.871s12.851-3.8,21.893,18.565c0,0,10.465,25.22,13.325,41.873l1.324,3.838c.014,1.182.028,2.365.057,3.547A191.474,191.474,0,0,0,1005.012,544.192Z" transform="translate(-933.679 -397.049)" fill="#ffd4aa" opacity="0.5" style="mix-blend-mode: multiply;isolation: isolate"/>
        <path id="Unión_1" data-name="Unión 1" d="M2.87,115.225,0,74.886c7.722-8.233,21.4-22.671,34.845-36.122l11.509,83.909-2.936,1.276Zm46.78-8.014C48.808,89.588,47.158,71.93,43.6,54.675L64.625,38.2a88.576,88.576,0,0,1,3.728,12.836c6-3.608,11.576-8.5,16.961-12.765C92.5,32.577,99.255,26.353,106,20.144a21.045,21.045,0,0,0,4.312-4.907,7.052,7.052,0,0,0,.566-6.287A5.27,5.27,0,0,0,107.32,6.28a8.482,8.482,0,0,1,1.77-.347s9.516-.474,4.277,10.946c0,0-25.31,25.614-43.46,42.423v0C65.383,63.5,61.3,67.136,58.168,69.7l11.874-9.544c.817,5.084,1.484,10.23,2.246,15.337,12.158-8.125,23.061-18,33.913-27.826q2.645-2.4,5.289-4.793c3.908-3.547,7.4-7.98,6.606-13.616-.2-1.423-1-3-2.287-3.377a3.75,3.75,0,0,1,3.746,1.947s5.239,5.232-2.853,15.223L70.02,86.211l-.009.008-3.751,3.469,7.533-5.19a104.11,104.11,0,0,0,3.118,12.579,262.823,262.823,0,0,0,31.725-25.111c1.848-1.706,3.76-3.6,4.234-6.068.51-2.634.184-4.17-2.16-5.232a.71.71,0,0,1-.163-.1c1.869-.411,3.491-.142,4.248,1.522,0,0,4.284,4.283-5.233,14.748,0,0-17.292,14.5-31.055,25.268v0c-.736.581-1.466,1.147-2.181,1.7-.453.348-.894.69-1.334,1.026l-.229.176c-1.886,1.456-3.662,2.789-5.255,3.952-.234.17-.467.34-.687.5-1.126.814-2.145,1.529-3.038,2.124l-11.421,7.611-3.413,1.487A89.886,89.886,0,0,1,49.65,107.211ZM39.851,39.2c-.4-1.423-.821-2.868-1.1-4.326,2.28-2.252,4.532-4.454,6.726-6.578.34,2.556.467,5.19,1.048,7.661.094.407.569,1.676,1.184,3.262a435.792,435.792,0,0,0,37.61-28.765c1.628-1.395,3.314-2.9,3.993-4.935A6.235,6.235,0,0,0,88.373,0a6.467,6.467,0,0,1,2.634,1.175S99.093,4.985,88.628,14.5c0,0-22.164,17.786-37.952,32.361v0c-2.641,2.436-5.1,4.779-7.25,6.939Q41.887,46.454,39.851,39.2Z" transform="translate(64.328 0.19)" fill="#ffd4aa" opacity="0.4" style="mix-blend-mode: multiply;isolation: isolate"/>
        <path id="Trazado_1538" data-name="Trazado 1538" d="M846.654,1639.948a9.3,9.3,0,0,0-3.863-10.029c-13.7-9.187-37.787-15.254-49.054-17.727a7.826,7.826,0,0,0-8.771,4.322c-4.821,10.292-13.382,28.9-21.02,45.562h77C843.191,1653.443,845.309,1645.2,846.654,1639.948Z" transform="translate(-763.946 -1429.801)" fill="#3c424c"/>
        <path id="Trazado_1539" data-name="Trazado 1539" d="M1154.2,1695.041a9.3,9.3,0,0,0-3.863-10.029c-5.654-3.793-13.08-7.052-20.644-9.748-3.537,14.208-7.785,28.151-12.635,41.9h31.437C1150.737,1708.536,1152.855,1700.292,1154.2,1695.041Z" transform="translate(-1071.492 -1484.894)" fill="#34383f"/>
      </g>
      <g id="Soap" transform="translate(796.895 232.383)">
        <path id="Trazado_1540" data-name="Trazado 1540" d="M1112.186,782.629a2.788,2.788,0,0,0-4.154.391l-.063.1a2.884,2.884,0,0,0-.477,2.059,2.84,2.84,0,0,0,.849,1.539,2.766,2.766,0,0,0,3.615.151l.094-.074A2.78,2.78,0,0,0,1112.186,782.629Z" transform="translate(-1096.072 -739.174)" fill="#fff"/>
        <path id="Trazado_1541" data-name="Trazado 1541" d="M1091.935,842.7a1.277,1.277,0,0,0-1.791.68,1.3,1.3,0,0,0,.76,1.64,1.272,1.272,0,0,0,1.031-2.32Z" transform="translate(-1080.933 -792.018)" fill="#fff"/>
        <path id="Trazado_1542" data-name="Trazado 1542" d="M1222.838,499.41c1.924-5.971-.988-13.707-6.941-16.223a10.62,10.62,0,0,0-2.064-1.037,13.685,13.685,0,0,0-4.374-6.945l2.346-2.436a3.451,3.451,0,0,0,.78-1.05,2.342,2.342,0,0,0,.089-1.29,3.726,3.726,0,0,0-3.607-2.963c.386-.815,1.513-1.163,1.712-2.043.189-.834-.668-1.614-1.522-1.664a4.029,4.029,0,0,0-2.364.876c.282-5.335-3.343-12.209-8.843-13.44a11,11,0,0,0-5.351.2c-.4.111-4.655,2.042-4.25,2.355-1.224-.949-2.671-1.95-4.183-1.623a4.2,4.2,0,0,0-1.9,1.113,9.788,9.788,0,0,0-3.045,8.029,7.706,7.706,0,0,1,.088,2.4,4.2,4.2,0,0,1-1.384,2.12c-2.58,2.34-4.822.223-7.271,1.511-2.071,1.089-1.853,4.356-3.681,5.816-4.52,3.611-10.825-4.221-15.659-2.4-3.934,1.48-4.49,6.313-6.633,9.392-3.093,4.444-9.135,3.158-12.713,7.331-2.422,2.825-2.844,7.552-.146,10.115a10.092,10.092,0,0,0-4.227,3.417c-4.754,6.5-1.756,16.755.991,23.568a6.239,6.239,0,0,0-4.142,3.259c-.69,1.681.094,3.995,1.859,4.426-2,.812-2.8,3.448-2.089,5.488a8.126,8.126,0,0,0,4.517,4.4,16.532,16.532,0,0,1,2.974,1.459c2.531,1.841,2.862,5.215,4.055,7.877a38.048,38.048,0,0,0,4.114,7.257,28.82,28.82,0,0,0,12.6,9.2c10.174,3.961,22.2,3.39,32.233-.736a34.559,34.559,0,0,0,10.3-6.367c11.743-10.816,14.5-25.618,19.75-39.953,1.569-4.286,3.154-8.855,2.65-13.317a10.578,10.578,0,0,0,.9-.708,6.073,6.073,0,0,0,1.292-1.368A23.514,23.514,0,0,0,1222.838,499.41Z" transform="translate(-1110.542 -450.952)" fill="#fff"/>
        <path id="Trazado_1543" data-name="Trazado 1543" d="M1335.228,468.095a5.307,5.307,0,0,0-1.737,1.142c-3.348,3.135-1.388,8.252-2.422,12.389-4.655-6.207-5.689-14.482-10.345-20.172a5.273,5.273,0,0,0-.6-.576,4.628,4.628,0,0,0-1.559,1,9.788,9.788,0,0,0-3.045,8.029,7.71,7.71,0,0,1,.088,2.4,4.2,4.2,0,0,1-1.384,2.12c-2.58,2.34-4.822.223-7.271,1.511-2.071,1.089-1.853,4.356-3.681,5.816-4.52,3.611-10.825-4.221-15.658-2.4-3.934,1.48-4.49,6.313-6.633,9.392a7.443,7.443,0,0,1-.542.685c1.969,19.773-.625,42.885,18.043,55.809,9.827,6.724,22.758,12.931,34.137,6.724,5.172-2.586,7.241-8.793,12.931-12.413a26.859,26.859,0,0,0,3.13-3.145c.761-2.306,1.539-4.618,2.381-6.919.2-.533.391-1.07.582-1.612-1.442-10.3-2.341-20.671-3.964-30.947a152.4,152.4,0,0,0-3.09-15.092c-1.042-3.953-2.151-8.943-4.813-12.179a4.353,4.353,0,0,0-4.074-1.707A3.4,3.4,0,0,0,1335.228,468.095Z" transform="translate(-1246.741 -459.596)" fill="#88ceed" opacity="0.2"/>
        <path id="Trazado_1544" data-name="Trazado 1544" d="M1190.254,699.921c-2.47,1.023-5.282,1.452-7.522,3.175-.378.291-.129,4.45-.089,5.229.11,2.128,1.014,4.138,1.023,6.273a16.137,16.137,0,0,1-1.087,4.9,32.1,32.1,0,0,0-1.786,10.057,16.185,16.185,0,0,0,3.016,9.623,7.305,7.305,0,0,1,1.228,1.891c.421,1.2.007,2.5-.245,3.742a14.435,14.435,0,0,0,.5,7.531c1.337,3.878,3.321,6.725,3.712,10.843.466,4.911,1.709,9.851,2.451,14.734a29.629,29.629,0,0,0,9.871,6.543C1194.127,756.882,1189.849,728.615,1190.254,699.921Z" transform="translate(-1159.95 -667.794)" fill="#88ceed" opacity="0.2"/>
        <path id="Trazado_1545" data-name="Trazado 1545" d="M1868.039,1008.059a3.349,3.349,0,0,0-2.929-2.721,3.663,3.663,0,0,0-2.447.74,3.256,3.256,0,0,0-1.2,2.256,3.16,3.16,0,0,0,1.043,2.675,3.12,3.12,0,0,0,2.355.886,3.227,3.227,0,0,0,2.393-1.125,2.447,2.447,0,0,0,.429-.66A3.11,3.11,0,0,0,1868.039,1008.059Z" transform="translate(-1752.763 -933.792)" fill="#fff"/>
        <path id="Trazado_1546" data-name="Trazado 1546" d="M1912.663,1082.3c-.988,0-1.141,1.543-.141,1.543S1913.663,1082.3,1912.663,1082.3Z" transform="translate(-1796.667 -1000.834)" fill="#fff"/>
        <path id="Trazado_1547" data-name="Trazado 1547" d="M1055.339,943.988a4.99,4.99,0,0,0-3.479-1.857,4.888,4.888,0,0,0-4.911,2.706,3.777,3.777,0,0,0-.607,1.885,5.122,5.122,0,0,0,1.112,3.661,4.99,4.99,0,0,0,3.479,1.856,4.888,4.888,0,0,0,4.91-2.706,3.775,3.775,0,0,0,.607-1.885A5.122,5.122,0,0,0,1055.339,943.988Z" transform="translate(-1042.845 -878.721)" fill="#fff"/>
        <path id="Trazado_1548" data-name="Trazado 1548" d="M1021.644,907.158c-2.841,0-3.28,4.435-.406,4.435C1024.079,911.593,1024.517,907.158,1021.644,907.158Z" transform="translate(-1019.286 -848.289)" fill="#fff"/>
        <path id="Trazado_1549" data-name="Trazado 1549" d="M1878.526,885.712a4.135,4.135,0,0,0-2.883-1.538,4.7,4.7,0,0,0-3.032.922,4.3,4.3,0,0,0-1.538,2.882,4.244,4.244,0,0,0,.921,3.033,4.135,4.135,0,0,0,2.883,1.538,4.7,4.7,0,0,0,3.032-.921,4.3,4.3,0,0,0,1.538-2.883A4.244,4.244,0,0,0,1878.526,885.712Z" transform="translate(-1761.152 -828.247)" fill="#fff"/>
        <path id="Trazado_1550" data-name="Trazado 1550" d="M1866.027,680.595c-.045,0-.052.07-.006.07S1866.073,680.595,1866.027,680.595Z" transform="translate(-1756.73 -650.962)" fill="#fff"/>
        <path id="Trazado_1551" data-name="Trazado 1551" d="M1829.709,609.422a3.56,3.56,0,0,0-1.871-1.568l-.082-.025c-.031-.011-.06-.031-.091-.04a3.605,3.605,0,0,0-1.869-.088,3.779,3.779,0,0,0-2.286,1.491,4.155,4.155,0,0,0-.649,1.772c-.009.047-.017.09-.025.133v-.031a.245.245,0,0,1,0,.047c0,.021-.009.045-.012.065a3.558,3.558,0,0,0,1.492,3.254,3.881,3.881,0,0,0,3.768.342l.826-.508.686-.731a3.7,3.7,0,0,0,.663-2.309A3.566,3.566,0,0,0,1829.709,609.422Z" transform="translate(-1719.1 -587.4)" fill="#fff"/>
        <path id="Trazado_1552" data-name="Trazado 1552" d="M1896.106,672.267a1.166,1.166,0,0,0-1.122-.263,2.009,2.009,0,0,0-.935.276,1.612,1.612,0,0,0-.582,2.442,1.59,1.59,0,0,0,2.518-.077,5.531,5.531,0,0,0,.364-.677,1.4,1.4,0,0,0,.081-.559A1.174,1.174,0,0,0,1896.106,672.267Z" transform="translate(-1780.36 -643.437)" fill="#fff"/>
      </g>
      <g id="Right_Hand" data-name="Right Hand" transform="translate(778.67 215.064)">
        <path id="Trazado_1553" data-name="Trazado 1553" d="M1008.181,463.387c7.15-20.915-9.506-68.026-9.506-68.026-2.379-17.607-7.138-42.828-7.138-42.828-2.379-14.276-8.09-12.372-8.09-12.372-5.234.952-5.71,7.138-5.71,7.138,2.855,20.938,4.747,49.931,4.747,49.931-1.428-16.655-12.837-67.062-12.837-67.062-2.38-16.655-10.481-11.421-10.481-11.421-5.71,4.283-1.892,25.221-1.892,25.221,1.428,15.228,4.759,51.138,4.759,51.138-1.9-9.517-11.9-67.318-11.9-67.318-2.379-14.752-9.993-10.469-9.993-10.469-6.662,1.9-4.759,10.945-4.759,10.945.476,6.186,6.662,68.049,6.662,68.049-1.9-12.848-9.517-59.007-9.517-59.007-2.379-12.373-9.041-8.09-9.041-8.09-6.231,1.558-6.617,12.687-5.235,22.366,1.453,10.169,6.662,54.249,6.662,54.249,1.9,14.752,2.617,21.414,5.948,36.166,0,0-4.634,1.413-23.091-15.959-16.179-15.228-29.028-5.455-29.028-5.455s-3.563,4.759,5.478,9.517,8.809,3.331,23.561,23.793,45.207,29.979,45.207,29.979c10.291,14.922,15.851,32.762,18.789,46.005h61.489C1018.825,505.531,1008.181,463.387,1008.181,463.387Z" transform="translate(-878.053 -316.741)" fill="#ffd4aa"/>
        <path id="Trazado_1554" data-name="Trazado 1554" d="M952.079,1188.317c-.326.005-.646.005-.972,0-6.869-2.441-30.77-11.927-43.318-29.332-14.751-20.461-14.519-19.034-23.56-23.792-7.076-3.724-6.434-7.448-5.819-8.891a16.22,16.22,0,0,0,6.548,7.453c3.181,1.94,6.734,3.233,9.8,5.348,5.783,3.993,9.238,10.458,13.412,16.117C919.147,1170.106,935.631,1179.856,952.079,1188.317Z" transform="translate(-878.056 -1021.835)" fill="#fff" opacity="0.5" style="mix-blend-mode: soft-light;isolation: isolate"/>
        <path id="Trazado_1555" data-name="Trazado 1555" d="M951.427,1128.915l-4.381-15.095c.5,2.487,1.069,5.172,1.753,8.2,0,0-4.634,1.413-23.091-15.959-12.424-11.694-22.877-8.646-27.063-6.6a25.128,25.128,0,0,1,17.863,3.642c6.148,4.2,10.533,10.444,15.68,15.822S943.985,1129.1,951.427,1128.915Z" transform="translate(-895.988 -996.767)" fill="#ffd4aa" opacity="0.5" style="mix-blend-mode: multiply;isolation: isolate"/>
        <g id="Grupo_3021" data-name="Grupo 3021" transform="translate(45.079)">
          <path id="Trazado_1556" data-name="Trazado 1556" d="M1350.807,395.88c.426.42,1.213.123,1.487-.408a2.906,2.906,0,0,0,.107-1.761q-.372-2.518-.745-5.036c-3.269-17.953-10.692-60.888-10.692-60.888-2.379-14.752-9.993-10.469-9.993-10.469a6.261,6.261,0,0,0-4.185,3.672c.564.221,1.813-1.4,2.734-1.778a5.506,5.506,0,0,1,4.053-.1,7.357,7.357,0,0,1,3.889,4.146,22.23,22.23,0,0,1,1.271,5.684q4.477,33.326,11.751,66.2A1.449,1.449,0,0,0,1350.807,395.88Z" transform="translate(-1313.959 -316.741)" fill="#ffd4aa" opacity="0.5" style="mix-blend-mode: multiply;isolation: isolate"/>
          <path id="Trazado_1557" data-name="Trazado 1557" d="M1233.234,413.011c1.148,2.037,1.441,4.554,1.763,6.827l6.465,45.682c.418,2.953,1.114,5.688,1.743,8.609a3.512,3.512,0,0,0,.642,1.611,1.208,1.208,0,0,0,1.563.3,1.734,1.734,0,0,0,.448-1.478c-.023-.8-.055-1.595-.084-2.392-2.493-16.144-8.986-55.505-8.986-55.505-2.379-12.372-9.041-8.09-9.041-8.09-.122.03-.238.071-.356.109C1231.177,408.8,1232.131,411.054,1233.234,413.011Z" transform="translate(-1227.391 -396.101)" fill="#ffd4aa" opacity="0.5" style="mix-blend-mode: multiply;isolation: isolate"/>
          <path id="Trazado_1558" data-name="Trazado 1558" d="M1687.8,620.886c7.15-20.915-9.506-68.026-9.506-68.026-2.38-17.607-7.138-42.828-7.138-42.828-2.379-14.276-8.09-12.372-8.09-12.372a6.435,6.435,0,0,0-4.686,3.667c-.007.135-.019.265-.016.406a11.146,11.146,0,0,1,3.263-2.182,4.167,4.167,0,0,1,3.786.264,4.907,4.907,0,0,1,1.585,2.137,21.211,21.211,0,0,1,1.2,4.137c2.158,10.1,3.461,20.358,4.762,30.6,2.063,16.248,6.49,32.357,9.092,48.527,1.542,9.586,5.644,24.862,1.176,34.254-2.916,6.127-6.647,8.587-6.084,16.248.447,6.08,2.875,11.861,4.374,17.717.883,3.448,8.141,33.939,10.888,33.939h20.482C1698.444,663.03,1687.8,620.886,1687.8,620.886Z" transform="translate(-1602.751 -474.241)" fill="#ffd4aa" opacity="0.5" style="mix-blend-mode: multiply;isolation: isolate"/>
          <path id="Trazado_1559" data-name="Trazado 1559" d="M1349.037,682.454a294.829,294.829,0,0,0-2.927-29.49C1347.209,664.1,1348.343,675.5,1349.037,682.454Z" transform="translate(-1330.79 -609.577)" fill="#ffd4aa" opacity="0.5" style="mix-blend-mode: multiply;isolation: isolate"/>
          <path id="Trazado_1560" data-name="Trazado 1560" d="M1524.845,405.757a29.842,29.842,0,0,0,.03-3.579c-2.39-19.166-12.479-63.738-12.479-63.738-2.38-16.655-10.481-11.421-10.481-11.421a4.507,4.507,0,0,0-.7.677c.675.053,2.8-.374,3.5-.036a7.443,7.443,0,0,1,3.118,3.8c2.583,5.52,3.77,11.571,4.934,17.553l10.759,55.257C1523.666,405.01,1524.124,405.957,1524.845,405.757Z" transform="translate(-1465.881 -325.014)" fill="#ffd4aa" opacity="0.5" style="mix-blend-mode: multiply;isolation: isolate"/>
        </g>
        <path id="Trazado_1561" data-name="Trazado 1561" d="M1579.573,1616.514a7.826,7.826,0,0,0-8.771-4.322c-11.267,2.473-35.359,8.54-49.054,17.727a9.3,9.3,0,0,0-3.864,10.029c1.344,5.25,3.462,13.495,5.7,22.127h77C1592.955,1645.418,1584.394,1626.806,1579.573,1616.514Z" transform="translate(-1435.068 -1444.866)" fill="#3c424c"/>
        <path id="Trazado_1562" data-name="Trazado 1562" d="M1843.708,1616.514a7.826,7.826,0,0,0-8.771-4.322c-3.621.795-8.571,1.963-14.072,3.485,4.638,15.587,9.682,31,14.657,46.4h29.206C1857.09,1645.418,1848.529,1626.806,1843.708,1616.514Z" transform="translate(-1699.204 -1444.866)" fill="#34383f"/>
      </g>
    </g>
    <path id="Trazado_1566" data-name="Trazado 1566" d="M30.08-35.12a21.846,21.846,0,0,1,9.76,2.16,17.051,17.051,0,0,1,6.96,6.12,16.5,16.5,0,0,1,2.56,9.16,17.444,17.444,0,0,1-2.8,9.84,18.266,18.266,0,0,1-7.64,6.52A24.935,24.935,0,0,1,28.16.96Q16.4.96,9.76-6.24T3.12-26.8a34.458,34.458,0,0,1,3.6-16.32A24.514,24.514,0,0,1,16.76-53.44a30.615,30.615,0,0,1,14.92-3.52,36.339,36.339,0,0,1,8.6,1,23.013,23.013,0,0,1,7,2.84l-4.8,9.52A18.373,18.373,0,0,0,32-46.4q-7.12,0-11.28,4.16T16.24-30.16Q21.2-35.12,30.08-35.12ZM27.44-8.72a9.99,9.99,0,0,0,6.76-2.24,7.61,7.61,0,0,0,2.6-6.08,7.731,7.731,0,0,0-2.6-6.12,10.118,10.118,0,0,0-6.92-2.28,10.238,10.238,0,0,0-6.96,2.36,7.637,7.637,0,0,0-2.72,6.04,7.617,7.617,0,0,0,2.64,6A10.527,10.527,0,0,0,27.44-8.72ZM78.08.96a22.706,22.706,0,0,1-12.4-3.44,23.085,23.085,0,0,1-8.52-9.96A36.15,36.15,0,0,1,54.08-28a36.15,36.15,0,0,1,3.08-15.56,23.085,23.085,0,0,1,8.52-9.96,22.706,22.706,0,0,1,12.4-3.44,22.706,22.706,0,0,1,12.4,3.44A23.085,23.085,0,0,1,99-43.56,36.15,36.15,0,0,1,102.08-28,36.15,36.15,0,0,1,99-12.44a23.085,23.085,0,0,1-8.52,9.96A22.706,22.706,0,0,1,78.08.96Zm0-10.96a9.158,9.158,0,0,0,8.04-4.4q2.92-4.4,2.92-13.6T86.12-41.6A9.158,9.158,0,0,0,78.08-46a9.09,9.09,0,0,0-7.96,4.4Q67.2-37.2,67.2-28t2.92,13.6A9.09,9.09,0,0,0,78.08-10Z" transform="translate(645 2701)" fill="#f4564b"/>
    <path id="Trazado_1567" data-name="Trazado 1567" d="M9.15-25.26H11.1L1.2,3H-.75ZM15.21.15a12.115,12.115,0,0,1-3.675-.555A7.9,7.9,0,0,1,8.79-1.8l.96-1.68A8.083,8.083,0,0,0,12.24-2.2a9.891,9.891,0,0,0,3.12.495,5.958,5.958,0,0,0,3.195-.675,2.148,2.148,0,0,0,1.035-1.9,1.713,1.713,0,0,0-.57-1.365,3.786,3.786,0,0,0-1.44-.75,20.541,20.541,0,0,0-2.31-.5,26.483,26.483,0,0,1-3.09-.735A4.54,4.54,0,0,1,10.185-8.91,3.547,3.547,0,0,1,9.36-11.4a3.9,3.9,0,0,1,1.65-3.24A7.409,7.409,0,0,1,15.6-15.9a11.914,11.914,0,0,1,3.06.4,8.42,8.42,0,0,1,2.52,1.065l-.93,1.71a7.965,7.965,0,0,0-4.65-1.35,5.392,5.392,0,0,0-3.075.72,2.205,2.205,0,0,0-1.035,1.89,1.865,1.865,0,0,0,.585,1.44,3.6,3.6,0,0,0,1.455.795,23.479,23.479,0,0,0,2.4.525,27.608,27.608,0,0,1,3.03.72,4.451,4.451,0,0,1,1.95,1.23,3.385,3.385,0,0,1,.81,2.4A3.817,3.817,0,0,1,20-1.065,8.2,8.2,0,0,1,15.21.15ZM39.39-7.23H26.19a5.64,5.64,0,0,0,1.89,3.975A6.274,6.274,0,0,0,32.4-1.74a6.807,6.807,0,0,0,2.7-.525A5.9,5.9,0,0,0,37.23-3.81l1.2,1.38A6.757,6.757,0,0,1,35.805-.51,8.878,8.878,0,0,1,32.34.15,8.761,8.761,0,0,1,28.035-.885,7.462,7.462,0,0,1,25.11-3.75a8.168,8.168,0,0,1-1.05-4.14,8.457,8.457,0,0,1,1.005-4.14,7.277,7.277,0,0,1,2.76-2.85A7.706,7.706,0,0,1,31.77-15.9a7.625,7.625,0,0,1,3.93,1.02,7.231,7.231,0,0,1,2.73,2.835,8.536,8.536,0,0,1,.99,4.155Zm-7.62-6.84a5.366,5.366,0,0,0-3.825,1.455,5.715,5.715,0,0,0-1.755,3.8H37.38a5.715,5.715,0,0,0-1.755-3.8A5.4,5.4,0,0,0,31.77-14.07Zm26.61-1.71V-1.92q0,4.02-1.965,5.955T50.49,5.97a13.238,13.238,0,0,1-4.155-.645A8.545,8.545,0,0,1,43.14,3.54l1.08-1.62a8.106,8.106,0,0,0,2.775,1.59,10.359,10.359,0,0,0,3.435.57,6.061,6.061,0,0,0,4.41-1.4A5.873,5.873,0,0,0,56.25-1.65V-3.66a6.42,6.42,0,0,1-2.6,2.28A8.025,8.025,0,0,1,50.1-.6a8.389,8.389,0,0,1-4.035-.975,7.2,7.2,0,0,1-2.85-2.73A7.676,7.676,0,0,1,42.18-8.28a7.6,7.6,0,0,1,1.035-3.96,7.152,7.152,0,0,1,2.835-2.7,8.47,8.47,0,0,1,4.05-.96,8,8,0,0,1,3.63.81,6.542,6.542,0,0,1,2.61,2.34v-3.03ZM50.31-2.49a6.469,6.469,0,0,0,3.09-.735A5.309,5.309,0,0,0,55.545-5.28a5.873,5.873,0,0,0,.765-3,5.792,5.792,0,0,0-.765-2.985,5.364,5.364,0,0,0-2.13-2.04,6.445,6.445,0,0,0-3.105-.735,6.489,6.489,0,0,0-3.075.72,5.233,5.233,0,0,0-2.13,2.04,5.873,5.873,0,0,0-.765,3,5.873,5.873,0,0,0,.765,3,5.334,5.334,0,0,0,2.13,2.055A6.381,6.381,0,0,0,50.31-2.49ZM64.56.15a1.509,1.509,0,0,1-1.125-.48A1.619,1.619,0,0,1,62.97-1.5a1.568,1.568,0,0,1,.465-1.155A1.532,1.532,0,0,1,64.56-3.12a1.583,1.583,0,0,1,1.14.465A1.543,1.543,0,0,1,66.18-1.5,1.592,1.592,0,0,1,65.7-.33,1.557,1.557,0,0,1,64.56.15Z" transform="translate(753 2696)" fill="#f4564b"/>
  </g>
</svg>
