<svg xmlns="http://www.w3.org/2000/svg" viewBox="0 0 256 40"><defs><style>.cls-1{fill:#f2f2f2;}</style></defs><g id="Capa_2" data-name="Capa 2"><g id="Dots"><circle class="cls-1" cx="2" cy="14" r="2"/><circle class="cls-1" cx="14" cy="14" r="2"/><circle class="cls-1" cx="2" cy="2" r="2"/><circle class="cls-1" cx="14" cy="2" r="2"/><circle class="cls-1" cx="26" cy="14" r="2"/><circle class="cls-1" cx="38" cy="14" r="2"/><circle class="cls-1" cx="26" cy="2" r="2"/><circle class="cls-1" cx="38" cy="2" r="2"/><circle class="cls-1" cx="50" cy="14" r="2"/><circle class="cls-1" cx="62" cy="14" r="2"/><circle class="cls-1" cx="50" cy="2" r="2"/><circle class="cls-1" cx="62" cy="2" r="2"/><circle class="cls-1" cx="74" cy="14" r="2"/><circle class="cls-1" cx="86" cy="14" r="2"/><circle class="cls-1" cx="74" cy="2" r="2"/><circle class="cls-1" cx="86" cy="2" r="2"/><circle class="cls-1" cx="98" cy="14" r="2"/><circle class="cls-1" cx="110" cy="14" r="2"/><circle class="cls-1" cx="98" cy="2" r="2"/><circle class="cls-1" cx="110" cy="2" r="2"/><circle class="cls-1" cx="122" cy="14" r="2"/><circle class="cls-1" cx="134" cy="14" r="2"/><circle class="cls-1" cx="122" cy="2" r="2"/><circle class="cls-1" cx="134" cy="2" r="2"/><circle class="cls-1" cx="146" cy="14" r="2"/><circle class="cls-1" cx="158" cy="14" r="2"/><circle class="cls-1" cx="146" cy="2" r="2"/><circle class="cls-1" cx="158" cy="2" r="2"/><circle class="cls-1" cx="170" cy="14" r="2"/><circle class="cls-1" cx="182" cy="14" r="2"/><circle class="cls-1" cx="170" cy="2" r="2"/><circle class="cls-1" cx="182" cy="2" r="2"/><circle class="cls-1" cx="194" cy="14" r="2"/><circle class="cls-1" cx="206" cy="14" r="2"/><circle class="cls-1" cx="194" cy="2" r="2"/><circle class="cls-1" cx="206" cy="2" r="2"/><circle class="cls-1" cx="218" cy="14" r="2"/><circle class="cls-1" cx="230" cy="14" r="2"/><circle class="cls-1" cx="218" cy="2" r="2"/><circle class="cls-1" cx="230" cy="2" r="2"/><circle class="cls-1" cx="242" cy="14" r="2"/><circle class="cls-1" cx="254" cy="14" r="2"/><circle class="cls-1" cx="242" cy="2" r="2"/><circle class="cls-1" cx="254" cy="2" r="2"/><circle class="cls-1" cx="2" cy="38" r="2"/><circle class="cls-1" cx="14" cy="38" r="2"/><circle class="cls-1" cx="2" cy="26" r="2"/><circle class="cls-1" cx="14" cy="26" r="2"/><circle class="cls-1" cx="26" cy="38" r="2"/><circle class="cls-1" cx="38" cy="38" r="2"/><circle class="cls-1" cx="26" cy="26" r="2"/><circle class="cls-1" cx="38" cy="26" r="2"/><circle class="cls-1" cx="50" cy="38" r="2"/><circle class="cls-1" cx="62" cy="38" r="2"/><circle class="cls-1" cx="50" cy="26" r="2"/><circle class="cls-1" cx="62" cy="26" r="2"/><circle class="cls-1" cx="74" cy="38" r="2"/><circle class="cls-1" cx="86" cy="38" r="2"/><circle class="cls-1" cx="74" cy="26" r="2"/><circle class="cls-1" cx="86" cy="26" r="2"/><circle class="cls-1" cx="98" cy="38" r="2"/><circle class="cls-1" cx="110" cy="38" r="2"/><circle class="cls-1" cx="98" cy="26" r="2"/><circle class="cls-1" cx="110" cy="26" r="2"/><circle class="cls-1" cx="122" cy="38" r="2"/><circle class="cls-1" cx="134" cy="38" r="2"/><circle class="cls-1" cx="122" cy="26" r="2"/><circle class="cls-1" cx="134" cy="26" r="2"/><circle class="cls-1" cx="146" cy="38" r="2"/><circle class="cls-1" cx="158" cy="38" r="2"/><circle class="cls-1" cx="146" cy="26" r="2"/><circle class="cls-1" cx="158" cy="26" r="2"/><circle class="cls-1" cx="170" cy="38" r="2"/><circle class="cls-1" cx="182" cy="38" r="2"/><circle class="cls-1" cx="170" cy="26" r="2"/><circle class="cls-1" cx="182" cy="26" r="2"/><circle class="cls-1" cx="194" cy="38" r="2"/><circle class="cls-1" cx="206" cy="38" r="2"/><circle class="cls-1" cx="194" cy="26" r="2"/><circle class="cls-1" cx="206" cy="26" r="2"/><circle class="cls-1" cx="218" cy="38" r="2"/><circle class="cls-1" cx="230" cy="38" r="2"/><circle class="cls-1" cx="218" cy="26" r="2"/><circle class="cls-1" cx="230" cy="26" r="2"/><circle class="cls-1" cx="242" cy="38" r="2"/><circle class="cls-1" cx="254" cy="38" r="2"/><circle class="cls-1" cx="242" cy="26" r="2"/><circle class="cls-1" cx="254" cy="26" r="2"/></g></g></svg>