<svg xmlns="http://www.w3.org/2000/svg" viewBox="0 0 961.13 279.76"><defs><style>.cls-1{fill:#cc2478;}.cls-2{fill:#253e61;}.cls-3{fill:#ebc8de;}.cls-4{fill:#fff;}.cls-5{fill:none;stroke:#fff;stroke-miterlimit:10;}</style></defs><g id="Capa_2" data-name="Capa 2"><g id="Capa_1-2" data-name="Capa 1"><rect class="cls-1" x="603.66" width="357.47" height="279.76"/><rect class="cls-2" width="604.44" height="279.76"/><polygon class="cls-3" points="639.3 45.62 642.38 45.62 642.38 62.41 647.44 62.41 647.44 65.21 639.3 65.21 639.3 45.62"/><path class="cls-3" d="M648.92,45.62H652V65.21h-3.08Zm1.82-4.53h3.36l-3,3.22h-2.33Z"/><polygon class="cls-3" points="654.29 45.62 658.15 45.62 661.15 57.35 661.21 57.35 661.21 45.62 663.95 45.62 663.95 65.21 660.79 65.21 657.09 50.91 657.04 50.91 657.04 65.21 654.29 65.21 654.29 45.62"/><polygon class="cls-3" points="666.24 45.62 674.64 45.62 674.64 48.42 669.32 48.42 669.32 53.6 673.54 53.6 673.54 56.4 669.32 56.4 669.32 62.41 674.64 62.41 674.64 65.21 666.24 65.21 666.24 45.62"/><path class="cls-3" d="M682.13,58.72,680.76,49h-.06l-1.34,9.68Zm-3.36-13.1h4.17l3.19,19.59h-3.07l-.57-3.89v.06H679l-.56,3.83h-2.86Z"/><path class="cls-3" d="M696.73,62.41c1,0,1.57-.5,1.57-1.9V50.32c0-1.39-.59-1.9-1.57-1.9h-1.56v14Zm-4.64-16.79h4.7c3.08,0,4.59,1.71,4.59,4.84v9.91c0,3.14-1.51,4.84-4.59,4.84h-4.7Z"/><polygon class="cls-3" points="703.45 45.62 711.84 45.62 711.84 48.42 706.52 48.42 706.52 53.6 710.75 53.6 710.75 56.4 706.52 56.4 706.52 62.41 711.84 62.41 711.84 65.21 703.45 65.21 703.45 45.62"/><path class="cls-3" d="M724.12,60.76V50.07c0-1.4-.61-1.93-1.59-1.93s-1.6.53-1.6,1.93V60.76c0,1.4.62,1.93,1.6,1.93s1.59-.53,1.59-1.93m-6.27-.19V50.27c0-3.14,1.65-4.93,4.68-4.93s4.67,1.79,4.67,4.93v10.3c0,3.13-1.65,4.92-4.67,4.92s-4.68-1.79-4.68-4.92"/><path class="cls-3" d="M733.46,54c1.15,0,1.85-.51,1.85-2.07V50.44c0-1.4-.47-2-1.57-2h-1.4V54Zm-4.19-8.4h4.56c3.19,0,4.56,1.49,4.56,4.51v1.2c0,2-.65,3.3-2,3.86v.06c1.53.48,2,1.93,2,4.14v3.44a5.9,5.9,0,0,0,.33,2.38h-3.13a5.94,5.94,0,0,1-.28-2.4V59.22c0-1.82-.53-2.4-1.93-2.4h-1.07v8.39h-3.07Z"/><rect class="cls-3" x="740.54" y="45.62" width="3.08" height="19.59"/><polygon class="cls-3" points="745.91 45.62 754.31 45.62 754.31 48.42 748.99 48.42 748.99 53.6 753.22 53.6 753.22 56.4 748.99 56.4 748.99 62.41 754.31 62.41 754.31 65.21 745.91 65.21 745.91 45.62"/><polygon class="cls-3" points="756.07 45.62 759.93 45.62 762.92 57.35 762.98 57.35 762.98 45.62 765.72 45.62 765.72 65.21 762.56 65.21 758.87 50.91 758.81 50.91 758.81 65.21 756.07 65.21 756.07 45.62"/><polygon class="cls-3" points="770.42 48.42 767.2 48.42 767.2 45.62 776.72 45.62 776.72 48.42 773.5 48.42 773.5 65.21 770.42 65.21 770.42 48.42"/><path class="cls-3" d="M782.65,58.72,781.27,49h0l-1.35,9.68Zm-3.36-13.1h4.17l3.19,19.59h-3.08L783,61.32v.06h-3.5L779,65.21H776.1Z"/><path class="cls-3" d="M787.88,60.68V50.15c0-3,1.56-4.81,4.53-4.81s4.53,1.79,4.53,4.81v2.08H794V50c0-1.29-.61-1.82-1.54-1.82S791,48.67,791,50V60.9c0,1.29.62,1.79,1.54,1.79s1.54-.5,1.54-1.79v-3h2.91v2.77c0,3-1.57,4.81-4.53,4.81s-4.53-1.79-4.53-4.81"/><rect class="cls-3" x="798.79" y="45.62" width="3.08" height="19.59"/><path class="cls-3" d="M810.2,60.76V50.07c0-1.4-.61-1.93-1.59-1.93s-1.6.53-1.6,1.93V60.76c0,1.4.62,1.93,1.6,1.93s1.59-.53,1.59-1.93m-1.31-19.67h3.35l-3,3.22h-2.32Zm-5,19.48V50.27c0-3.14,1.65-4.93,4.68-4.93s4.67,1.79,4.67,4.93v10.3c0,3.13-1.65,4.92-4.67,4.92s-4.68-1.79-4.68-4.92"/><polygon class="cls-3" points="815.35 45.62 819.21 45.62 822.2 57.35 822.26 57.35 822.26 45.62 825 45.62 825 65.21 821.84 65.21 818.14 50.91 818.09 50.91 818.09 65.21 815.35 65.21 815.35 45.62"/><path class="cls-3" d="M831.24,60.57V59.45h2.91v1.34c0,1.4.62,1.9,1.59,1.9s1.6-.5,1.6-2c0-1.62-.62-2.65-2.63-4.42-2.58-2.26-3.42-3.86-3.42-6.1,0-3.08,1.6-4.87,4.59-4.87s4.48,1.79,4.48,4.93v.81h-2.91v-1c0-1.4-.56-1.93-1.54-1.93s-1.54.53-1.54,1.88.65,2.46,2.66,4.22c2.57,2.27,3.39,3.84,3.39,6.27,0,3.19-1.63,5-4.65,5s-4.53-1.79-4.53-4.92"/><path class="cls-3" d="M848.22,60.76V50.07c0-1.4-.61-1.93-1.6-1.93s-1.59.53-1.59,1.93V60.76c0,1.4.61,1.93,1.59,1.93s1.6-.53,1.6-1.93M842,60.57V50.27c0-3.14,1.65-4.93,4.67-4.93s4.68,1.79,4.68,4.93v10.3c0,3.13-1.65,4.92-4.68,4.92S842,63.7,842,60.57"/><path class="cls-3" d="M858.21,62.41c1,0,1.59-.47,1.59-1.93v-1.7c0-1.83-.59-2.38-2-2.38h-1.37v6Zm-.56-8.81c1.14,0,1.85-.51,1.85-2.07V50.44c0-1.4-.48-2-1.57-2h-1.49V53.6Zm-4.28-8H858c3.19,0,4.56,1.49,4.56,4.51v.78c0,2-.61,3.28-2,3.84v0c1.65.56,2.29,2,2.29,4.09v1.68c0,3-1.59,4.64-4.67,4.64h-4.84Z"/><path class="cls-3" d="M868.87,54c1.14,0,1.84-.51,1.84-2.07V50.44c0-1.4-.47-2-1.56-2h-1.4V54Zm-4.2-8.4h4.56c3.19,0,4.56,1.49,4.56,4.51v1.2c0,2-.64,3.3-2,3.86v.06c1.54.48,2.05,1.93,2.05,4.14v3.44a5.73,5.73,0,0,0,.33,2.38H871a5.94,5.94,0,0,1-.28-2.4V59.22c0-1.82-.53-2.4-1.93-2.4h-1.06v8.39h-3.08Z"/><polygon class="cls-3" points="875.94 45.62 884.34 45.62 884.34 48.42 879.02 48.42 879.02 53.6 883.25 53.6 883.25 56.4 879.02 56.4 879.02 62.41 884.34 62.41 884.34 65.21 875.94 65.21 875.94 45.62"/><polygon class="cls-3" points="890.57 45.62 898.97 45.62 898.97 48.42 893.65 48.42 893.65 53.6 897.88 53.6 897.88 56.4 893.65 56.4 893.65 62.41 898.97 62.41 898.97 65.21 890.57 65.21 890.57 45.62"/><polygon class="cls-3" points="900.73 45.62 903.8 45.62 903.8 62.41 908.87 62.41 908.87 65.21 900.73 65.21 900.73 45.62"/><polygon class="cls-3" points="639.3 73.6 643.16 73.6 646.15 85.32 646.21 85.32 646.21 73.6 648.95 73.6 648.95 93.19 645.79 93.19 642.1 78.89 642.04 78.89 642.04 93.19 639.3 93.19 639.3 73.6"/><path class="cls-3" d="M651.13,88.54V73.6h3.08V88.77c0,1.4.59,1.9,1.57,1.9s1.56-.5,1.56-1.9V73.6h3V88.54c0,3.14-1.57,4.93-4.59,4.93s-4.59-1.79-4.59-4.93"/><polygon class="cls-3" points="662.49 73.6 670.88 73.6 670.88 76.4 665.57 76.4 665.57 81.57 669.8 81.57 669.8 84.37 665.57 84.37 665.57 90.39 670.88 90.39 670.88 93.19 662.49 93.19 662.49 73.6"/><polygon class="cls-3" points="671.83 73.6 674.94 73.6 676.95 88.8 677.01 88.8 679.03 73.6 681.85 73.6 678.88 93.19 674.8 93.19 671.83 73.6"/><path class="cls-3" d="M689.32,88.74V78.05c0-1.4-.62-1.93-1.6-1.93s-1.59.53-1.59,1.93V88.74c0,1.4.62,1.93,1.59,1.93s1.6-.53,1.6-1.93m-6.27-.2V78.25c0-3.14,1.65-4.93,4.67-4.93s4.68,1.79,4.68,4.93V88.54c0,3.14-1.65,4.93-4.68,4.93s-4.67-1.79-4.67-4.93"/><path class="cls-3" d="M698.75,88.65V78.13c0-3,1.56-4.81,4.53-4.81s4.53,1.79,4.53,4.81V80.2H704.9V77.94c0-1.29-.61-1.82-1.54-1.82s-1.53.53-1.53,1.82V88.88c0,1.29.61,1.79,1.53,1.79s1.54-.5,1.54-1.79v-3h2.91v2.77c0,3-1.56,4.82-4.53,4.82s-4.53-1.79-4.53-4.82"/><path class="cls-3" d="M715.76,88.74V78.05c0-1.4-.62-1.93-1.6-1.93s-1.59.53-1.59,1.93V88.74c0,1.4.61,1.93,1.59,1.93s1.6-.53,1.6-1.93m-6.27-.2V78.25c0-3.14,1.65-4.93,4.67-4.93s4.68,1.79,4.68,4.93V88.54c0,3.14-1.66,4.93-4.68,4.93s-4.67-1.79-4.67-4.93"/><path class="cls-3" d="M725.1,82c1.15,0,1.85-.5,1.85-2.07V78.41c0-1.4-.48-2-1.57-2H724V82Zm-4.2-8.39h4.57c3.19,0,4.56,1.48,4.56,4.5v1.21c0,2-.65,3.3-2,3.86v0c1.54.48,2,1.94,2,4.15v3.44a5.75,5.75,0,0,0,.33,2.38h-3.13a6,6,0,0,1-.28-2.41V87.2c0-1.82-.53-2.41-1.93-2.41H724v8.4H720.9Z"/><path class="cls-3" d="M738.22,88.74V78.05c0-1.4-.61-1.93-1.59-1.93s-1.6.53-1.6,1.93V88.74c0,1.4.62,1.93,1.6,1.93s1.59-.53,1.59-1.93m-6.27-.2V78.25c0-3.14,1.65-4.93,4.68-4.93s4.67,1.79,4.67,4.93V88.54c0,3.14-1.65,4.93-4.67,4.93S732,91.68,732,88.54"/><polygon class="cls-3" points="743.37 73.6 747.23 73.6 750.22 85.32 750.28 85.32 750.28 73.6 753.02 73.6 753.02 93.19 749.86 93.19 746.17 78.89 746.11 78.89 746.11 93.19 743.37 93.19 743.37 73.6"/><path class="cls-3" d="M761.05,86.7,759.68,77h-.06l-1.34,9.69Zm-3.36-13.1h4.17l3.19,19.59H762l-.56-3.89v0h-3.49l-.56,3.84H754.5Z"/><polygon class="cls-3" points="770.2 73.6 773.3 73.6 775.32 88.8 775.37 88.8 777.39 73.6 780.22 73.6 777.25 93.19 773.16 93.19 770.2 73.6"/><rect class="cls-3" x="781.69" y="73.6" width="3.08" height="19.59"/><path class="cls-3" d="M791.26,82c1.15,0,1.85-.5,1.85-2.07V78.41c0-1.4-.48-2-1.57-2h-1.4V82Zm-4.2-8.39h4.57c3.19,0,4.56,1.48,4.56,4.5v1.21c0,2-.65,3.3-2,3.86v0c1.54.48,2.05,1.94,2.05,4.15v3.44a5.75,5.75,0,0,0,.33,2.38h-3.13a6,6,0,0,1-.28-2.41V87.2c0-1.82-.53-2.41-1.93-2.41h-1.07v8.4h-3.08Z"/><path class="cls-3" d="M798.23,88.54V73.6h3.07V88.77c0,1.4.59,1.9,1.57,1.9s1.57-.5,1.57-1.9V73.6h3V88.54c0,3.14-1.56,4.93-4.59,4.93s-4.58-1.79-4.58-4.93"/><path class="cls-3" d="M809.05,88.54V87.42H812v1.35c0,1.4.62,1.9,1.6,1.9s1.6-.5,1.6-2c0-1.62-.62-2.66-2.64-4.42-2.57-2.27-3.41-3.86-3.41-6.1,0-3.08,1.59-4.87,4.59-4.87s4.47,1.79,4.47,4.93v.8h-2.9v-1c0-1.4-.56-1.93-1.54-1.93s-1.54.53-1.54,1.87.64,2.47,2.65,4.23c2.58,2.27,3.39,3.83,3.39,6.27,0,3.19-1.62,5-4.64,5s-4.54-1.79-4.54-4.93"/><path class="cls-3" d="M824.27,88.65V78.13c0-3,1.57-4.81,4.54-4.81s4.53,1.79,4.53,4.81V80.2h-2.91V77.94c0-1.29-.62-1.82-1.54-1.82s-1.54.53-1.54,1.82V88.88c0,1.29.61,1.79,1.54,1.79s1.54-.5,1.54-1.79v-3h2.91v2.77c0,3-1.57,4.82-4.53,4.82s-4.54-1.79-4.54-4.82"/><path class="cls-3" d="M841.28,88.74V78.05c0-1.4-.61-1.93-1.59-1.93s-1.6.53-1.6,1.93V88.74c0,1.4.62,1.93,1.6,1.93s1.59-.53,1.59-1.93m-6.27-.2V78.25c0-3.14,1.65-4.93,4.68-4.93s4.67,1.79,4.67,4.93V88.54c0,3.14-1.65,4.93-4.67,4.93S835,91.68,835,88.54"/><polygon class="cls-3" points="845.56 73.6 848.67 73.6 850.68 88.8 850.74 88.8 852.75 73.6 855.58 73.6 852.61 93.19 848.53 93.19 845.56 73.6"/><rect class="cls-3" x="857.06" y="73.6" width="3.08" height="19.59"/><path class="cls-3" d="M867.08,90.39c1,0,1.56-.5,1.56-1.9V78.3c0-1.4-.58-1.9-1.56-1.9h-1.57v14ZM862.43,73.6h4.7c3.08,0,4.59,1.71,4.59,4.84v9.91c0,3.13-1.51,4.84-4.59,4.84h-4.7Z"/><rect class="cls-3" x="873.34" y="81.99" width="6.16" height="2.8"/><path class="cls-3" d="M885.65,78.25h-3.22V76.06c2.61,0,3.53-.56,4.23-2.46h2.07V93.19h-3.08Z"/><path class="cls-3" d="M898.49,81.49V78c0-1.29-.53-1.9-1.59-1.9s-1.6.61-1.6,1.9v3.47c0,1.32.53,1.93,1.6,1.93s1.59-.61,1.59-1.93m-6.21,7.05v-.36h2.91v.56c0,1.4.61,1.93,1.59,1.93s1.71-.53,1.71-2.41V84.51h0a2.84,2.84,0,0,1-2.8,1.71c-2.27,0-3.42-1.59-3.42-4.48V78.25c0-3.14,1.65-4.93,4.68-4.93s4.67,1.79,4.67,4.93V88.37c0,3.31-1.51,5.1-4.7,5.1-3,0-4.59-1.79-4.59-4.93"/><path class="cls-3" d="M903.72,90.22h3v3h-3Zm0-10.66h3v3h-3Z"/><polygon class="cls-3" points="639.3 101.58 647.7 101.58 647.7 104.37 642.38 104.37 642.38 109.55 646.6 109.55 646.6 112.35 642.38 112.35 642.38 118.36 647.7 118.36 647.7 121.16 639.3 121.16 639.3 101.58"/><polygon class="cls-3" points="649.45 101.58 653.32 101.58 656.31 113.3 656.37 113.3 656.37 101.58 659.11 101.58 659.11 121.16 655.95 121.16 652.25 106.86 652.2 106.86 652.2 121.16 649.45 121.16 649.45 101.58"/><path class="cls-3" d="M670.72,118.37c1,0,1.59-.48,1.59-1.94v-1.7c0-1.82-.59-2.38-2-2.38H669v6Zm-.56-8.82c1.14,0,1.85-.5,1.85-2.07v-1.09c0-1.4-.48-2-1.57-2H669v5.18Zm-4.28-8h4.64c3.19,0,4.56,1.49,4.56,4.51v.78c0,2-.61,3.28-2,3.84v0c1.66.56,2.3,2,2.3,4.09v1.68c0,3-1.59,4.64-4.67,4.64h-4.84Z"/><path class="cls-3" d="M683.22,116.72V106c0-1.4-.61-1.94-1.59-1.94s-1.6.54-1.6,1.94v10.69c0,1.39.62,1.93,1.6,1.93s1.59-.54,1.59-1.93m-6.27-.2v-10.3c0-3.13,1.66-4.92,4.68-4.92s4.67,1.79,4.67,4.92v10.3c0,3.13-1.65,4.93-4.67,4.93s-4.68-1.8-4.68-4.93"/><path class="cls-3" d="M688.14,116.52v-10.3c0-3.13,1.57-4.92,4.59-4.92s4.59,1.79,4.59,4.92v1.68h-2.91V106c0-1.4-.61-1.94-1.59-1.94s-1.6.54-1.6,1.94v10.71c0,1.4.62,1.91,1.6,1.91s1.59-.51,1.59-1.91v-3.83h-1.54v-2.8h4.45v6.41c0,3.13-1.56,4.93-4.59,4.93s-4.59-1.8-4.59-4.93"/><path class="cls-3" d="M705.35,116.72V106c0-1.4-.61-1.94-1.59-1.94s-1.6.54-1.6,1.94v10.69c0,1.39.62,1.93,1.6,1.93s1.59-.54,1.59-1.93m-6.27-.2v-10.3c0-3.13,1.66-4.92,4.68-4.92s4.67,1.79,4.67,4.92v10.3c0,3.13-1.65,4.93-4.67,4.93s-4.68-1.8-4.68-4.93"/><polygon class="cls-3" points="712.79 104.37 709.57 104.37 709.57 101.58 719.09 101.58 719.09 104.37 715.87 104.37 715.87 121.16 712.79 121.16 712.79 104.37"/><path class="cls-3" d="M725,114.67,723.65,105h-.06l-1.34,9.68ZM724,97h3.36l-3,3.22h-2.32Zm-2.38,4.53h4.17L729,121.16h-3.08l-.56-3.89v.06h-3.5l-.55,3.83h-2.86Z"/><path class="cls-3" d="M730.78,118.2h3v3h-3Zm0-10.67h3v3h-3Z"/><polygon class="cls-4" points="746 110.28 749.75 110.28 749.75 112.46 746 112.46 746 116.29 743.82 116.29 743.82 112.46 740.07 112.46 740.07 110.28 743.82 110.28 743.82 106.5 746 106.5 746 110.28"/><path class="cls-4" d="M754.33,114.84v1.82c0,1.4.62,1.9,1.6,1.9s1.59-.5,1.59-1.9v-4.31c0-1.4-.61-1.93-1.59-1.93s-1.6.53-1.6,1.93v.59h-2.91l.56-11.36h8.12v2.79h-5.35l-.25,4.68a2.93,2.93,0,0,1,2.69-1.43c2.27,0,3.41,1.6,3.41,4.48v4.36c0,3.14-1.56,4.93-4.59,4.93s-4.59-1.79-4.59-4.93v-1.62Z"/><polygon class="cls-4" points="771.68 101.58 771.68 104.26 767.15 121.16 764.07 121.16 768.57 104.37 762.45 104.37 762.45 101.58 771.68 101.58"/><path class="cls-4" d="M779.18,101.57v2.52h-.76c-1,0-1.43.37-1.43,1.77v11c0,1.4.45,1.77,1.43,1.77h.76v2.51h-.95c-3.08,0-4.31-1.14-4.31-4.28v-11c0-3.14,1.23-4.29,4.31-4.29Z"/><path class="cls-4" d="M782.65,104c2.37,0,2.91-1.15,3.38-2.47h2.07v19.59H785V106.22h-2.37Z"/><path class="cls-4" d="M792.1,101.57c3.08,0,4.31,1.15,4.31,4.29v11c0,3.14-1.23,4.28-4.31,4.28h-1v-2.51h.76c1,0,1.42-.37,1.42-1.77v-11c0-1.4-.45-1.77-1.42-1.77h-.76v-2.52Z"/><path class="cls-4" d="M809.11,106.39c0-1.76-.61-2.24-1.59-2.24s-1.6.53-1.6,1.93v1.26H803v-1.06c0-3.14,1.57-4.93,4.59-4.93s4.59,1.79,4.59,4.93v.5c0,2.1-.67,3.41-2.15,4,1.54.67,2.15,2.13,2.15,4.11v1.54c0,3.14-1.57,4.93-4.59,4.93S803,119.6,803,116.46v-1.62h2.91v1.82c0,1.4.62,1.93,1.6,1.93s1.59-.48,1.59-2.21v-1.54c0-1.82-.61-2.49-2-2.49h-1v-2.8h1.2c1.15,0,1.85-.5,1.85-2.07Z"/><path class="cls-4" d="M820.19,106.39c0-1.76-.62-2.24-1.6-2.24s-1.59.53-1.59,1.93v1.26h-2.91v-1.06c0-3.14,1.57-4.93,4.59-4.93s4.59,1.79,4.59,4.93v.5c0,2.1-.67,3.41-2.16,4,1.54.67,2.16,2.13,2.16,4.11v1.54c0,3.14-1.57,4.93-4.59,4.93s-4.59-1.79-4.59-4.93v-1.62H817v1.82c0,1.4.62,1.93,1.59,1.93s1.6-.48,1.6-2.21v-1.54c0-1.82-.62-2.49-2-2.49h-1v-2.8h1.2c1.15,0,1.85-.5,1.85-2.07Z"/><path class="cls-4" d="M828.16,116.66c0,1.4.62,1.93,1.6,1.93s1.59-.53,1.59-1.93V106.08c0-1.4-.61-1.93-1.59-1.93s-1.6.53-1.6,1.93Zm-3.08-10.38c0-3.14,1.66-4.93,4.68-4.93s4.67,1.79,4.67,4.93v10.18c0,3.14-1.65,4.93-4.67,4.93s-4.68-1.79-4.68-4.93Z"/><path class="cls-4" d="M843.52,114.84v1.82c0,1.4.62,1.9,1.6,1.9s1.59-.5,1.59-1.9v-4.31c0-1.4-.61-1.93-1.59-1.93s-1.6.53-1.6,1.93v.59h-2.91l.56-11.36h8.12v2.79h-5.35l-.25,4.68a2.92,2.92,0,0,1,2.69-1.43c2.26,0,3.41,1.6,3.41,4.48v4.36c0,3.14-1.57,4.93-4.59,4.93s-4.59-1.79-4.59-4.93v-1.62Z"/><path class="cls-4" d="M854.66,116.66c0,1.4.61,1.93,1.59,1.93s1.6-.53,1.6-1.93V106.08c0-1.4-.62-1.93-1.6-1.93s-1.59.53-1.59,1.93Zm-3.08-10.38c0-3.14,1.65-4.93,4.67-4.93s4.68,1.79,4.68,4.93v10.18c0,3.14-1.66,4.93-4.68,4.93s-4.67-1.79-4.67-4.93Z"/><path class="cls-4" d="M868.11,114.81v-7.36l-3.1,7.36Zm-5.93,0,5.6-13.24h3.35v13.24h1.46v2.8h-1.46v3.55h-3v-3.55h-5.93Z"/><path class="cls-4" d="M875.89,104c2.38,0,2.91-1.15,3.39-2.47h2.07v19.59h-3.08V106.22h-2.38Z"/><path class="cls-3" d="M643.5,138c1.14,0,1.85-.51,1.85-2.07v-1.52c0-1.4-.48-2-1.57-2h-1.4V138Zm-4.2-8.4h4.56c3.19,0,4.56,1.48,4.56,4.51v1.2c0,2-.64,3.3-2,3.86v.06c1.54.47,2,1.93,2,4.14v3.44a5.75,5.75,0,0,0,.34,2.38h-3.14a6,6,0,0,1-.28-2.41v-3.58c0-1.82-.53-2.41-1.93-2.41h-1.06v8.4H639.3Z"/><polygon class="cls-3" points="650.58 129.55 658.97 129.55 658.97 132.35 653.65 132.35 653.65 137.53 657.88 137.53 657.88 140.32 653.65 140.32 653.65 146.34 658.97 146.34 658.97 149.14 650.58 149.14 650.58 129.55"/><path class="cls-3" d="M660.26,144.49v-1.12h2.9v1.35c0,1.4.62,1.9,1.6,1.9s1.59-.5,1.59-2c0-1.62-.61-2.66-2.62-4.42-2.58-2.26-3.42-3.86-3.42-6.1,0-3.08,1.59-4.87,4.59-4.87s4.48,1.79,4.48,4.93V135h-2.91v-1c0-1.4-.56-1.93-1.54-1.93s-1.54.53-1.54,1.88.64,2.46,2.66,4.22c2.57,2.27,3.38,3.83,3.38,6.27,0,3.19-1.62,5-4.64,5s-4.53-1.79-4.53-4.93"/><polygon class="cls-3" points="673.6 132.35 670.38 132.35 670.38 129.55 679.89 129.55 679.89 132.35 676.68 132.35 676.68 149.14 673.6 149.14 673.6 132.35"/><path class="cls-3" d="M687.31,144.69V134c0-1.4-.62-1.93-1.6-1.93s-1.59.53-1.59,1.93v10.69c0,1.4.62,1.93,1.59,1.93s1.6-.53,1.6-1.93m-6.27-.2V134.2c0-3.14,1.65-4.93,4.67-4.93s4.68,1.79,4.68,4.93v10.29c0,3.14-1.65,4.93-4.68,4.93s-4.67-1.79-4.67-4.93"/><path class="cls-3" d="M701.58,146.34c1,0,1.56-.5,1.56-1.9V134.25c0-1.4-.59-1.9-1.56-1.9H700v14Zm-4.65-16.79h4.7c3.08,0,4.59,1.71,4.59,4.84v9.91c0,3.13-1.51,4.84-4.59,4.84h-4.7Z"/><polygon class="cls-3" points="708.29 129.55 716.68 129.55 716.68 132.35 711.37 132.35 711.37 137.53 715.59 137.53 715.59 140.32 711.37 140.32 711.37 146.34 716.68 146.34 716.68 149.14 708.29 149.14 708.29 129.55"/><polygon class="cls-3" points="718.44 129.55 721.52 129.55 721.52 146.34 726.59 146.34 726.59 149.14 718.44 149.14 718.44 129.55"/><path class="cls-3" d="M737.08,138.37c1,0,1.51-.45,1.51-1.85V134.2c0-1.4-.54-1.85-1.51-1.85h-1.46v6Zm-4.54-8.82h4.54c3.07,0,4.59,1.71,4.59,4.84v1.93c0,3.14-1.52,4.85-4.59,4.85h-1.46v8h-3.08Z"/><path class="cls-3" d="M748.1,142.65,746.73,133h-.06l-1.34,9.69Zm-3.36-13.1h4.17l3.19,19.59H749l-.56-3.89v.06H745l-.56,3.83h-2.85Z"/><path class="cls-3" d="M753.58,129.55h3.08v19.59h-3.08ZM755.4,125h3.36l-3,3.21h-2.32Z"/><path class="cls-3" d="M758.42,144.49v-1.12h2.91v1.35c0,1.4.61,1.9,1.59,1.9s1.6-.5,1.6-2c0-1.62-.62-2.66-2.63-4.42-2.57-2.26-3.42-3.86-3.42-6.1,0-3.08,1.6-4.87,4.59-4.87s4.48,1.79,4.48,4.93V135h-2.91v-1c0-1.4-.56-1.93-1.54-1.93s-1.54.53-1.54,1.88.65,2.46,2.66,4.22c2.58,2.27,3.39,3.83,3.39,6.27,0,3.19-1.63,5-4.65,5s-4.53-1.79-4.53-4.93"/><path class="cls-3" d="M769.36,146.17h3v3h-3Zm0-10.66h3v3h-3Z"/><path class="cls-4" d="M781.89,144.64c0,1.39.61,1.93,1.59,1.93s1.6-.54,1.6-1.93V134.06c0-1.4-.61-1.93-1.6-1.93s-1.59.53-1.59,1.93Zm-3.08-10.39c0-3.13,1.65-4.92,4.67-4.92s4.68,1.79,4.68,4.92v10.19c0,3.13-1.65,4.92-4.68,4.92s-4.67-1.79-4.67-4.92Z"/><path class="cls-4" d="M792.05,132a3,3,0,0,0,3.38-2.46h2.07v19.59h-3.08V134.2h-2.37Z"/><path class="cls-4" d="M805.64,146.57c1,0,1.71-.48,1.74-2.22v-1.81c0-1.54-.65-2.22-1.74-2.22s-1.74.68-1.74,2.22v1.81c0,1.74.76,2.22,1.74,2.22m-1.74-11.11c0,1.56.73,2.07,1.74,2.07s1.74-.51,1.74-2.07v-1.1c0-1.76-.76-2.24-1.74-2.24s-1.74.48-1.74,2.24Zm1.74,13.9c-3.1,0-4.81-1.79-4.81-4.92V142.9c0-1.88.56-3.33,1.9-4.09-1.29-.7-1.9-2-1.9-3.94v-.62c0-3.13,1.71-4.92,4.81-4.92s4.82,1.79,4.82,4.92v.62c0,1.93-.65,3.24-1.91,3.94,1.34.76,1.91,2.21,1.91,4.09v1.54c0,3.13-1.71,4.92-4.82,4.92"/><path class="cls-4" d="M815.12,144.64c0,1.39.62,1.93,1.6,1.93s1.6-.54,1.6-1.93V134.06c0-1.4-.62-1.93-1.6-1.93s-1.6.53-1.6,1.93Zm-3.07-10.39c0-3.13,1.65-4.92,4.67-4.92s4.67,1.79,4.67,4.92v10.19c0,3.13-1.65,4.92-4.67,4.92s-4.67-1.79-4.67-4.92Z"/><path class="cls-4" d="M826.2,144.64c0,1.39.62,1.93,1.6,1.93s1.6-.54,1.6-1.93V134.06c0-1.4-.62-1.93-1.6-1.93s-1.6.53-1.6,1.93Zm-3.07-10.39c0-3.13,1.64-4.92,4.67-4.92s4.67,1.79,4.67,4.92v10.19c0,3.13-1.65,4.92-4.67,4.92s-4.67-1.79-4.67-4.92Z"/><path class="cls-4" d="M837.28,144.64c0,1.39.62,1.93,1.6,1.93s1.59-.54,1.59-1.93V134.06c0-1.4-.62-1.93-1.59-1.93s-1.6.53-1.6,1.93Zm-3.08-10.39c0-3.13,1.65-4.92,4.68-4.92s4.67,1.79,4.67,4.92v10.19c0,3.13-1.65,4.92-4.67,4.92s-4.68-1.79-4.68-4.92Z"/><path class="cls-4" d="M851.49,137.58v-3.52c0-1.4-.61-1.91-1.59-1.91s-1.6.51-1.6,1.91v3.52c0,1.4.62,1.93,1.6,1.93s1.59-.53,1.59-1.93m3.08,6.69c0,3.3-1.51,5.09-4.7,5.09-3,0-4.59-1.79-4.59-4.92v-.51h2.91v.7c0,1.4.62,1.94,1.6,1.94s1.7-.54,1.7-2.41v-3.58a2.92,2.92,0,0,1-2.85,1.73c-2.27,0-3.42-1.59-3.42-4.48v-3.58c0-3.13,1.66-4.92,4.68-4.92s4.67,1.79,4.67,4.92Z"/><path class="cls-4" d="M859.38,142.81v1.83c0,1.39.62,1.9,1.6,1.9s1.59-.51,1.59-1.9v-4.32c0-1.39-.61-1.93-1.59-1.93s-1.6.54-1.6,1.93v.59h-2.91l.56-11.36h8.12v2.8H859.8l-.25,4.67a2.94,2.94,0,0,1,2.69-1.43c2.26,0,3.41,1.6,3.41,4.48v4.37c0,3.13-1.57,4.92-4.59,4.92s-4.59-1.79-4.59-4.92v-1.63Z"/><path class="cls-4" d="M870.46,142.81v1.83c0,1.39.62,1.9,1.6,1.9s1.59-.51,1.59-1.9v-4.32c0-1.39-.62-1.93-1.59-1.93s-1.6.54-1.6,1.93v.59h-2.91l.56-11.36h8.12v2.8h-5.35l-.25,4.67a2.94,2.94,0,0,1,2.68-1.43c2.27,0,3.42,1.6,3.42,4.48v4.37c0,3.13-1.57,4.92-4.59,4.92s-4.59-1.79-4.59-4.92v-1.63Z"/><path class="cls-4" d="M881.54,142.81v1.83c0,1.39.61,1.9,1.59,1.9s1.6-.51,1.6-1.9v-4.32c0-1.39-.62-1.93-1.6-1.93s-1.59.54-1.59,1.93v.59h-2.91l.56-11.36h8.12v2.8H882l-.25,4.67a2.93,2.93,0,0,1,2.68-1.43c2.27,0,3.42,1.6,3.42,4.48v4.37c0,3.13-1.57,4.92-4.59,4.92s-4.59-1.79-4.59-4.92v-1.63Z"/><path class="cls-4" d="M895.81,137.58v-3.52c0-1.4-.62-1.91-1.6-1.91s-1.59.51-1.59,1.91v3.52c0,1.4.61,1.93,1.59,1.93s1.6-.53,1.6-1.93m3.08,6.69c0,3.3-1.52,5.09-4.71,5.09-3,0-4.58-1.79-4.58-4.92v-.51h2.9v.7c0,1.4.62,1.94,1.6,1.94s1.71-.54,1.71-2.41v-3.58a2.93,2.93,0,0,1-2.86,1.73c-2.26,0-3.41-1.59-3.41-4.48v-3.58c0-3.13,1.65-4.92,4.67-4.92s4.68,1.79,4.68,4.92Z"/><path class="cls-4" d="M903.75,144.64c0,1.39.62,1.93,1.6,1.93s1.59-.54,1.59-1.93V134.06c0-1.4-.61-1.93-1.59-1.93s-1.6.53-1.6,1.93Zm-3.08-10.39c0-3.13,1.66-4.92,4.68-4.92s4.67,1.79,4.67,4.92v10.19c0,3.13-1.65,4.92-4.67,4.92s-4.68-1.79-4.68-4.92Z"/><path class="cls-3" d="M643.94,202.29c1,0,1.57-.5,1.57-1.9V190.2c0-1.39-.58-1.9-1.57-1.9h-1.56v14ZM639.3,185.5H644c3.08,0,4.59,1.71,4.59,4.84v9.91c0,3.13-1.51,4.84-4.59,4.84h-4.7Z"/><polygon class="cls-3" points="650.66 185.5 659.05 185.5 659.05 188.3 653.73 188.3 653.73 193.48 657.96 193.48 657.96 196.28 653.73 196.28 653.73 202.29 659.05 202.29 659.05 205.09 650.66 205.09 650.66 185.5"/><path class="cls-3" d="M660.34,200.45v-1.12h2.91v1.34c0,1.4.61,1.9,1.59,1.9s1.6-.5,1.6-2c0-1.62-.62-2.66-2.63-4.42-2.58-2.27-3.42-3.86-3.42-6.1,0-3.08,1.6-4.87,4.59-4.87s4.48,1.79,4.48,4.93V191h-2.91v-1c0-1.4-.56-1.93-1.54-1.93s-1.54.53-1.54,1.88.65,2.46,2.66,4.22c2.57,2.27,3.39,3.83,3.39,6.27,0,3.19-1.63,5-4.65,5s-4.53-1.79-4.53-4.92"/><path class="cls-3" d="M671.08,200.56V190c0-3,1.57-4.81,4.53-4.81s4.54,1.79,4.54,4.81v2.08h-2.91v-2.27c0-1.29-.62-1.82-1.54-1.82s-1.54.53-1.54,1.82v10.94c0,1.29.61,1.79,1.54,1.79s1.54-.5,1.54-1.79v-3h2.91v2.77c0,3-1.57,4.81-4.54,4.81s-4.53-1.79-4.53-4.81"/><path class="cls-3" d="M687.73,198.6l-1.37-9.68h-.06L685,198.6Zm-3.36-13.1h4.17l3.19,19.59h-3.08l-.56-3.89v.06H684.6l-.57,3.83h-2.85Z"/><path class="cls-3" d="M697.41,193.9c1.14,0,1.84-.51,1.84-2.07v-1.52c0-1.39-.47-2-1.56-2h-1.4v5.6Zm-4.2-8.4h4.56c3.19,0,4.56,1.49,4.56,4.51v1.2c0,2-.64,3.3-2,3.86v.06c1.53.47,2,1.93,2,4.14v3.44a5.72,5.72,0,0,0,.34,2.38h-3.14a6,6,0,0,1-.28-2.41V199.1c0-1.82-.53-2.4-1.93-2.4h-1.06v8.39h-3.08Z"/><path class="cls-3" d="M704.26,200.45v-10.3c0-3.14,1.57-4.93,4.59-4.93s4.59,1.79,4.59,4.93v1.68h-2.91V190c0-1.4-.62-1.93-1.6-1.93s-1.59.53-1.59,1.93v10.72c0,1.4.61,1.9,1.59,1.9s1.6-.5,1.6-1.9v-3.83H709V194h4.45v6.41c0,3.13-1.57,4.92-4.59,4.92s-4.59-1.79-4.59-4.92"/><path class="cls-3" d="M721.16,198.6l-1.37-9.68h-.06l-1.34,9.68Zm-3.36-13.1H722l3.19,19.59h-3.08l-.56-3.89v.06H718l-.57,3.83h-2.85Z"/><polygon class="cls-3" points="731.11 185.5 734.19 185.5 734.19 202.29 739.26 202.29 739.26 205.09 731.11 205.09 731.11 185.5"/><path class="cls-3" d="M746.59,198.6l-1.37-9.68h-.06l-1.35,9.68Zm-3.36-13.1h4.17l3.19,19.59h-3.08L747,201.2v.06h-3.5l-.56,3.83H740Z"/><path class="cls-3" d="M762.28,198.6l-1.37-9.68h-.06l-1.34,9.68Zm-3.36-13.1h4.17l3.19,19.59H763.2l-.56-3.89v.06h-3.49l-.56,3.83h-2.86Z"/><path class="cls-3" d="M772.29,194.32c1,0,1.51-.45,1.51-1.85v-2.32c0-1.4-.53-1.85-1.51-1.85h-1.45v6Zm-4.53-8.82h4.53c3.08,0,4.6,1.71,4.6,4.84v1.93c0,3.14-1.52,4.84-4.6,4.84h-1.45v8h-3.08Z"/><polygon class="cls-3" points="778.56 185.5 781.64 185.5 781.64 202.29 786.7 202.29 786.7 205.09 778.56 205.09 778.56 185.5"/><rect class="cls-3" x="788.18" y="185.5" width="3.08" height="19.59"/><path class="cls-3" d="M793.36,200.56V190c0-3,1.57-4.81,4.53-4.81s4.54,1.79,4.54,4.81v2.08h-2.91v-2.27c0-1.29-.62-1.82-1.54-1.82s-1.54.53-1.54,1.82v10.94c0,1.29.61,1.79,1.54,1.79s1.54-.5,1.54-1.79v-3h2.91v2.77c0,3-1.57,4.81-4.54,4.81s-4.53-1.79-4.53-4.81"/><path class="cls-3" d="M810,198.6l-1.38-9.68h0l-1.34,9.68Zm-3.36-13.1h4.17L814,205.09h-3.08l-.56-3.89v.06h-3.5l-.56,3.83h-2.85Z"/><path class="cls-3" d="M815.24,200.56V190c0-3,1.56-4.81,4.53-4.81S824.3,187,824.3,190v2.08h-2.91v-2.27c0-1.29-.61-1.82-1.54-1.82s-1.54.53-1.54,1.82v10.94c0,1.29.62,1.79,1.54,1.79s1.54-.5,1.54-1.79v-3h2.91v2.77c0,3-1.57,4.81-4.53,4.81s-4.53-1.79-4.53-4.81"/><rect class="cls-3" x="826.15" y="185.5" width="3.08" height="19.59"/><path class="cls-3" d="M837.56,200.64V190c0-1.4-.61-1.93-1.59-1.93s-1.6.53-1.6,1.93v10.69c0,1.4.62,1.93,1.6,1.93s1.59-.53,1.59-1.93m-6.27-.19v-10.3c0-3.14,1.65-4.93,4.68-4.93s4.67,1.79,4.67,4.93v10.3c0,3.13-1.65,4.92-4.67,4.92s-4.68-1.79-4.68-4.92"/><polygon class="cls-3" points="842.71 185.5 846.57 185.5 849.56 197.23 849.62 197.23 849.62 185.5 852.36 185.5 852.36 205.09 849.2 205.09 845.5 190.79 845.45 190.79 845.45 205.09 842.71 205.09 842.71 185.5"/><path class="cls-3" d="M865.17,200.64V190c0-1.4-.61-1.93-1.59-1.93s-1.6.53-1.6,1.93v10.69c0,1.4.62,1.93,1.6,1.93s1.59-.53,1.59-1.93m-6.27-.19v-10.3c0-3.14,1.66-4.93,4.68-4.93s4.67,1.79,4.67,4.93v10.3c0,3.13-1.65,4.92-4.67,4.92s-4.68-1.79-4.68-4.92"/><polygon class="cls-3" points="870.32 185.5 878.46 185.5 878.46 188.3 873.39 188.3 873.39 193.76 877.37 193.76 877.37 196.56 873.39 196.56 873.39 205.09 870.32 205.09 870.32 185.5"/><rect class="cls-3" x="879.94" y="185.5" width="3.08" height="19.59"/><path class="cls-3" d="M885.11,200.56V190c0-3,1.57-4.81,4.54-4.81s4.53,1.79,4.53,4.81v2.08h-2.91v-2.27c0-1.29-.61-1.82-1.54-1.82s-1.54.53-1.54,1.82v10.94c0,1.29.62,1.79,1.54,1.79s1.54-.5,1.54-1.79v-3h2.91v2.77c0,3-1.56,4.81-4.53,4.81s-4.54-1.79-4.54-4.81"/><rect class="cls-3" x="896.03" y="185.5" width="3.08" height="19.59"/><path class="cls-3" d="M907.14,198.6l-1.38-9.68h0l-1.35,9.68Zm-3.36-13.1H908l3.19,19.59h-3.08l-.56-3.89v.06H904l-.56,3.83h-2.86Z"/><polygon class="cls-3" points="912.62 185.5 915.69 185.5 915.69 202.29 920.76 202.29 920.76 205.09 912.62 205.09 912.62 185.5"/><path class="cls-3" d="M922.52,202.13h3v3h-3Zm0-10.67h3v3h-3Z"/><path class="cls-4" d="M639.1,228.53V218c0-3,1.57-4.81,4.54-4.81s4.53,1.79,4.53,4.81v2.07h-2.91v-2.26c0-1.29-.62-1.82-1.54-1.82s-1.54.53-1.54,1.82v10.94c0,1.29.62,1.79,1.54,1.79s1.54-.5,1.54-1.79v-3h2.91v2.77c0,3-1.57,4.82-4.53,4.82s-4.54-1.79-4.54-4.82"/><path class="cls-4" d="M656.12,228.62V217.93c0-1.4-.62-1.93-1.6-1.93s-1.6.53-1.6,1.93v10.69c0,1.4.62,1.93,1.6,1.93s1.6-.53,1.6-1.93m-6.27-.2v-10.3c0-3.13,1.65-4.92,4.67-4.92s4.67,1.79,4.67,4.92v10.3c0,3.14-1.65,4.93-4.67,4.93s-4.67-1.79-4.67-4.93"/><path class="cls-4" d="M665.46,221.87c1.15,0,1.84-.5,1.84-2.07v-1.51c0-1.4-.47-2-1.56-2h-1.4v5.59Zm-4.2-8.39h4.56c3.19,0,4.56,1.48,4.56,4.5v1.21c0,2-.64,3.3-2,3.86v0c1.54.48,2,1.94,2,4.15v3.44a5.75,5.75,0,0,0,.34,2.38h-3.14a6.25,6.25,0,0,1-.28-2.41v-3.58c0-1.82-.53-2.41-1.93-2.41h-1.06v8.4h-3.08Z"/><path class="cls-4" d="M678.58,228.62V217.93c0-1.4-.62-1.93-1.6-1.93s-1.59.53-1.59,1.93v10.69c0,1.4.61,1.93,1.59,1.93s1.6-.53,1.6-1.93m-6.27-.2v-10.3c0-3.13,1.65-4.92,4.67-4.92s4.68,1.79,4.68,4.92v10.3c0,3.14-1.65,4.93-4.68,4.93s-4.67-1.79-4.67-4.93"/><polygon class="cls-4" points="683.73 213.48 687.59 213.48 690.58 225.2 690.64 225.2 690.64 213.48 693.38 213.48 693.38 233.07 690.22 233.07 686.53 218.77 686.47 218.77 686.47 233.07 683.73 233.07 683.73 213.48"/><path class="cls-4" d="M701.41,226.57,700,216.89H700l-1.34,9.68Zm-3.36-13.09h4.17l3.19,19.59h-3.08l-.56-3.89v0h-3.5l-.56,3.84h-2.85Z"/><path class="cls-4" d="M711.42,222.29c1,0,1.51-.44,1.51-1.84v-2.33c0-1.4-.53-1.84-1.51-1.84H710v6Zm-4.53-8.81h4.53c3.08,0,4.59,1.71,4.59,4.84v1.93c0,3.14-1.51,4.84-4.59,4.84H710v8h-3.08Z"/><path class="cls-4" d="M722.22,222.29c1,0,1.51-.44,1.51-1.84v-2.33c0-1.4-.53-1.84-1.51-1.84h-1.46v6Zm-4.53-8.81h4.53c3.08,0,4.59,1.71,4.59,4.84v1.93c0,3.14-1.51,4.84-4.59,4.84h-1.46v8h-3.07Z"/><rect class="cls-4" x="42.62" y="56.68" width="6.84" height="43.51"/><polygon class="cls-4" points="54.56 56.68 63.14 56.68 69.79 82.72 69.91 82.72 69.91 56.68 76 56.68 76 100.19 68.98 100.19 60.77 68.42 60.65 68.42 60.65 100.19 54.56 100.19 54.56 56.68"/><polygon class="cls-4" points="81.1 56.68 99.19 56.68 99.19 62.89 87.94 62.89 87.94 75.01 96.77 75.01 96.77 81.23 87.94 81.23 87.94 100.19 81.1 100.19 81.1 56.68"/><path class="cls-4" d="M115.91,90.3V66.56c0-3.11-1.36-4.29-3.54-4.29s-3.54,1.18-3.54,4.29V90.3c0,3.11,1.37,4.29,3.54,4.29s3.54-1.18,3.54-4.29M102,89.87V67c0-7,3.67-10.93,10.38-10.93S122.75,60,122.75,67V89.87c0,7-3.66,10.94-10.38,10.94S102,96.83,102,89.87"/><path class="cls-4" d="M136.68,75.32c2.55,0,4.1-1.12,4.1-4.6V67.37c0-3.11-1.05-4.48-3.48-4.48h-3.11V75.32Zm-9.32-18.64h10.13c7.08,0,10.13,3.29,10.13,10v2.67c0,4.47-1.43,7.33-4.48,8.57v.13c3.42,1.06,4.54,4.29,4.54,9.2V94.9a12.73,12.73,0,0,0,.75,5.29h-7c-.38-1.12-.63-1.8-.63-5.35v-8c0-4-1.18-5.35-4.28-5.35h-2.37v18.65h-6.83Z"/><polygon class="cls-4" points="152.41 56.68 162.17 56.68 166.52 87.82 166.64 87.82 171 56.68 180.75 56.68 180.75 100.19 174.29 100.19 174.29 67.24 174.17 67.24 169.19 100.19 163.47 100.19 158.5 67.24 158.38 67.24 158.38 100.19 152.41 100.19 152.41 56.68"/><path class="cls-4" d="M198.6,85.77l-3-21.51h-.12l-3,21.51Zm-7.46-29.09h9.26l7.09,43.51h-6.84l-1.24-8.64v.12h-7.77l-1.25,8.52h-6.34Z"/><path class="cls-4" d="M210.23,90.12V66.75c0-6.72,3.48-10.69,10.07-10.69s10.06,4,10.06,10.69v4.6H223.9v-5c0-2.86-1.37-4-3.42-4s-3.42,1.18-3.42,4V90.62c0,2.85,1.37,4,3.42,4s3.42-1.12,3.42-4V84h6.46v6.16c0,6.71-3.47,10.69-10.06,10.69s-10.07-4-10.07-10.69"/><rect class="cls-4" x="234.47" y="56.68" width="6.84" height="43.51"/><path class="cls-4" d="M259.83,90.3V66.56c0-3.11-1.36-4.29-3.54-4.29s-3.54,1.18-3.54,4.29V90.3c0,3.11,1.36,4.29,3.54,4.29s3.54-1.18,3.54-4.29m-2.92-43.69h7.46l-6.65,7.15h-5.16Zm-11,43.26V67c0-7,3.67-10.93,10.38-10.93S266.67,60,266.67,67V89.87c0,7-3.67,10.94-10.38,10.94s-10.38-4-10.38-10.94"/><polygon class="cls-4" points="271.27 56.68 279.85 56.68 286.5 82.72 286.63 82.72 286.63 56.68 292.72 56.68 292.72 100.19 285.69 100.19 277.49 68.42 277.36 68.42 277.36 100.19 271.27 100.19 271.27 56.68"/><path class="cls-4" d="M41.13,152.29V128.91c0-6.71,3.48-10.68,10.07-10.68s10.07,4,10.07,10.68v4.61H54.8v-5c0-2.86-1.36-4-3.41-4s-3.42,1.18-3.42,4v24.3c0,2.86,1.36,4,3.42,4s3.41-1.12,3.41-4v-6.65h6.47v6.16C61.27,159,57.79,163,51.2,163s-10.07-4-10.07-10.69"/><path class="cls-4" d="M78.92,152.47V128.73c0-3.11-1.36-4.29-3.54-4.29s-3.54,1.18-3.54,4.29v23.74c0,3.11,1.37,4.29,3.54,4.29s3.54-1.18,3.54-4.29M65,152V129.16c0-7,3.67-10.94,10.38-10.94s10.38,4,10.38,10.94V152c0,7-3.67,10.94-10.38,10.94S65,159,65,152"/><path class="cls-4" d="M99.69,137.49c2.55,0,4.1-1.12,4.1-4.6v-3.35c0-3.11-1.05-4.48-3.48-4.48H97.2v12.43Zm-9.32-18.64H100.5c7.08,0,10.13,3.29,10.13,10v2.68c0,4.47-1.43,7.33-4.48,8.57v.13c3.42,1.05,4.54,4.29,4.54,9.2v7.64a12.73,12.73,0,0,0,.75,5.29h-7c-.37-1.12-.62-1.81-.62-5.35v-8c0-4-1.18-5.34-4.28-5.34H97.2v18.65H90.37Z"/><path class="cls-4" d="M128.85,152.47V128.73c0-3.11-1.37-4.29-3.55-4.29s-3.54,1.18-3.54,4.29v23.74c0,3.11,1.37,4.29,3.54,4.29s3.55-1.18,3.55-4.29M114.92,152V129.16c0-7,3.67-10.94,10.38-10.94s10.38,4,10.38,10.94V152c0,7-3.66,10.94-10.38,10.94s-10.38-4-10.38-10.94"/><polygon class="cls-4" points="140.29 118.85 148.87 118.85 155.52 144.89 155.64 144.89 155.64 118.85 161.73 118.85 161.73 162.36 154.71 162.36 146.5 130.59 146.38 130.59 146.38 162.36 140.29 162.36 140.29 118.85"/><path class="cls-4" d="M179.57,147.93l-3-21.5h-.13l-3,21.5Zm-7.46-29.08h9.27l7.08,43.51h-6.83l-1.25-8.64v.12h-7.77l-1.24,8.52H165Z"/><polygon class="cls-4" points="188.22 118.85 195.12 118.85 199.59 152.6 199.72 152.6 204.19 118.85 210.47 118.85 203.88 162.36 194.81 162.36 188.22 118.85"/><rect class="cls-4" x="213.77" y="118.85" width="6.84" height="43.51"/><path class="cls-4" d="M235,137.49c2.55,0,4.1-1.12,4.1-4.6v-3.35c0-3.11-1.06-4.48-3.48-4.48h-3.11v12.43Zm-9.33-18.64h10.13c7.09,0,10.14,3.29,10.14,10v2.68c0,4.47-1.43,7.33-4.48,8.57v.13c3.42,1.05,4.54,4.29,4.54,9.2v7.64a12.73,12.73,0,0,0,.75,5.29h-7c-.37-1.12-.62-1.81-.62-5.35v-8c0-4-1.18-5.34-4.29-5.34h-2.36v18.65H225.7Z"/><path class="cls-4" d="M250.51,152V118.85h6.84v33.69c0,3.1,1.3,4.22,3.48,4.22s3.48-1.12,3.48-4.22V118.85h6.59V152c0,7-3.48,10.94-10.2,10.94s-10.19-4-10.19-10.94"/><path class="cls-4" d="M274.57,152v-2.49H281v3c0,3.1,1.37,4.22,3.54,4.22s3.55-1.12,3.55-4.35c0-3.6-1.37-5.9-5.85-9.82-5.71-5-7.58-8.58-7.58-13.55,0-6.84,3.54-10.82,10.2-10.82s9.94,4,9.94,10.94V131h-6.46v-2.24c0-3.11-1.25-4.29-3.42-4.29s-3.42,1.18-3.42,4.16c0,3.17,1.43,5.47,5.9,9.39,5.72,5,7.53,8.52,7.53,13.92C295,159,291.35,163,284.64,163s-10.07-4-10.07-10.94"/><polygon class="cls-1" points="85.17 194.17 91.21 194.17 91.21 227.11 101.15 227.11 101.15 232.6 85.17 232.6 85.17 194.17"/><path class="cls-1" d="M104.06,194.17h6V232.6h-6Zm3.57-8.89h6.59l-5.88,6.31h-4.55Z"/><polygon class="cls-1" points="114.6 194.17 122.18 194.17 128.06 217.18 128.16 217.18 128.16 194.17 133.54 194.17 133.54 232.6 127.34 232.6 120.09 204.55 119.98 204.55 119.98 232.6 114.6 232.6 114.6 194.17"/><polygon class="cls-1" points="138.05 194.17 154.52 194.17 154.52 199.66 144.09 199.66 144.09 209.82 152.38 209.82 152.38 215.31 144.09 215.31 144.09 227.11 154.52 227.11 154.52 232.6 138.05 232.6 138.05 194.17"/><path class="cls-1" d="M169.23,219.87l-2.69-19h-.11l-2.63,19Zm-6.58-25.7h8.18l6.26,38.43h-6L170,225v.11h-6.86L162,232.6h-5.6Z"/><path class="cls-1" d="M197.24,203.28h-6.32V199c5.11,0,6.92-1.09,8.29-4.83h4.06V232.6h-6Z"/><path class="cls-1" d="M222.44,209.65v-6.8c0-2.53-1.05-3.74-3.13-3.74s-3.13,1.21-3.13,3.74v6.8c0,2.58,1,3.79,3.13,3.79s3.13-1.21,3.13-3.79m-12.19,13.84v-.72H216v1.1c0,2.75,1.21,3.79,3.13,3.79,2.14,0,3.35-1,3.35-4.72v-7.36h-.11a5.55,5.55,0,0,1-5.49,3.35c-4.45,0-6.7-3.13-6.7-8.78v-6.87c0-6.14,3.24-9.66,9.17-9.66s9.17,3.52,9.17,9.66v19.88c0,6.48-3,10-9.23,10-5.93,0-9-3.51-9-9.66"/><path class="cls-1" d="M232.6,228.43c0-5.49,1.53-8.84,6-13.56,4.61-4.89,5.92-7.8,5.92-11.36s-1.2-4.4-3.13-4.4-3.12,1-3.12,3.79V207H232.6v-3.73c0-6.15,3.07-9.67,9-9.67s9,3.52,9,9.67c0,4.55-1.86,8.62-7.46,14.55-3.63,3.84-4.56,5.76-4.56,8.45v.82h11.48v5.49H232.6Z"/><line class="cls-5" x1="34.79" y1="177.17" x2="300.56" y2="177.17"/><path class="cls-4" d="M528.12,190.4l-17.39-11.6-15.47-10.31a6.85,6.85,0,0,0-9.19,1.49l-9.57,12.31a6.83,6.83,0,0,1-8.7,1.8c-6.5-3.61-14.17-7-31.12-24s-20.36-24.62-24-31.12a6.83,6.83,0,0,1,1.8-8.7l12.31-9.57a6.85,6.85,0,0,0,1.49-9.19l-10-15L406.4,68.68a6.85,6.85,0,0,0-9.22-2.08l-13.74,8.25a16.77,16.77,0,0,0-7.62,9.86c-3.76,13.7-4.52,43.92,43.92,92.36s78.65,47.67,92.35,43.91a16.77,16.77,0,0,0,9.86-7.62l8.25-13.74A6.85,6.85,0,0,0,528.12,190.4Z"/><path class="cls-4" d="M463.54,90a46,46,0,0,1,46,46,2.71,2.71,0,1,0,5.41,0,51.46,51.46,0,0,0-51.4-51.4,2.71,2.71,0,1,0,0,5.41Z"/><path class="cls-4" d="M463.54,106.21A29.79,29.79,0,0,1,493.3,136a2.71,2.71,0,1,0,5.41,0,35.22,35.22,0,0,0-35.17-35.17,2.71,2.71,0,0,0,0,5.42Z"/><path class="cls-4" d="M463.54,122.44A13.54,13.54,0,0,1,477.06,136a2.71,2.71,0,0,0,5.42,0A19,19,0,0,0,463.54,117a2.71,2.71,0,1,0,0,5.41Z"/></g></g></svg>