<svg xmlns="http://www.w3.org/2000/svg" width="659.324" height="246.515" viewBox="0 0 659.324 246.515">
  <g id="Grupo_3099" data-name="Grupo 3099" transform="translate(-229 -2045.454)">
    <g id="Grupo_3089" data-name="Grupo 3089" transform="translate(273.127 1803.22)">
      <path id="Trazado_1519" data-name="Trazado 1519" d="M444.346,361.464a5.457,5.457,0,0,0,7.559-2.2,33.416,33.416,0,0,0,3.951-15.226,51.471,51.471,0,0,0-2.53-16.2c-3.9-11.563-64.57-12.183-78.31-12.179-13.707.005-72.419.64-76.268,12.184a52.4,52.4,0,0,0-2.5,16.2,33.4,33.4,0,0,0,3.951,15.231,5.525,5.525,0,0,0,7.575,2.2,122.284,122.284,0,0,1,32.931-12.591,168.052,168.052,0,0,1,70.628-.017A126.121,126.121,0,0,1,444.346,361.464Z" transform="translate(-72.388)" fill="#8b221b" fill-rule="evenodd"/>
      <g id="Grupo_3019" data-name="Grupo 3019" transform="translate(201.873 331.577)">
        <path id="Trazado_1520" data-name="Trazado 1520" d="M379.466,384.03c2.72,8.335,2.508,18.511-1.8,30.757-5.707,16.224,10.072,16.931,10.072,41.383,0,7.153-3.9,13.275-3.79,19.193.346,18.5,12.446,33.053,18.105,42.79,6.25,10.755,4.644,15.641-29.334,13.5-15.03,5.1-42.187,7.646-69.322,7.637-27.136.009-54.292-2.537-69.321-7.637-29.043,1.83-34.436-1.474-31.486-9.189,3.626-9.483,19.855-25.631,20.256-47.1.111-5.918-3.791-12.041-3.791-19.193,0-24.452,15.78-25.16,10.072-41.383-4.309-12.246-4.521-22.423-1.8-30.757,21.033,6.687,47.419,10.669,76.071,10.669S358.432,390.717,379.466,384.03Z" transform="translate(-201.873 -384.03)" fill="#d1443a" fill-rule="evenodd"/>
        <path id="Trazado_1521" data-name="Trazado 1521" d="M396.262,417.381c13.111,6.231,21.784,17.039,21.784,29.33,0,11.918-8.157,22.442-20.606,28.75,5.413,5.046,8.478,10.782,8.478,16.869,0,20.156-33.573,36.5-74.986,36.5-16.97,0-50.149.64-50.149-20.947,0-14.985,8.884-11.719,9.184-26.977.114-5.8-3.913-11.8-3.913-18.806,0-23.958,16.292-24.652,10.4-40.548-4.291-11.575-4.647-21.261-2.146-29.261,19.869,5.522,43.828,8.746,69.62,8.746a285.331,285.331,0,0,0,47.472-3.857C409.562,403.593,404.792,410.443,396.262,417.381Z" transform="translate(-262.406 -390.362)" fill="#f4564b" fill-rule="evenodd"/>
        <path id="Trazado_1522" data-name="Trazado 1522" d="M352.718,424.048c-8.568-2.676-27.165-6.227-40.655,2.165-4.725-11.959-5.945-22.142-4.294-30.675-4.663-.97-9.16-2.057-13.463-3.253-2.5,8-2.145,17.687,2.146,29.261,5.893,15.9-10.4,16.59-10.4,40.548,0,7.008,4.028,13.007,3.913,18.806-.3,15.258-9.184,11.992-9.184,26.977,0,21.587,33.179,20.947,50.149,20.947q2.192,0,4.353-.063c-66.453-1.481-45.071-45.626,12.735-54.046-9.238-2.884-30.13-6.786-43.714,4.356C295.873,456.013,304.089,431.131,352.718,424.048Z" transform="translate(-262.406 -390.362)" fill="#b22d23" fill-rule="evenodd" opacity="0.763"/>
      </g>
      <path id="Trazado_1523" data-name="Trazado 1523" d="M436.517,353.353a5.7,5.7,0,0,1,7.835,2.246,33.67,33.67,0,0,1,4.095,15.534,51.743,51.743,0,0,1-2.623,16.533c-1.439,4.2-18.774,10.961-37.261,15.047-31.281,6.913-54.424,6.914-85.707,0-18.471-4.083-35.823-10.856-37.244-15.053a52.7,52.7,0,0,1-2.589-16.533,33.666,33.666,0,0,1,4.095-15.54,5.774,5.774,0,0,1,7.852-2.24A128,128,0,0,0,329.1,366.194a176.877,176.877,0,0,0,73.2.017A131.991,131.991,0,0,0,436.517,353.353Z" transform="translate(-62.241 -28.338)" fill="#d1443a" fill-rule="evenodd"/>
      <path id="Trazado_1524" data-name="Trazado 1524" d="M316.3,379.874a5.36,5.36,0,0,1,7.175-2.16,129.756,129.756,0,0,0,32.117,10.5,172.613,172.613,0,0,0,34.147,2.821,166.918,166.918,0,0,0,29.663-2.961,138.218,138.218,0,0,0,28.529-8.94c3.757,19.29-33.951,36.775-70.528,37.344C340.868,417.043,306.1,400.914,316.3,379.874Z" transform="translate(-86.396 -47.165)" fill="#f4564b" fill-rule="evenodd"/>
      <path id="Trazado_1525" data-name="Trazado 1525" d="M300.186,357.1a2.439,2.439,0,0,1-.132-1.2l.119-.218a5.774,5.774,0,0,1,7.852-2.24,128,128,0,0,0,34.131,12.847,176.878,176.878,0,0,0,73.2.017,131.128,131.128,0,0,0,24.883-8.25q1.282-.511,2.542-1.04c1.81,8.208-30.606,20.149-65.74,21.624C341.892,380.115,305.1,370.445,300.186,357.1Z" transform="translate(-75.297 -28.432)" fill="#d1443a" fill-rule="evenodd"/>
    </g>
    <g id="Grupo_3043" data-name="Grupo 3043" transform="translate(219.943 1741.434)">
      <g id="Grupo_3024" data-name="Grupo 3024" transform="translate(145.057 304.02)">
        <path id="Trazado_1564" data-name="Trazado 1564" d="M147.433,350.18l-2.376-1.538c.243-.378,24.9-37.835,66.5-43.806,27.915-4,56.9,6.755,86.153,31.984l-1.848,2.144c-28.6-24.664-56.819-35.2-83.876-31.33C171.671,313.408,147.671,349.813,147.433,350.18Z" transform="translate(-145.057 -304.02)" fill="#f4564b"/>
        <g id="Grupo_3023" data-name="Grupo 3023" transform="translate(138.681 20.898)">
          <path id="Trazado_1565" data-name="Trazado 1565" d="M243.042,334.273l10.355-4.742,3.775-10.745,11.291,24.492Z" transform="translate(-243.042 -318.786)" fill="#f4564b"/>
        </g>
      </g>
    </g>
    <g id="Grupo_3090" data-name="Grupo 3090" transform="translate(693 2084.077)">
      <path id="Trazado_1499" data-name="Trazado 1499" d="M309.422,634.263l-9.069-8.535a9.5,9.5,0,0,1-2.88-8.345l1.945-12.781a9.495,9.495,0,0,0-1.01-5.9l-4.643-8.7a9.505,9.505,0,0,1-1.117-4.47V575.6a9.491,9.491,0,0,0-1.4-4.962l-7.8-12.724a9.469,9.469,0,0,1-1.116-2.659l-2.363-9.45-6.769-22.94a9.5,9.5,0,0,0-5.984-6.281L242.6,508a9.4,9.4,0,0,1-1.269-.548c-2.082-1.089-9.137-4.756-15.452-7.831,0-9.96,37.593-20.824,37.593-20.824s0-10.413-6.348-10.413c-2.866,0-6.4,5.433-10.06.453s-2.758-12.978-7.622-12.676-13.824,3.169-16.263,4.527-.582-2.565-2.716-5.734-8.45-5.131-8.45-5.131-10.262,1.207-11.168,15.091c-.484,7.42,5.11,28.106,6.6,33.438-10.069,3.9-27.625,10.071-33.853,12.248a9.489,9.489,0,0,0-3.9,2.58l-25.924,28.555a9.5,9.5,0,0,0-2.01,9.29l1.146,3.566a9.5,9.5,0,0,1-.709,7.463l-12.335,22.555a9.493,9.493,0,0,0-1.049,6.038l3.281,20.778a9.508,9.508,0,0,1-.13,3.632l-2.972,12.781a9.5,9.5,0,0,1-5.809,6.7h0a9.493,9.493,0,0,0-5.1,4.708l-.035.073a9.5,9.5,0,0,0,7.051,13.522l20.14,3.208a133.613,133.613,0,0,0,36.87.721l26.508-3.165a133.689,133.689,0,0,1,31.349-.04l24.084,2.813a81.66,81.66,0,0,0,42.732-6.528h0A9.5,9.5,0,0,0,309.422,634.263Z" transform="translate(-117.088 -449.825)" fill="#f4564b"/>
      <path id="Trazado_1500" data-name="Trazado 1500" d="M299.146,624.432a9.494,9.494,0,0,1-2.294-7.735l1.945-12.781c-5.61,12.033-64.965,24.817-32.551,23.864C279.108,627.4,291.313,626.439,299.146,624.432Z" transform="translate(-116.467 -449.138)" fill="#d1443a"/>
      <path id="Trazado_1501" data-name="Trazado 1501" d="M125.1,652.026l20.14,3.208a133.62,133.62,0,0,0,36.87.721l26.508-3.165a133.689,133.689,0,0,1,31.349-.04l24.084,2.813a81.661,81.661,0,0,0,42.732-6.528h0a9.5,9.5,0,0,0,2.642-15.59c-4.305,3.815-18.169,16.277-29.2,16.569-26.1.691-57.043-16.569-57.043-16.569s-40.442,15.664-53.421,17.474-51.68-12.488-51.68-12.488l-.035.073A9.5,9.5,0,0,0,125.1,652.026Z" transform="translate(-117.088 -449.007)" fill="#d1443a"/>
      <path id="Trazado_1502" data-name="Trazado 1502" d="M220.049,454.947a11.318,11.318,0,0,0-3.953-3.205s-7.139,29.842-4.65,43.254c0,0,3.849-30.239,11.318-34.314C220.327,462.04,222.184,458.116,220.049,454.947Z" transform="translate(-116.67 -449.816)" fill="#d1443a"/>
      <path id="Trazado_1503" data-name="Trazado 1503" d="M254.548,526.324l20.222,18.26-15.51-26.861a16.407,16.407,0,0,0-7.958-6.966l-18.632-7.679-6.98-3.131c.005-.112.018-.215.018-.333,0-2.079,1.643-4.2,4.237-6.251a10.505,10.505,0,0,1,3.107-5.595l18.041-16.929a3.552,3.552,0,0,1-1.393.035l-16.392,9.273s-3.681,4.046-6.98,7.482a.755.755,0,0,1-1.127-1,7.623,7.623,0,0,1,1.442-1.388c.466-.311,3.27-6.585,3.609-7.467,0,0-4.651,5.7-4.822,5.885s-3.554,2.6-3.554,2.6,2.812-9.888,4.255-12.229a5.092,5.092,0,0,0,.6-1.63l2.812-14.174c-.823.25-1.615.505-2.356.759l-5.2,1.923s-.624,9.644-.68,9.958-3.11,13.651-3.784,13.2-.132-16.342-.132-16.342l.116-15.3q-.271-.175-.548-.339c-1.253,5.3-4.128,17.7-4,19.376.168,2.133,1.2,14.154.469,16.4s-7.062-9.42-7.062-9.42L200.728,464.3c-.018.2-.04.4-.054.611-.394,6.044,3.244,20.891,5.41,29.072l.627,1.016.572,3.344c-5.861,2.269-14.262,5.311-21.493,7.888l-29.18,31.567,19.316-13.732,11.592-12.752a28.79,28.79,0,0,1,12.059-7.9s10.756-3.645,10.3-.778c-.373,2.358-17.177,9.513-23.135,11.98a5.628,5.628,0,0,0-2.988,2.91l-14.17,31.74s21.58-32.445,22.033-32.746,19.419-12.074,18.561-7.243c-.868,4.888-11.884,17.23-15.205,20.862a3.826,3.826,0,0,0-1,2.428l-1.3,31.338,7.968-12.978s3.8-14.337,3.8-14.789,10.187-22.637,12.639-22.183,10,22.787,10,22.787l10.111,25.2s3.906-28.6,2.112-31.539-12.185-19.462-11.129-22.782S254.548,526.324,254.548,526.324Z" transform="translate(-116.912 -449.815)" fill="#d1443a"/>
      <path id="Trazado_1504" data-name="Trazado 1504" d="M243.9,529.114l6.8,23.369,8.436-3.4,15.241.679Z" transform="translate(-116.523 -449.472)" fill="#d1443a"/>
      <g id="Grupo_3014" data-name="Grupo 3014" transform="translate(21.146 91.913)">
        <path id="Trazado_1505" data-name="Trazado 1505" d="M141.482,545.487a9.484,9.484,0,0,0,.187,5.133l1.146,3.566a9.5,9.5,0,0,1-.709,7.463l-3.965,7.25,5.538,14.523,41.989,12.288-12.842-9.973c-4.694-3.645-14.447-9.869-19.475-13.028a8.735,8.735,0,0,1-3.905-5.614c-1.289-6.168-3.948-18.674-5.767-25.766h0Z" transform="translate(-138.141 -541.33)" fill="#d1443a"/>
      </g>
      <path id="Trazado_1506" data-name="Trazado 1506" d="M129.51,624.759l20.733,3.123h0a59.991,59.991,0,0,1-19.57-30.04l-1.539-5.475,2.909,18.427a9.494,9.494,0,0,1-.131,3.633Z" transform="translate(-117.035 -449.19)" fill="#d1443a"/>
      <path id="Trazado_1507" data-name="Trazado 1507" d="M213.982,524.064l-7.3,28.574a8.6,8.6,0,0,0-.181,3.355c.836,5.849,3.518,24.9,3.038,25.472-.3.366,4.388-2.092,8.785-4.438a14.67,14.67,0,0,0,7.746-12.182l.674-12.946a8.616,8.616,0,0,0-.778-4.057L214.98,523.972A.532.532,0,0,0,213.982,524.064Z" transform="translate(-116.69 -449.496)" fill="#d1443a"/>
      <path id="Trazado_1508" data-name="Trazado 1508" d="M196.153,518.033l-18.411,26.56L165.67,558.778l3.432-24.229-9.173,4.512a8.6,8.6,0,0,0-4.8,7.959c.177,6.137.944,15.543,3.9,18.7,4.527,4.828,26.562,20.824,26.562,20.824s4.223-22,3.318-33.938S194.946,520.447,196.153,518.033Z" transform="translate(-116.919 -449.521)" fill="#d1443a"/>
      <g id="Grupo_3015" data-name="Grupo 3015" transform="translate(85.817 0)">
        <path id="Trazado_1509" data-name="Trazado 1509" d="M215.866,451.608a28.2,28.2,0,0,0-4.23-1.783,12.8,12.8,0,0,0-9.111,7.021c1.132,2.893,6.52,15.986,6.52,15.986S208.279,455.5,215.866,451.608Z" transform="translate(-202.525 -449.825)" fill="#d1443a"/>
        <path id="Trazado_1510" data-name="Trazado 1510" d="M258.108,468.551c1.365,1.685,2.3,3.962.985,4.743-11.509,6.843.974,1.954,3.509,2.55C262.176,473.194,261.054,469.527,258.108,468.551Z" transform="translate(-202.294 -449.742)" fill="#d1443a"/>
        <path id="Trazado_1511" data-name="Trazado 1511" d="M230.511,475.9s7.721-12.258,13.7-12.107c-1.291-4.031-1.876-7.869-5.273-7.658a40.837,40.837,0,0,0-7.313,1.383C233.04,458.759,230.511,475.9,230.511,475.9Z" transform="translate(-202.4 -449.797)" fill="#d1443a"/>
      </g>
      <path id="Trazado_1512" data-name="Trazado 1512" d="M215.682,601.428l-15.045.753-42.375-.981s24.672,24.447,29.879,23.993,20.848.874,23.015-4.5c4.074-10.093,51.874-55.791,51.874-55.791Z" transform="translate(-116.905 -449.312)" fill="#d1443a"/>
      <g id="Grupo_3016" data-name="Grupo 3016" transform="translate(133.394 140.376)">
        <path id="Trazado_1513" data-name="Trazado 1513" d="M288.366,603.98c1.879-2.193,4.656-5.9,7.4-9.7l-2.508-4.7c-12.009,8.474-30.1,20.889-38.633,24.987C264.117,612.434,284.8,608.14,288.366,603.98Z" transform="translate(-249.869 -589.578)" fill="#d1443a"/>
        <path id="Trazado_1514" data-name="Trazado 1514" d="M250.676,615.826a11.814,11.814,0,0,0,3.972-1.372C250.685,615.344,248.672,615.857,250.676,615.826Z" transform="translate(-249.891 -589.467)" fill="#d1443a"/>
      </g>
      <path id="Trazado_1515" data-name="Trazado 1515" d="M270.633,576.057l-29.4,21.935-9.612,12.442s42.208-17.349,49-28.929c2.765-4.715,4.7-11.488,6.032-17.861l-3.712-6.058a9.469,9.469,0,0,1-1.116-2.659l-2.362-9.45-6.769-22.94,5.815,33.785A20.322,20.322,0,0,1,270.633,576.057Z" transform="translate(-116.578 -449.501)" fill="#d1443a"/>
      <path id="Trazado_1516" data-name="Trazado 1516" d="M189.182,503.971q-.3,0-.592-.015c-7.108-.36-12.309-3.8-12.1-8,.11-2.207,1.675-4.105,4.406-5.345a18.518,18.518,0,0,1,8.433-1.389c6.236.315,16.3,6.284,16.73,6.537l3.1,1.848-3.268,1.527C205.459,499.341,195.472,503.97,189.182,503.971Zm-.968-10.95a14.3,14.3,0,0,0-5.732,1.076c-1.3.592-2.134,1.38-2.169,2.057-.072,1.445,3.19,3.716,8.471,3.984,3.129.151,8.228-1.508,11.924-2.953-3.532-1.812-8.441-3.982-11.566-4.139h0Q188.676,493.021,188.214,493.021Z" transform="translate(-116.824 -449.65)" fill="#eab306"/>
      <path id="Trazado_1517" data-name="Trazado 1517" d="M207.11,499.257l-2.558-.42c-.993-.163-9.8-1.688-13.075-5.046a11.176,11.176,0,0,1-3.13-6.014,6.362,6.362,0,0,1,7.751-7.564,11.176,11.176,0,0,1,5.935,3.279c3.277,3.358,4.583,12.2,4.721,13.2Zm-12.464-15.349a2.61,2.61,0,0,0-1.863.661,3.064,3.064,0,0,0-.655,2.637,7.446,7.446,0,0,0,2.086,3.915c1.385,1.419,5.126,2.655,8.276,3.4-.668-3.169-1.811-6.942-3.192-8.358a7.448,7.448,0,0,0-3.863-2.183A4.545,4.545,0,0,0,194.645,483.908Z" transform="translate(-116.771 -449.69)" fill="#e8c100"/>
      <path id="Trazado_1518" data-name="Trazado 1518" d="M204.718,498.825c6.877,4.543,15.457,3.77,23.027,1.707a1.586,1.586,0,0,0-.843-3.056c-6.779,1.847-14.41,2.693-20.585-1.387-1.707-1.127-3.3,1.616-1.6,2.736Z" transform="translate(-116.701 -449.62)" fill="#e8c100"/>
    </g>
    <g id="Grupo_3091" data-name="Grupo 3091" transform="translate(229 2082.077)">
      <path id="Trazado_1499-2" data-name="Trazado 1499" d="M309.422,634.263l-9.069-8.535a9.5,9.5,0,0,1-2.88-8.345l1.945-12.781a9.495,9.495,0,0,0-1.01-5.9l-4.643-8.7a9.505,9.505,0,0,1-1.117-4.47V575.6a9.491,9.491,0,0,0-1.4-4.962l-7.8-12.724a9.469,9.469,0,0,1-1.116-2.659l-2.363-9.45-6.769-22.94a9.5,9.5,0,0,0-5.984-6.281L242.6,508a9.4,9.4,0,0,1-1.269-.548c-2.082-1.089-9.137-4.756-15.452-7.831,0-9.96,37.593-20.824,37.593-20.824s0-10.413-6.348-10.413c-2.866,0-6.4,5.433-10.06.453s-2.758-12.978-7.622-12.676-13.824,3.169-16.263,4.527-.582-2.565-2.716-5.734-8.45-5.131-8.45-5.131-10.262,1.207-11.168,15.091c-.484,7.42,5.11,28.106,6.6,33.438-10.069,3.9-27.625,10.071-33.853,12.248a9.489,9.489,0,0,0-3.9,2.58l-25.924,28.555a9.5,9.5,0,0,0-2.01,9.29l1.146,3.566a9.5,9.5,0,0,1-.709,7.463l-12.335,22.555a9.493,9.493,0,0,0-1.049,6.038l3.281,20.778a9.508,9.508,0,0,1-.13,3.632l-2.972,12.781a9.5,9.5,0,0,1-5.809,6.7h0a9.493,9.493,0,0,0-5.1,4.708l-.035.073a9.5,9.5,0,0,0,7.051,13.522l20.14,3.208a133.613,133.613,0,0,0,36.87.721l26.508-3.165a133.689,133.689,0,0,1,31.349-.04l24.084,2.813a81.66,81.66,0,0,0,42.732-6.528h0A9.5,9.5,0,0,0,309.422,634.263Z" transform="translate(-117.088 -449.825)" fill="#9b9b9b"/>
      <path id="Trazado_1500-2" data-name="Trazado 1500" d="M299.146,624.432a9.494,9.494,0,0,1-2.294-7.735l1.945-12.781c-5.61,12.033-64.965,24.817-32.551,23.864C279.108,627.4,291.313,626.439,299.146,624.432Z" transform="translate(-116.467 -449.138)" fill="#bcbcbc"/>
      <path id="Trazado_1501-2" data-name="Trazado 1501" d="M125.1,652.026l20.14,3.208a133.62,133.62,0,0,0,36.87.721l26.508-3.165a133.689,133.689,0,0,1,31.349-.04l24.084,2.813a81.661,81.661,0,0,0,42.732-6.528h0a9.5,9.5,0,0,0,2.642-15.59c-4.305,3.815-18.169,16.277-29.2,16.569-26.1.691-57.043-16.569-57.043-16.569s-40.442,15.664-53.421,17.474-51.68-12.488-51.68-12.488l-.035.073A9.5,9.5,0,0,0,125.1,652.026Z" transform="translate(-117.088 -449.007)" fill="#bababa"/>
      <path id="Trazado_1502-2" data-name="Trazado 1502" d="M220.049,454.947a11.318,11.318,0,0,0-3.953-3.205s-7.139,29.842-4.65,43.254c0,0,3.849-30.239,11.318-34.314C220.327,462.04,222.184,458.116,220.049,454.947Z" transform="translate(-116.67 -449.816)" fill="#535353"/>
      <path id="Trazado_1503-2" data-name="Trazado 1503" d="M254.548,526.324l20.222,18.26-15.51-26.861a16.407,16.407,0,0,0-7.958-6.966l-18.632-7.679-6.98-3.131c.005-.112.018-.215.018-.333,0-2.079,1.643-4.2,4.237-6.251a10.505,10.505,0,0,1,3.107-5.595l18.041-16.929a3.552,3.552,0,0,1-1.393.035l-16.392,9.273s-3.681,4.046-6.98,7.482a.755.755,0,0,1-1.127-1,7.623,7.623,0,0,1,1.442-1.388c.466-.311,3.27-6.585,3.609-7.467,0,0-4.651,5.7-4.822,5.885s-3.554,2.6-3.554,2.6,2.812-9.888,4.255-12.229a5.092,5.092,0,0,0,.6-1.63l2.812-14.174c-.823.25-1.615.505-2.356.759l-5.2,1.923s-.624,9.644-.68,9.958-3.11,13.651-3.784,13.2-.132-16.342-.132-16.342l.116-15.3q-.271-.175-.548-.339c-1.253,5.3-4.128,17.7-4,19.376.168,2.133,1.2,14.154.469,16.4s-7.062-9.42-7.062-9.42L200.728,464.3c-.018.2-.04.4-.054.611-.394,6.044,3.244,20.891,5.41,29.072l.627,1.016.572,3.344c-5.861,2.269-14.262,5.311-21.493,7.888l-29.18,31.567,19.316-13.732,11.592-12.752a28.79,28.79,0,0,1,12.059-7.9s10.756-3.645,10.3-.778c-.373,2.358-17.177,9.513-23.135,11.98a5.628,5.628,0,0,0-2.988,2.91l-14.17,31.74s21.58-32.445,22.033-32.746,19.419-12.074,18.561-7.243c-.868,4.888-11.884,17.23-15.205,20.862a3.826,3.826,0,0,0-1,2.428l-1.3,31.338,7.968-12.978s3.8-14.337,3.8-14.789,10.187-22.637,12.639-22.183,10,22.787,10,22.787l10.111,25.2s3.906-28.6,2.112-31.539-12.185-19.462-11.129-22.782S254.548,526.324,254.548,526.324Z" transform="translate(-116.912 -449.815)" fill="#838383"/>
      <path id="Trazado_1504-2" data-name="Trazado 1504" d="M243.9,529.114l6.8,23.369,8.436-3.4,15.241.679Z" transform="translate(-116.523 -449.472)" fill="#9b9b9b"/>
      <g id="Grupo_3014-2" data-name="Grupo 3014" transform="translate(21.146 91.913)">
        <path id="Trazado_1505-2" data-name="Trazado 1505" d="M141.482,545.487a9.484,9.484,0,0,0,.187,5.133l1.146,3.566a9.5,9.5,0,0,1-.709,7.463l-3.965,7.25,5.538,14.523,41.989,12.288-12.842-9.973c-4.694-3.645-14.447-9.869-19.475-13.028a8.735,8.735,0,0,1-3.905-5.614c-1.289-6.168-3.948-18.674-5.767-25.766h0Z" transform="translate(-138.141 -541.33)" fill="#bababa"/>
      </g>
      <path id="Trazado_1506-2" data-name="Trazado 1506" d="M129.51,624.759l20.733,3.123h0a59.991,59.991,0,0,1-19.57-30.04l-1.539-5.475,2.909,18.427a9.494,9.494,0,0,1-.131,3.633Z" transform="translate(-117.035 -449.19)" fill="#848484"/>
      <path id="Trazado_1507-2" data-name="Trazado 1507" d="M213.982,524.064l-7.3,28.574a8.6,8.6,0,0,0-.181,3.355c.836,5.849,3.518,24.9,3.038,25.472-.3.366,4.388-2.092,8.785-4.438a14.67,14.67,0,0,0,7.746-12.182l.674-12.946a8.616,8.616,0,0,0-.778-4.057L214.98,523.972A.532.532,0,0,0,213.982,524.064Z" transform="translate(-116.69 -449.496)" fill="#bcbcbc"/>
      <path id="Trazado_1508-2" data-name="Trazado 1508" d="M196.153,518.033l-18.411,26.56L165.67,558.778l3.432-24.229-9.173,4.512a8.6,8.6,0,0,0-4.8,7.959c.177,6.137.944,15.543,3.9,18.7,4.527,4.828,26.562,20.824,26.562,20.824s4.223-22,3.318-33.938S194.946,520.447,196.153,518.033Z" transform="translate(-116.919 -449.521)" fill="#bababa"/>
      <g id="Grupo_3015-2" data-name="Grupo 3015" transform="translate(85.817 0)">
        <path id="Trazado_1509-2" data-name="Trazado 1509" d="M215.866,451.608a28.2,28.2,0,0,0-4.23-1.783,12.8,12.8,0,0,0-9.111,7.021c1.132,2.893,6.52,15.986,6.52,15.986S208.279,455.5,215.866,451.608Z" transform="translate(-202.525 -449.825)" fill="#5d5d5d"/>
        <path id="Trazado_1510-2" data-name="Trazado 1510" d="M258.108,468.551c1.365,1.685,2.3,3.962.985,4.743-11.509,6.843.974,1.954,3.509,2.55C262.176,473.194,261.054,469.527,258.108,468.551Z" transform="translate(-202.294 -449.742)" fill="#5d5d5d"/>
        <path id="Trazado_1511-2" data-name="Trazado 1511" d="M230.511,475.9s7.721-12.258,13.7-12.107c-1.291-4.031-1.876-7.869-5.273-7.658a40.837,40.837,0,0,0-7.313,1.383C233.04,458.759,230.511,475.9,230.511,475.9Z" transform="translate(-202.4 -449.797)" fill="#5d5d5d"/>
      </g>
      <path id="Trazado_1512-2" data-name="Trazado 1512" d="M215.682,601.428l-15.045.753-42.375-.981s24.672,24.447,29.879,23.993,20.848.874,23.015-4.5c4.074-10.093,51.874-55.791,51.874-55.791Z" transform="translate(-116.905 -449.312)" fill="#bcbcbc"/>
      <g id="Grupo_3016-2" data-name="Grupo 3016" transform="translate(133.394 140.376)">
        <path id="Trazado_1513-2" data-name="Trazado 1513" d="M288.366,603.98c1.879-2.193,4.656-5.9,7.4-9.7l-2.508-4.7c-12.009,8.474-30.1,20.889-38.633,24.987C264.117,612.434,284.8,608.14,288.366,603.98Z" transform="translate(-249.869 -589.578)" fill="#bcbcbc"/>
        <path id="Trazado_1514-2" data-name="Trazado 1514" d="M250.676,615.826a11.814,11.814,0,0,0,3.972-1.372C250.685,615.344,248.672,615.857,250.676,615.826Z" transform="translate(-249.891 -589.467)" fill="#bcbcbc"/>
      </g>
      <path id="Trazado_1515-2" data-name="Trazado 1515" d="M270.633,576.057l-29.4,21.935-9.612,12.442s42.208-17.349,49-28.929c2.765-4.715,4.7-11.488,6.032-17.861l-3.712-6.058a9.469,9.469,0,0,1-1.116-2.659l-2.362-9.45-6.769-22.94,5.815,33.785A20.322,20.322,0,0,1,270.633,576.057Z" transform="translate(-116.578 -449.501)" fill="#9b9b9b"/>
      <path id="Trazado_1516-2" data-name="Trazado 1516" d="M189.182,503.971q-.3,0-.592-.015c-7.108-.36-12.309-3.8-12.1-8,.11-2.207,1.675-4.105,4.406-5.345a18.518,18.518,0,0,1,8.433-1.389c6.236.315,16.3,6.284,16.73,6.537l3.1,1.848-3.268,1.527C205.459,499.341,195.472,503.97,189.182,503.971Zm-.968-10.95a14.3,14.3,0,0,0-5.732,1.076c-1.3.592-2.134,1.38-2.169,2.057-.072,1.445,3.19,3.716,8.471,3.984,3.129.151,8.228-1.508,11.924-2.953-3.532-1.812-8.441-3.982-11.566-4.139h0Q188.676,493.021,188.214,493.021Z" transform="translate(-116.824 -449.65)" fill="#eab306"/>
      <path id="Trazado_1517-2" data-name="Trazado 1517" d="M207.11,499.257l-2.558-.42c-.993-.163-9.8-1.688-13.075-5.046a11.176,11.176,0,0,1-3.13-6.014,6.362,6.362,0,0,1,7.751-7.564,11.176,11.176,0,0,1,5.935,3.279c3.277,3.358,4.583,12.2,4.721,13.2Zm-12.464-15.349a2.61,2.61,0,0,0-1.863.661,3.064,3.064,0,0,0-.655,2.637,7.446,7.446,0,0,0,2.086,3.915c1.385,1.419,5.126,2.655,8.276,3.4-.668-3.169-1.811-6.942-3.192-8.358a7.448,7.448,0,0,0-3.863-2.183A4.545,4.545,0,0,0,194.645,483.908Z" transform="translate(-116.771 -449.69)" fill="#e8c100"/>
      <path id="Trazado_1518-2" data-name="Trazado 1518" d="M204.718,498.825c6.877,4.543,15.457,3.77,23.027,1.707a1.586,1.586,0,0,0-.843-3.056c-6.779,1.847-14.41,2.693-20.585-1.387-1.707-1.127-3.3,1.616-1.6,2.736Z" transform="translate(-116.701 -449.62)" fill="#e8c100"/>
    </g>
    <text id="BOLSA_2" data-name="BOLSA 2" transform="translate(283 2236)" fill="#111" font-size="20" font-family="CerebriSans-Bold, Cerebri Sans" font-weight="700"><tspan x="0" y="0">BOLSA 2</tspan></text>
    <text id="BOLSA_3" data-name="BOLSA 3" transform="translate(535 2236)" fill="#fff" font-size="20" font-family="CerebriSans-Bold, Cerebri Sans" font-weight="700"><tspan x="0" y="0">BOLSA 3</tspan></text>
  </g>
</svg>
