<svg xmlns="http://www.w3.org/2000/svg" xmlns:xlink="http://www.w3.org/1999/xlink" width="578.549" height="516.695" viewBox="0 0 578.549 516.695">
  <defs>
    <clipPath id="clip-path">
      <rect id="Rectángulo_1041" data-name="Rectángulo 1041" width="237.214" height="148.811" fill="none"/>
    </clipPath>
    <linearGradient id="linear-gradient" y1="0.5" x2="1" y2="0.5" gradientUnits="objectBoundingBox">
      <stop offset="0" stop-color="#ffe864"/>
      <stop offset="1" stop-color="#fa915d"/>
    </linearGradient>
    <linearGradient id="linear-gradient-2" x1="0.196" y1="0.003" x2="0.705" y2="1.239" xlink:href="#linear-gradient"/>
    <linearGradient id="linear-gradient-3" x1="-203.006" x2="-203.006" y2="1" gradientUnits="objectBoundingBox">
      <stop offset="0" stop-color="#e9e5d9"/>
      <stop offset="0.597" stop-color="#f9f8f7"/>
      <stop offset="1" stop-color="#d8d0bc"/>
    </linearGradient>
    <linearGradient id="linear-gradient-4" x1="-192.606" y1="0" x2="-192.606" xlink:href="#linear-gradient-3"/>
    <linearGradient id="linear-gradient-5" x1="-190.606" y1="0" x2="-190.606" xlink:href="#linear-gradient-3"/>
    <linearGradient id="linear-gradient-6" x1="-188.606" y1="0" x2="-188.606" xlink:href="#linear-gradient-3"/>
    <linearGradient id="linear-gradient-7" x1="-187.177" y1="0" x2="-187.177" xlink:href="#linear-gradient-3"/>
    <linearGradient id="linear-gradient-8" x1="-162.43" y1="0" x2="-162.43" xlink:href="#linear-gradient-3"/>
    <linearGradient id="linear-gradient-9" x1="0.5" x2="0.5" y2="1" gradientUnits="objectBoundingBox">
      <stop offset="0" stop-color="#9d9df6"/>
      <stop offset="1" stop-color="#8484fb"/>
    </linearGradient>
    <linearGradient id="linear-gradient-11" x1="0.5" x2="0.5" y2="1" gradientUnits="objectBoundingBox">
      <stop offset="0" stop-color="#afafef"/>
      <stop offset="1" stop-color="#9090fb"/>
    </linearGradient>
    <linearGradient id="linear-gradient-12" y1="0.5" x2="1" y2="0.5" gradientUnits="objectBoundingBox">
      <stop offset="0" stop-color="#5b2a8d"/>
      <stop offset="0.169" stop-color="#4a2785"/>
      <stop offset="0.427" stop-color="#38247d"/>
      <stop offset="0.697" stop-color="#2d2278"/>
      <stop offset="1" stop-color="#2a2277"/>
    </linearGradient>
    <linearGradient id="linear-gradient-14" x1="0.5" y1="0.206" x2="0.5" y2="1.206" gradientUnits="objectBoundingBox">
      <stop offset="0" stop-color="#e27787"/>
      <stop offset="1" stop-color="#cf4b7a"/>
    </linearGradient>
    <linearGradient id="linear-gradient-15" x1="0.5" x2="0.5" y2="1" gradientUnits="objectBoundingBox">
      <stop offset="0" stop-color="#df697b"/>
      <stop offset="1" stop-color="#be2773"/>
    </linearGradient>
    <linearGradient id="linear-gradient-16" x1="0.5" y1="-1.632" x2="0.5" y2="0.784" xlink:href="#linear-gradient-15"/>
    <linearGradient id="linear-gradient-17" y1="0" y2="1" xlink:href="#linear-gradient-14"/>
    <linearGradient id="linear-gradient-20" x1="0.5" y1="0" x2="0.5" y2="1" xlink:href="#linear-gradient-12"/>
    <linearGradient id="linear-gradient-21" x1="0.5" y1="-0.185" x2="0.5" y2="0.815" gradientUnits="objectBoundingBox">
      <stop offset="0" stop-color="#68acff"/>
      <stop offset="0.186" stop-color="#5a99ff"/>
      <stop offset="0.495" stop-color="#497fff"/>
      <stop offset="0.776" stop-color="#3e70ff"/>
      <stop offset="1" stop-color="#3b6bff"/>
    </linearGradient>
    <linearGradient id="linear-gradient-22" x1="0.5" x2="0.5" y2="1" gradientUnits="objectBoundingBox">
      <stop offset="0" stop-color="#878cf0"/>
      <stop offset="0.395" stop-color="#8385ea"/>
      <stop offset="0.953" stop-color="#7a72dc"/>
      <stop offset="1" stop-color="#7a71db"/>
    </linearGradient>
    <linearGradient id="linear-gradient-25" x1="0.5" x2="0.5" y2="1" gradientUnits="objectBoundingBox">
      <stop offset="0" stop-color="#878cf0"/>
      <stop offset="0.259" stop-color="#8385ea"/>
      <stop offset="0.627" stop-color="#7a72dc"/>
      <stop offset="1" stop-color="#6e59c9"/>
    </linearGradient>
  </defs>
  <g id="Grupo_4240" data-name="Grupo 4240" transform="translate(-482.338 -129.869)">
    <g id="Grupo_1448" data-name="Grupo 1448" transform="translate(441.753 205.836) rotate(-9)">
      <path id="Trazado_7440" data-name="Trazado 7440" d="M.893,199.258c9.98,99.228,162.3,274.515,264.532,264.233S381.09,261.252,371.108,162.026,270.164-9.305,167.932.976-9.086,100.031.893,199.258Z" transform="translate(111.767 0)" fill="#fefefe" opacity="0.64" style="isolation: isolate"/>
      <path id="Trazado_7441" data-name="Trazado 7441" d="M6.119,267.391c26.548,57.164,146.925,76.021,246.352,59.832s256.772-90.037,235.064-223.352C479.085,51.978,424.1-41.086,218.813,20.142,104.875,54.125-30.554,188.429,6.119,267.391Z" transform="translate(69.71 93.878)" fill="#fefefe" opacity="0.5" style="isolation: isolate"/>
      <path id="Trazado_7442" data-name="Trazado 7442" d="M0,123.644c0,99.405,178.922,207.979,277.625,207.979S482.377,223.049,482.377,123.644s-41.643-166.718-187.4-91.349C207.171,77.7,0,24.238,0,123.644Z" transform="translate(30.169 68.961)" fill="#fefefe" style="isolation: isolate"/>
      <path id="Trazado_7444" data-name="Trazado 7444" d="M58.706,52.323C64.377,41.77,54.67,10.686,38.957,2.242s-31.48,8.944-37.152,19.5,2.466,25.955,18.179,34.4S53.034,62.875,58.706,52.323Z" transform="translate(0 262.02)" fill="#fefefe" opacity="0.5" style="isolation: isolate"/>
      <path id="Trazado_7445" data-name="Trazado 7445" d="M.866,5.291c-3.518,6.558,4.112,26.716,15.1,32.613S37.12,33.2,40.639,26.64,38.108,9.989,27.125,4.093,4.385-1.266.866,5.291Z" transform="translate(471.616 43.145)" fill="#fefefe" opacity="0.5" style="isolation: isolate"/>
    </g>
    <g id="Grupo_4239" data-name="Grupo 4239">
      <g id="Grupo_3173" data-name="Grupo 3173" transform="translate(495.933 251.68)" style="mix-blend-mode: multiply;isolation: isolate">
        <g id="Grupo_3170" data-name="Grupo 3170" transform="translate(0 0)">
          <rect id="Rectángulo_1040" data-name="Rectángulo 1040" width="237.214" height="148.811" transform="translate(8.611 9.801)" fill="#f9fbfc"/>
          <g id="Grupo_3165" data-name="Grupo 3165" transform="translate(8.611 9.801)">
            <g id="Grupo_3164" data-name="Grupo 3164" clip-path="url(#clip-path)">
              <g id="Grupo_3161" data-name="Grupo 3161" transform="translate(-14.802 8.406)">
                <ellipse id="Elipse_554" data-name="Elipse 554" cx="60.698" cy="60.698" rx="60.698" ry="60.698" transform="translate(0 121.158) rotate(-86.405)" fill="#f0f5f7"/>
                <path id="Trazado_4942" data-name="Trazado 4942" d="M161.848,145.357l-28.756,32.216-2.709-55.026-1.806,36.692L105.54,132.892l22.811,30.95-1.727,35.082L97.888,171.529l28.537,31.419-3.746,76.1h15.409l-4.777-97.038Z" transform="translate(-65.999 -95.078)" fill="#dce8ef"/>
              </g>
              <g id="Grupo_3162" data-name="Grupo 3162" transform="translate(184.944 78.072)">
                <ellipse id="Elipse_555" data-name="Elipse 555" cx="27.915" cy="27.915" rx="27.915" ry="27.915" transform="matrix(0.079, -0.997, 0.997, 0.079, 0, 55.656)" fill="#f0f5f7"/>
                <path id="Trazado_4943" data-name="Trazado 4943" d="M342.375,197.994,329.15,212.81,327.9,187.5l-.831,16.875-10.595-12.117L326.969,206.5l-.794,16.134-13.215-12.6,13.124,14.45-1.723,35h7.087l-2.2-44.628Z" transform="translate(-297.869 -174.446)" fill="#dce8ef"/>
              </g>
              <g id="Grupo_3163" data-name="Grupo 3163" transform="translate(128.779 100.96)">
                <ellipse id="Elipse_556" data-name="Elipse 556" cx="17.711" cy="17.711" rx="17.711" ry="17.711" transform="translate(0 32.652) rotate(-67.195)" fill="#f0f5f7"/>
                <path id="Trazado_4944" data-name="Trazado 4944" d="M263.971,220.317l-8.39,9.4-.79-16.055-.527,10.706-6.722-7.688,6.656,9.03-.5,10.236-8.384-7.993,8.326,9.167-1.093,22.205h4.5l-1.394-28.314Z" transform="translate(-231.6 -201.242)" fill="#dce8ef"/>
              </g>
            </g>
          </g>
          <g id="Grupo_3169" data-name="Grupo 3169">
            <g id="Grupo_3166" data-name="Grupo 3166" transform="translate(8.611 10.877)">
              <path id="Trazado_4945" data-name="Trazado 4945" d="M315.485,223.933H77.8V81.638H315.485ZM82.9,218.83H310.381V86.742H82.9Z" transform="translate(-77.8 -81.638)" fill="#dce8ef"/>
            </g>
            <g id="Grupo_3167" data-name="Grupo 3167" transform="translate(124.051 13.429)">
              <rect id="Rectángulo_1042" data-name="Rectángulo 1042" width="6.805" height="137.192" fill="#dce8ef"/>
            </g>
            <g id="Grupo_3168" data-name="Grupo 3168" transform="translate(11.163 80.324)">
              <rect id="Rectángulo_1043" data-name="Rectángulo 1043" width="232.581" height="3.403" fill="#dce8ef"/>
            </g>
            <rect id="Rectángulo_1044" data-name="Rectángulo 1044" width="254.907" height="10.877" fill="#dce8ef"/>
            <rect id="Rectángulo_1045" data-name="Rectángulo 1045" width="254.907" height="10.877" transform="translate(0 153.173)" fill="#dce8ef"/>
          </g>
        </g>
        <g id="Grupo_3171" data-name="Grupo 3171" transform="translate(272.509 0.538)">
          <rect id="Rectángulo_1046" data-name="Rectángulo 1046" width="51.848" height="52.616" transform="translate(52.616 0) rotate(90)" fill="#dce8ef"/>
          <rect id="Rectángulo_1047" data-name="Rectángulo 1047" width="45.811" height="44.269" transform="translate(3.402 3.789)" fill="#fff"/>
          <rect id="Rectángulo_1048" data-name="Rectángulo 1048" width="33.556" height="33.321" transform="translate(9.53 9.263)" fill="#dce8ef"/>
        </g>
        <g id="Grupo_3172" data-name="Grupo 3172" transform="translate(272.509 69.452)">
          <rect id="Rectángulo_1049" data-name="Rectángulo 1049" width="51.848" height="52.616" transform="translate(52.616 0) rotate(90)" fill="#dce8ef"/>
          <rect id="Rectángulo_1050" data-name="Rectángulo 1050" width="45.811" height="44.268" transform="translate(3.402 3.789)" fill="#fff"/>
          <rect id="Rectángulo_1051" data-name="Rectángulo 1051" width="33.556" height="33.321" transform="translate(9.53 9.263)" fill="#dce8ef"/>
        </g>
      </g>
      <g id="Grupo_3224" data-name="Grupo 3224" transform="translate(486 313)">
        <g id="Grupo_3177" data-name="Grupo 3177" transform="translate(449.48 2.576)">
          <g id="Grupo_3174" data-name="Grupo 3174" transform="translate(23.212 19.601)">
            <rect id="Rectángulo_1052" data-name="Rectángulo 1052" width="2.192" height="43.091" fill="#56548c"/>
          </g>
          <path id="Trazado_4946" data-name="Trazado 4946" d="M614.842,242.008H593.214a8.346,8.346,0,0,0-8.346,8.346h38.319A8.345,8.345,0,0,0,614.842,242.008Z" transform="translate(-579.72 -179.316)" fill="url(#linear-gradient)"/>
          <g id="Grupo_3176" data-name="Grupo 3176">
            <g id="Grupo_3175" data-name="Grupo 3175" transform="translate(32.14 27.797)">
              <rect id="Rectángulo_1053" data-name="Rectángulo 1053" width="0.548" height="17.612" fill="#56548c"/>
            </g>
            <path id="Trazado_4947" data-name="Trazado 4947" d="M616.734,225.97h0a1.072,1.072,0,0,1-1.072-1.072v-3.915a1.072,1.072,0,0,1,1.072-1.071h0a1.071,1.071,0,0,1,1.071,1.071V224.9A1.071,1.071,0,0,1,616.734,225.97Z" transform="translate(-584.32 -176.016)" fill="#fbd15b"/>
            <path id="Trazado_4948" data-name="Trazado 4948" d="M627.432,202.992H578.816l9.705-34.684h29.2Z" transform="translate(-578.816 -168.307)" fill="url(#linear-gradient-2)"/>
            <path id="Trazado_4949" data-name="Trazado 4949" d="M623.383,168.307h-6.7l9.705,34.684h6.7Z" transform="translate(-584.473 -168.307)" fill="#c3d3dd" style="mix-blend-mode: multiply;isolation: isolate"/>
            <path id="Trazado_4950" data-name="Trazado 4950" d="M591.6,168.307h3.156l-9.705,34.684H581.9Z" transform="translate(-579.276 -168.307)" fill="#ffde8d"/>
          </g>
        </g>
        <g id="Grupo_3213" data-name="Grupo 3213" transform="translate(403.574 69.254)">
          <rect id="Rectángulo_1054" data-name="Rectángulo 1054" width="140.426" height="68.776" transform="translate(0)" fill="#dce8ef"/>
          <rect id="Rectángulo_1055" data-name="Rectángulo 1055" width="129.066" height="36.499" transform="translate(134.746 153.68) rotate(180)" fill="#c3d3dd"/>
          <path id="Trazado_4951" data-name="Trazado 4951" d="M535.754,389.122h124.84v-4.547H531.528v36.288h4.226Z" transform="translate(-525.847 -267.289)" fill="#e6e7e8" style="mix-blend-mode: multiply;isolation: isolate"/>
          <rect id="Rectángulo_1056" data-name="Rectángulo 1056" width="140.426" height="13.713" transform="translate(140.426 173.399) rotate(180)" fill="#c3d3dd"/>
          <path id="Trazado_4952" data-name="Trazado 4952" d="M524.85,327.546v90.91H665.276v-90.91Zm134.746,84.8H530.531V376.057H659.6Zm0-42.4H530.531V333.658H659.6Z" transform="translate(-524.85 -258.771)" fill="#dce8ef"/>
          <g id="Grupo_3178" data-name="Grupo 3178" transform="translate(5.68 74.676)">
            <rect id="Rectángulo_1057" data-name="Rectángulo 1057" width="129.066" height="36.499" transform="translate(129.066 36.499) rotate(180)" fill="#c3d3dd"/>
            <path id="Trazado_4953" data-name="Trazado 4953" d="M535.754,339.277h124.84v-4.547H531.528v36.288h4.226Z" transform="translate(-531.528 -334.52)" fill="#e6e7e8" style="mix-blend-mode: multiply;isolation: isolate"/>
            <path id="Rectángulo_1058" data-name="Rectángulo 1058" d="M6.471,0H17.326A6.471,6.471,0,0,1,23.8,6.471v0a0,0,0,0,1,0,0H0a0,0,0,0,1,0,0v0A6.471,6.471,0,0,1,6.471,0Z" transform="translate(76.431 21.485) rotate(180)" fill="#dce8ef"/>
          </g>
          <g id="Grupo_3179" data-name="Grupo 3179" transform="translate(5.68 5.906)">
            <rect id="Rectángulo_1059" data-name="Rectángulo 1059" width="129.066" height="62.018" transform="translate(129.066 62.018) rotate(180)" fill="#c3d3dd"/>
            <path id="Trazado_4954" data-name="Trazado 4954" d="M535.754,258.431h124.84v-4.547H531.528v61.807h4.226Z" transform="translate(-531.528 -253.674)" fill="#e6e7e8" style="mix-blend-mode: multiply;isolation: isolate"/>
          </g>
          <path id="Rectángulo_1060" data-name="Rectángulo 1060" d="M6.471,0H17.326A6.471,6.471,0,0,1,23.8,6.471v0a0,0,0,0,1,0,0H0a0,0,0,0,1,0,0v0A6.471,6.471,0,0,1,6.471,0Z" transform="translate(82.112 138.666) rotate(180)" fill="#dce8ef"/>
          <g id="Grupo_3212" data-name="Grupo 3212" transform="translate(13.192 14.265)">
            <g id="Grupo_3181" data-name="Grupo 3181" transform="translate(115.985 9.845)">
              <g id="Grupo_3180" data-name="Grupo 3180" transform="translate(0)">
                <rect id="Rectángulo_1061" data-name="Rectángulo 1061" width="43.814" height="5.569" transform="translate(5.569) rotate(90)" fill="#fbd15b"/>
                <rect id="Rectángulo_1062" data-name="Rectángulo 1062" width="3.545" height="14.721" transform="translate(1.012 27.964)" fill="#f9df9b"/>
                <rect id="Rectángulo_1063" data-name="Rectángulo 1063" width="1.256" height="5.569" transform="translate(5.569 2.315) rotate(90)" fill="#f9df9b"/>
                <rect id="Rectángulo_1064" data-name="Rectángulo 1064" width="1.256" height="5.569" transform="translate(5.569 4.946) rotate(90)" fill="#f9df9b"/>
              </g>
              <rect id="Rectángulo_1065" data-name="Rectángulo 1065" width="43.814" height="2.785" transform="translate(5.569 0) rotate(90)" fill="#e6e7e8" style="mix-blend-mode: multiply;isolation: isolate"/>
            </g>
            <g id="Grupo_3183" data-name="Grupo 3183" transform="translate(66.143 9.845)">
              <g id="Grupo_3182" data-name="Grupo 3182" transform="translate(0)">
                <rect id="Rectángulo_1066" data-name="Rectángulo 1066" width="43.814" height="5.569" transform="translate(5.569 0) rotate(90)" fill="#fbd15b"/>
                <rect id="Rectángulo_1067" data-name="Rectángulo 1067" width="3.545" height="14.721" transform="translate(1.012 27.964)" fill="#f9df9b"/>
                <rect id="Rectángulo_1068" data-name="Rectángulo 1068" width="1.256" height="5.569" transform="translate(5.569 2.315) rotate(90)" fill="#f9df9b"/>
                <rect id="Rectángulo_1069" data-name="Rectángulo 1069" width="1.256" height="5.569" transform="translate(5.569 4.946) rotate(90)" fill="#f9df9b"/>
              </g>
              <rect id="Rectángulo_1070" data-name="Rectángulo 1070" width="43.814" height="2.784" transform="translate(5.569 0) rotate(90)" fill="#e6e7e8" style="mix-blend-mode: multiply;isolation: isolate"/>
            </g>
            <g id="Grupo_3185" data-name="Grupo 3185" transform="translate(36.824 9.845)">
              <g id="Grupo_3184" data-name="Grupo 3184" transform="translate(0 0)">
                <rect id="Rectángulo_1071" data-name="Rectángulo 1071" width="43.814" height="5.569" transform="translate(5.569 0) rotate(90)" fill="#ec827d"/>
                <rect id="Rectángulo_1072" data-name="Rectángulo 1072" width="3.545" height="14.721" transform="translate(1.012 27.964)" fill="#db6565"/>
                <rect id="Rectángulo_1073" data-name="Rectángulo 1073" width="1.256" height="5.569" transform="translate(5.569 2.315) rotate(90)" fill="#db6565"/>
                <rect id="Rectángulo_1074" data-name="Rectángulo 1074" width="1.256" height="5.569" transform="translate(5.569 4.946) rotate(90)" fill="#db6565"/>
              </g>
              <rect id="Rectángulo_1075" data-name="Rectángulo 1075" width="43.814" height="2.784" transform="translate(5.569 0) rotate(90)" fill="#e6e7e8" style="mix-blend-mode: multiply;isolation: isolate"/>
            </g>
            <g id="Grupo_3187" data-name="Grupo 3187" transform="translate(31.255 9.845)">
              <g id="Grupo_3186" data-name="Grupo 3186" transform="translate(0)">
                <rect id="Rectángulo_1076" data-name="Rectángulo 1076" width="43.814" height="5.569" transform="translate(5.569 0) rotate(90)" fill="#606bf1"/>
                <rect id="Rectángulo_1077" data-name="Rectángulo 1077" width="3.545" height="14.721" transform="translate(1.012 27.964)" fill="#56548c"/>
                <rect id="Rectángulo_1078" data-name="Rectángulo 1078" width="1.256" height="5.569" transform="translate(5.569 2.315) rotate(90)" fill="#56548c"/>
                <rect id="Rectángulo_1079" data-name="Rectángulo 1079" width="1.256" height="5.569" transform="translate(5.569 4.946) rotate(90)" fill="#56548c"/>
              </g>
              <rect id="Rectángulo_1080" data-name="Rectángulo 1080" width="43.814" height="2.785" transform="translate(5.569 0) rotate(90)" fill="#e6e7e8" style="mix-blend-mode: multiply;isolation: isolate"/>
            </g>
            <g id="Grupo_3190" data-name="Grupo 3190" transform="translate(99.395 0)">
              <g id="Grupo_3189" data-name="Grupo 3189" transform="translate(0 0)">
                <g id="Grupo_3188" data-name="Grupo 3188">
                  <rect id="Rectángulo_1081" data-name="Rectángulo 1081" width="7.917" height="53.659" fill="#ec827d"/>
                  <rect id="Rectángulo_1082" data-name="Rectángulo 1082" width="7.917" height="53.659" fill="url(#linear-gradient-3)" style="mix-blend-mode: multiply;isolation: isolate"/>
                </g>
                <rect id="Rectángulo_1083" data-name="Rectángulo 1083" width="5.04" height="20.213" transform="translate(1.438 16.723)" fill="#f2a5a5"/>
                <ellipse id="Elipse_557" data-name="Elipse 557" cx="2.52" cy="2.52" rx="2.52" ry="2.52" transform="translate(1.438 41.174)" fill="#f2a5a5"/>
              </g>
              <rect id="Rectángulo_1084" data-name="Rectángulo 1084" width="53.659" height="3.958" transform="translate(7.917) rotate(90)" fill="#e6e7e8" style="mix-blend-mode: multiply;isolation: isolate"/>
            </g>
            <g id="Grupo_3193" data-name="Grupo 3193" transform="translate(58.227 0)">
              <g id="Grupo_3192" data-name="Grupo 3192" transform="translate(0 0)">
                <g id="Grupo_3191" data-name="Grupo 3191">
                  <rect id="Rectángulo_1085" data-name="Rectángulo 1085" width="7.917" height="53.659" fill="#ec827d"/>
                  <rect id="Rectángulo_1086" data-name="Rectángulo 1086" width="7.917" height="53.659" fill="url(#linear-gradient-4)" style="mix-blend-mode: multiply;isolation: isolate"/>
                </g>
                <rect id="Rectángulo_1087" data-name="Rectángulo 1087" width="5.04" height="20.213" transform="translate(1.438 16.723)" fill="#f2a5a5"/>
                <path id="Trazado_4955" data-name="Trazado 4955" d="M613.021,316.907a2.52,2.52,0,1,0-2.52-2.52A2.519,2.519,0,0,0,613.021,316.907Z" transform="translate(-609.062 -270.694)" fill="#f2a5a5"/>
              </g>
              <rect id="Rectángulo_1088" data-name="Rectángulo 1088" width="53.659" height="3.958" transform="translate(7.917) rotate(90)" fill="#e6e7e8" style="mix-blend-mode: multiply;isolation: isolate"/>
            </g>
            <g id="Grupo_3196" data-name="Grupo 3196" transform="translate(50.31 0)">
              <g id="Grupo_3195" data-name="Grupo 3195" transform="translate(0 0)">
                <g id="Grupo_3194" data-name="Grupo 3194">
                  <rect id="Rectángulo_1089" data-name="Rectángulo 1089" width="7.917" height="53.659" fill="#606bf1"/>
                  <rect id="Rectángulo_1090" data-name="Rectángulo 1090" width="7.917" height="53.659" fill="url(#linear-gradient-5)" style="mix-blend-mode: multiply;isolation: isolate"/>
                </g>
                <rect id="Rectángulo_1091" data-name="Rectángulo 1091" width="5.04" height="20.213" transform="translate(1.438 16.723)" fill="#56548c"/>
                <ellipse id="Elipse_558" data-name="Elipse 558" cx="2.52" cy="2.52" rx="2.52" ry="2.52" transform="translate(1.438 41.174)" fill="#56548c"/>
              </g>
              <rect id="Rectángulo_1092" data-name="Rectángulo 1092" width="53.659" height="3.958" transform="translate(7.917 0) rotate(90)" fill="#e6e7e8" style="mix-blend-mode: multiply;isolation: isolate"/>
            </g>
            <g id="Grupo_3199" data-name="Grupo 3199" transform="translate(42.393 0)">
              <g id="Grupo_3198" data-name="Grupo 3198" transform="translate(0 0)">
                <g id="Grupo_3197" data-name="Grupo 3197">
                  <rect id="Rectángulo_1093" data-name="Rectángulo 1093" width="7.917" height="53.659" fill="#606bf1"/>
                  <rect id="Rectángulo_1094" data-name="Rectángulo 1094" width="7.917" height="53.659" fill="url(#linear-gradient-6)" style="mix-blend-mode: multiply;isolation: isolate"/>
                </g>
                <rect id="Rectángulo_1095" data-name="Rectángulo 1095" width="5.04" height="20.213" transform="translate(1.438 16.723)" fill="#56548c"/>
                <ellipse id="Elipse_559" data-name="Elipse 559" cx="2.52" cy="2.52" rx="2.52" ry="2.52" transform="translate(1.438 41.174)" fill="#56548c"/>
              </g>
              <rect id="Rectángulo_1096" data-name="Rectángulo 1096" width="53.659" height="3.958" transform="translate(7.917 0) rotate(90)" fill="#e6e7e8" style="mix-blend-mode: multiply;isolation: isolate"/>
            </g>
            <g id="Grupo_3201" data-name="Grupo 3201" transform="translate(87.2 13.122)">
              <g id="Grupo_3200" data-name="Grupo 3200" transform="translate(0 0)">
                <rect id="Rectángulo_1097" data-name="Rectángulo 1097" width="40.537" height="12.196" transform="translate(12.196) rotate(90)" fill="#606bf1"/>
                <rect id="Rectángulo_1098" data-name="Rectángulo 1098" width="1.102" height="12.196" transform="translate(12.196 34.187) rotate(90)" fill="#878cf0"/>
                <rect id="Rectángulo_1099" data-name="Rectángulo 1099" width="7.764" height="18.343" transform="translate(2.216 13.724)" fill="#878cf0"/>
                <path id="Trazado_4956" data-name="Trazado 4956" d="M649.336,290.942a4.005,4.005,0,1,0-4.006-4.006A4.006,4.006,0,0,0,649.336,290.942Z" transform="translate(-643.238 -279.494)" fill="#878cf0"/>
              </g>
              <rect id="Rectángulo_1100" data-name="Rectángulo 1100" width="40.537" height="6.098" transform="translate(12.196 0) rotate(90)" fill="#e6e7e8" style="mix-blend-mode: multiply;isolation: isolate"/>
            </g>
            <g id="Grupo_3203" data-name="Grupo 3203" transform="translate(71.712 13.122)">
              <g id="Grupo_3202" data-name="Grupo 3202" transform="translate(0 0)">
                <rect id="Rectángulo_1101" data-name="Rectángulo 1101" width="40.537" height="12.196" transform="translate(12.196) rotate(90)" fill="#56548c"/>
                <rect id="Rectángulo_1102" data-name="Rectángulo 1102" width="1.102" height="12.196" transform="translate(12.196 34.187) rotate(90)" fill="#878cf0"/>
                <rect id="Rectángulo_1103" data-name="Rectángulo 1103" width="7.764" height="18.343" transform="translate(2.216 13.724)" fill="#878cf0"/>
                <path id="Trazado_4957" data-name="Trazado 4957" d="M631.129,290.942a4.005,4.005,0,1,0-4.006-4.006A4.006,4.006,0,0,0,631.129,290.942Z" transform="translate(-625.031 -279.494)" fill="#878cf0"/>
              </g>
              <rect id="Rectángulo_1104" data-name="Rectángulo 1104" width="40.537" height="6.098" transform="translate(12.196 0) rotate(90)" fill="#e6e7e8" style="mix-blend-mode: multiply;isolation: isolate"/>
            </g>
            <g id="Grupo_3206" data-name="Grupo 3206" transform="translate(107.312 7.972)">
              <g id="Grupo_3205" data-name="Grupo 3205" transform="translate(0)">
                <g id="Grupo_3204" data-name="Grupo 3204" transform="translate(0)">
                  <rect id="Rectángulo_1105" data-name="Rectángulo 1105" width="8.673" height="45.687" fill="#56548c"/>
                  <rect id="Rectángulo_1106" data-name="Rectángulo 1106" width="8.673" height="45.687" fill="url(#linear-gradient-7)" style="mix-blend-mode: multiply;isolation: isolate"/>
                </g>
                <rect id="Rectángulo_1107" data-name="Rectángulo 1107" width="6.649" height="20.81" transform="translate(7.661 33.249) rotate(180)" fill="#606bf1"/>
                <rect id="Rectángulo_1108" data-name="Rectángulo 1108" width="8.673" height="1.073" transform="translate(8.673 41.821) rotate(180)" fill="#606bf1"/>
                <rect id="Rectángulo_1109" data-name="Rectángulo 1109" width="8.673" height="1.073" transform="translate(8.673 4.94) rotate(180)" fill="#606bf1"/>
              </g>
              <rect id="Rectángulo_1110" data-name="Rectángulo 1110" width="45.687" height="4.336" transform="translate(8.673 0) rotate(90)" fill="#e6e7e8" style="mix-blend-mode: multiply;isolation: isolate"/>
            </g>
            <g id="Grupo_3208" data-name="Grupo 3208" transform="translate(8.673 9.845)">
              <g id="Grupo_3207" data-name="Grupo 3207" transform="translate(0)">
                <rect id="Rectángulo_1111" data-name="Rectángulo 1111" width="43.814" height="5.569" transform="translate(5.569) rotate(90)" fill="#606bf1"/>
                <rect id="Rectángulo_1112" data-name="Rectángulo 1112" width="3.545" height="14.721" transform="translate(1.012 27.964)" fill="#56548c"/>
                <rect id="Rectángulo_1113" data-name="Rectángulo 1113" width="1.256" height="5.569" transform="translate(5.569 2.315) rotate(90)" fill="#56548c"/>
                <rect id="Rectángulo_1114" data-name="Rectángulo 1114" width="1.256" height="5.569" transform="translate(5.569 4.946) rotate(90)" fill="#56548c"/>
              </g>
              <rect id="Rectángulo_1115" data-name="Rectángulo 1115" width="43.814" height="2.785" transform="translate(5.569 0) rotate(90)" fill="#e6e7e8" style="mix-blend-mode: multiply;isolation: isolate"/>
            </g>
            <g id="Grupo_3211" data-name="Grupo 3211" transform="translate(0 7.972)">
              <g id="Grupo_3210" data-name="Grupo 3210">
                <g id="Grupo_3209" data-name="Grupo 3209">
                  <rect id="Rectángulo_1116" data-name="Rectángulo 1116" width="8.673" height="45.687" fill="#56548c"/>
                  <rect id="Rectángulo_1117" data-name="Rectángulo 1117" width="8.673" height="45.687" fill="url(#linear-gradient-8)" style="mix-blend-mode: multiply;isolation: isolate"/>
                </g>
                <rect id="Rectángulo_1118" data-name="Rectángulo 1118" width="6.649" height="20.81" transform="translate(7.661 33.249) rotate(180)" fill="#606bf1"/>
                <rect id="Rectángulo_1119" data-name="Rectángulo 1119" width="8.673" height="1.073" transform="translate(8.673 41.821) rotate(180)" fill="#606bf1"/>
                <rect id="Rectángulo_1120" data-name="Rectángulo 1120" width="8.673" height="1.073" transform="translate(8.673 4.94) rotate(180)" fill="#606bf1"/>
              </g>
              <rect id="Rectángulo_1121" data-name="Rectángulo 1121" width="45.687" height="4.336" transform="translate(8.673 0) rotate(90)" fill="#e6e7e8" style="mix-blend-mode: multiply;isolation: isolate"/>
            </g>
          </g>
        </g>
        <g id="Grupo_3218" data-name="Grupo 3218" transform="translate(0 86.418)">
          <g id="Grupo_3217" data-name="Grupo 3217">
            <g id="Grupo_3214" data-name="Grupo 3214" transform="translate(47.029 19.806)">
              <path id="Trazado_4958" data-name="Trazado 4958" d="M134.064,338.566c-2.161,10.485-1.509,28.343-15.379,31.171-3.735.762-7.343-1.827-9.513-4.794-2.841-3.881-3.522-12.1-3.471-16.8.039-3.726,1.309-7.879,1.718-11.637.441-4.059.8-8.127,1.274-12.183,1.706-14.618,9.343-26.87,22.26-34.167,1,4.8,3.279,8.86,5.288,13.467a47.856,47.856,0,0,1,2.338,6.518c1.056,3.9-.221,7.837-1.17,11.57C136.008,327.232,135.215,332.984,134.064,338.566Z" transform="translate(-105.697 -290.156)" fill="url(#linear-gradient-9)"/>
              <path id="Trazado_4959" data-name="Trazado 4959" d="M116.777,371.01q.147-1.319.322-2.638a11.283,11.283,0,0,0,4.774-1.667,25.382,25.382,0,0,0,6.265-4.961c.1-.1-.07-.268-.178-.177a28.215,28.215,0,0,1-6.1,4.175,17.207,17.207,0,0,1-4.634,1.725q.218-1.575.481-3.142c1.726-.211,3.306-1.345,4.767-2.212a54.57,54.57,0,0,0,6.833-5.217.025.025,0,0,0-.031-.04c-3.387,2.46-7.16,5.96-11.444,6.728.226-1.31.467-2.617.742-3.914l.043-.2c4.958-1.254,8.312-5.143,12.109-8.286.061-.051,0-.157-.07-.105-3.739,2.9-7.251,6.217-11.872,7.625.4-1.856.817-3.707,1.237-5.556a26.45,26.45,0,0,0,11.2-7.944c.052-.061-.034-.147-.091-.088-3.245,3.378-6.82,5.318-10.934,7.241.414-1.831.826-3.661,1.216-5.5,1.94-.955,3.982-1.536,5.775-2.791a15.783,15.783,0,0,0,4.492-4.555.088.088,0,0,0-.149-.1c-2.51,3.608-6.294,4.731-9.952,6.629q.535-2.566.986-5.151c4.076-2.244,8.5-4.325,10.814-8.625.023-.042-.037-.084-.063-.042-2.447,3.951-6.723,5.652-10.606,7.8.051-.308.106-.613.155-.922.25-1.6.483-3.2.713-4.8a39.188,39.188,0,0,0,6.682-3.634,12.745,12.745,0,0,0,4.073-3.469.089.089,0,0,0-.145-.1c-2.186,3.132-6.973,4.943-10.51,6.51q.346-2.428.688-4.855c3.923-2.375,8.539-3.687,10.954-7.966a.114.114,0,0,0-.194-.12c-2.5,3.907-6.9,5.112-10.652,7.33q.217-1.5.442-3.006c4.236-1.558,9.163-5.1,11.4-8.935a.19.19,0,0,0-.32-.2,23.77,23.77,0,0,1-10.953,8.343c.25-1.623.512-3.244.8-4.861a.463.463,0,0,0,.063-.144,24.285,24.285,0,0,0,5.424-2.914,14.824,14.824,0,0,0,5.1-4.648c.136-.222-.225-.427-.352-.2-1.882,3.358-6.348,5.609-10.046,6.892.109-.589.216-1.181.333-1.769q.262-1.322.534-2.641c1.514-1.045,3.436-1.546,4.956-2.651a28.027,28.027,0,0,0,3.607-3.287c.113-.117-.054-.3-.173-.184a23.843,23.843,0,0,1-4.979,3.824c-1.044.558-2.235.877-3.245,1.489.3-1.439.589-2.879.872-4.32l.054-.012.054.011a.266.266,0,0,0,.248-.077c2.058-.519,3.633-2.292,5.016-3.8a.038.038,0,0,0-.053-.054,13.744,13.744,0,0,1-5.045,3.4c-.008,0-.013-.007-.021-.008l-.147-.024q.338-1.759.635-3.526a.269.269,0,0,0,.243-.3,21.593,21.593,0,0,0,3.013-2.58.076.076,0,0,0-.1-.111,17.616,17.616,0,0,1-3.01,2.124,72.852,72.852,0,0,0,.818-7.349c.013-.229-.333-.231-.354-.006-.216,2.378-.561,4.733-.97,7.076a21.845,21.845,0,0,1-3.093-4.729c-.037-.088-.176-.053-.146.043a13.573,13.573,0,0,0,1.5,2.927,18.056,18.056,0,0,0,1.594,2.571q-.342,1.887-.734,3.766a6.941,6.941,0,0,1-3.786-1.483,6.867,6.867,0,0,1-2.326-4.731c-.017-.227-.375-.225-.354,0a7.827,7.827,0,0,0,2.013,4.609,7.367,7.367,0,0,0,4.346,2.119q-.454,2.17-.933,4.337a33.812,33.812,0,0,1-3.549-2.635c-1.823-1.454-2.9-3.2-4.484-4.839-.158-.164-.418.072-.261.239,1.483,1.577,2.486,3.285,4.175,4.7a23.985,23.985,0,0,0,4,3.053c-.017.076-.034.152-.05.229-.016.014-.033.026-.048.041a.234.234,0,0,0-.032.323c-.3,1.384-.608,2.768-.9,4.154-.019.087-.034.174-.052.26-3.226-1.477-8.047-4.043-8.474-7.785a.252.252,0,1,0-.491.107c.954,4.235,5.61,6.113,8.817,8.422q-.475,2.352-.872,4.717a19.087,19.087,0,0,1-5.815-3c-1.591-1.266-3.841-2.792-4.558-4.752-.023-.062-.114-.021-.094.039.664,1.949,2.683,3.288,4.152,4.617a15.533,15.533,0,0,0,6.17,3.795.439.439,0,0,0-.006.21q-.245,1.5-.475,3c-3.918-.3-9.4-3.276-11.4-6.239-.009-.014-.029,0-.02.014a12.853,12.853,0,0,0,5.758,4.73,15.89,15.89,0,0,0,5.584,2.016c-.281,1.853-.553,3.71-.829,5.564-1.7-.634-3.5-.937-5.183-1.61a12.83,12.83,0,0,1-5.882-5.009c-.089-.133-.311-.021-.224.118,2.713,4.312,6.614,5.578,11.185,7.192q-.342,2.283-.717,4.56c-3.741-.717-8.579-3-10.472-6.25-.139-.238-.519-.04-.38.2a12.139,12.139,0,0,0,5.357,4.46c1.513.764,3.6,2.031,5.4,2.167-.008.05-.015.1-.024.15-.37,2.185-.8,4.359-1.268,6.525-4.179-1.05-6.881-4.146-9.918-7.044-.212-.2-.541.106-.332.312,3.095,3.045,5.812,6.241,10.112,7.367q-.579,2.644-1.222,5.275a19.31,19.31,0,0,1-9.384-6.422c-.163-.206-.45.073-.3.277a20.774,20.774,0,0,0,9.515,6.826q-.693,2.824-1.422,5.637c-3.657-.556-6.474-2.846-8.726-5.739-.053-.067-.171.021-.121.091,2,2.784,5.028,6,8.669,6.336q-.231.9-.464,1.8-.14.542-.29,1.1a20.765,20.765,0,0,1-7.592-3.66c-.065-.052-.137.047-.077.1a19.816,19.816,0,0,0,7.519,4.11c-.307,1.127-.631,2.286-.951,3.466a15.493,15.493,0,0,0-2.093-.892,15.028,15.028,0,0,1-3.454-2c-.11-.066-.233.088-.123.161a15.722,15.722,0,0,0,2.981,2.014c.886.333,1.72.759,2.576,1.138-1.257,4.684-2.368,9.663-1.765,14.16.134,1,1.807,1.262,2.065.2C116.446,377.823,116.406,374.341,116.777,371.01Z" transform="translate(-106.137 -291.074)" fill="#7a7df5"/>
            </g>
            <g id="Grupo_3215" data-name="Grupo 3215" transform="translate(0 22.641)">
              <path id="Trazado_4960" data-name="Trazado 4960" d="M81.913,336.063c2.466,10.417,10.593,26.332-.787,34.75-3.065,2.267-7.428,1.443-10.648-.331-4.214-2.321-8.3-9.484-10.237-13.766-1.537-3.394-2.138-7.7-3.354-11.275-1.313-3.866-2.7-7.706-3.986-11.582-4.623-13.972-2.871-28.3,5.76-40.37,2.931,3.928,6.712,6.648,10.478,9.977a47.835,47.835,0,0,1,4.871,4.921c2.6,3.089,3.107,7.2,3.823,10.983C78.891,324.967,80.6,330.517,81.913,336.063Z" transform="translate(-50.41 -293.489)" fill="url(#linear-gradient-9)"/>
              <path id="Trazado_4961" data-name="Trazado 4961" d="M79.551,373.1q-.424-1.258-.821-2.527a11.3,11.3,0,0,0,3.625-3.526A25.4,25.4,0,0,0,85.94,359.9c.048-.135-.176-.213-.236-.085a28.209,28.209,0,0,1-3.768,6.359,17.2,17.2,0,0,1-3.472,3.52q-.467-1.52-.891-3.052c1.475-.92,2.429-2.614,3.388-4.017a54.577,54.577,0,0,0,3.994-7.613.026.026,0,0,0-.045-.024c-2.033,3.659-3.976,8.426-7.536,10.929-.347-1.283-.681-2.569-.979-3.861l-.046-.2c3.966-3.23,5.365-8.17,7.48-12.623.035-.072-.07-.139-.107-.066-2.164,4.21-3.949,8.7-7.545,11.924-.42-1.852-.823-3.706-1.224-5.56a26.451,26.451,0,0,0,6.805-11.93c.021-.078-.093-.12-.119-.043-1.517,4.433-3.938,7.7-6.858,11.179-.4-1.835-.8-3.667-1.217-5.5,1.357-1.684,2.962-3.072,4.058-4.967a15.782,15.782,0,0,0,2.15-6.026.088.088,0,0,0-.175-.024c-.753,4.331-3.71,6.946-6.224,10.21-.4-1.7-.822-3.4-1.28-5.087,2.748-3.755,5.885-7.509,6.163-12.383,0-.048-.069-.061-.075-.012-.55,4.615-3.709,7.963-6.32,11.552-.084-.3-.162-.6-.249-.9-.448-1.556-.913-3.107-1.381-4.656a39.118,39.118,0,0,0,4.524-6.115,12.729,12.729,0,0,0,2.229-4.863.089.089,0,0,0-.174-.031c-.661,3.761-4.236,7.423-6.78,10.336q-.712-2.346-1.426-4.692c2.554-3.808,6.185-6.946,6.568-11.845a.114.114,0,0,0-.226-.026c-.618,4.6-4.1,7.548-6.563,11.142q-.439-1.456-.868-2.913c3.183-3.2,6.152-8.5,6.562-12.91a.19.19,0,0,0-.376-.05,23.781,23.781,0,0,1-6.409,12.186c-.458-1.577-.905-3.158-1.326-4.746a.441.441,0,0,0,0-.156,24.3,24.3,0,0,0,3.688-4.931,14.842,14.842,0,0,0,2.662-6.368.2.2,0,0,0-.4-.031c-.289,3.839-3.388,7.764-6.2,10.488-.151-.581-.3-1.161-.446-1.744q-.32-1.309-.63-2.621c.931-1.586,2.463-2.851,3.374-4.494a28.1,28.1,0,0,0,1.883-4.5.126.126,0,0,0-.235-.094,23.818,23.818,0,0,1-2.9,5.568c-.71.947-1.655,1.739-2.313,2.72-.339-1.43-.68-2.859-1.033-4.284l.043-.034.054-.013a.264.264,0,0,0,.192-.174c1.647-1.34,2.326-3.612,2.943-5.564a.038.038,0,0,0-.071-.026,13.738,13.738,0,0,1-3.137,5.214c-.008,0-.014,0-.022,0l-.144.042q-.435-1.739-.912-3.465a.27.27,0,0,0,.094-.377,21.729,21.729,0,0,0,1.643-3.611.076.076,0,0,0-.14-.058,17.587,17.587,0,0,1-1.832,3.2,73.08,73.08,0,0,0-2.36-7.008c-.085-.213-.4-.069-.324.144.808,2.247,1.489,4.528,2.108,6.825a21.887,21.887,0,0,1-4.8-2.981c-.07-.065-.182.026-.114.1a13.528,13.528,0,0,0,2.6,2.019,17.906,17.906,0,0,0,2.53,1.659q.486,1.855.924,3.724a6.461,6.461,0,0,1-8.164-3.054c-.111-.2-.435-.046-.321.151a7.835,7.835,0,0,0,3.771,3.329,7.371,7.371,0,0,0,4.834.087q.505,2.159.985,4.325a33.744,33.744,0,0,1-4.33-.891c-2.266-.549-3.981-1.679-6.107-2.495a.177.177,0,0,0-.136.327c2.011.8,3.641,1.928,5.769,2.5a24.009,24.009,0,0,0,4.919,1.078l.051.228c-.008.02-.019.037-.026.058a.232.232,0,0,0,.107.306c.308,1.383.617,2.766.937,4.146.02.087.043.173.063.259-3.548.023-9-.269-10.968-3.481-.187-.306-.628.008-.4.3,2.652,3.437,7.665,3.174,11.546,3.914q.564,2.332,1.2,4.644a19.081,19.081,0,0,1-6.535-.261c-1.976-.475-4.661-.909-6.137-2.384-.047-.046-.112.029-.068.076,1.424,1.486,3.82,1.848,5.713,2.433a15.538,15.538,0,0,0,7.195.836.432.432,0,0,0,.083.193q.41,1.464.835,2.923c-3.679,1.381-9.9,1-12.97-.845-.014-.008-.025.013-.012.022a12.851,12.851,0,0,0,7.216,1.858,15.885,15.885,0,0,0,5.914-.529c.527,1.8,1.064,3.6,1.6,5.395-1.808.144-3.568.628-5.378.727a12.84,12.84,0,0,1-7.447-2.058c-.137-.084-.291.111-.153.2,4.28,2.765,8.351,2.265,13.176,1.8q.653,2.215,1.274,4.437c-3.694.93-9.045.9-12.132-1.245-.226-.158-.487.182-.259.342a12.132,12.132,0,0,0,6.74,1.782c1.694.054,4.119.323,5.811-.315.013.048.027.1.041.145.587,2.138,1.113,4.291,1.6,6.451-4.232.812-7.987-.855-11.964-2.2-.276-.094-.446.324-.168.423,4.091,1.455,7.9,3.2,12.276,2.411q.591,2.641,1.119,5.3a19.314,19.314,0,0,1-11.219-1.861c-.235-.118-.377.256-.15.375a20.772,20.772,0,0,0,11.507,2.172q.563,2.852,1.089,5.711c-3.55,1.039-7.07.152-10.333-1.521-.076-.038-.145.091-.071.134,2.988,1.679,7.089,3.316,10.533,2.085q.168.912.338,1.825c.068.367.134.74.2,1.117a20.759,20.759,0,0,1-8.427-.114c-.08-.02-.1.1-.027.124a19.792,19.792,0,0,0,8.551.553c.2,1.152.392,2.339.6,3.545a15.369,15.369,0,0,0-2.275.075,15.039,15.039,0,0,1-3.974-.353c-.127-.014-.174.179-.043.2a15.63,15.63,0,0,0,3.552.568c.943-.071,1.88-.037,2.816-.055.837,4.777,1.931,9.76,4.376,13.583.543.847,2.171.381,1.957-.69C82.126,379.413,80.619,376.272,79.551,373.1Z" transform="translate(-50.813 -294.46)" fill="#7a7df5"/>
            </g>
            <g id="Grupo_3216" data-name="Grupo 3216" transform="translate(20.237)">
              <path id="Trazado_4962" data-name="Trazado 4962" d="M109.5,324.013c.586,13.235,6.782,34.464-9,42.063-4.251,2.047-9.364.034-12.868-2.867-4.586-3.8-7.893-13.451-9.258-19.105-1.083-4.481-.818-9.851-1.466-14.484-.7-5-1.5-9.994-2.165-15-2.385-18.057,3.063-35.072,16.349-47.744,2.655,5.454,6.62,9.636,10.428,14.555a59.234,59.234,0,0,1,4.782,7.11c2.45,4.357,2.11,9.471,2.1,14.238C108.4,309.823,109.192,316.967,109.5,324.013Z" transform="translate(-74.2 -266.872)" fill="url(#linear-gradient-11)"/>
              <path id="Trazado_4963" data-name="Trazado 4963" d="M98.331,368.415q-.223-1.628-.413-3.263c1.988-.508,3.773-2.161,5.223-3.448a31.438,31.438,0,0,0,6.012-7.851c.09-.154-.165-.3-.267-.158a34.947,34.947,0,0,1-6.053,6.859,21.3,21.3,0,0,1-5.037,3.475q-.214-1.956-.376-3.916c2.007-.777,3.56-2.616,5.049-4.1a67.428,67.428,0,0,0,6.617-8.331.031.031,0,0,0-.049-.038c-3.317,3.978-6.783,9.323-11.691,11.541-.125-1.64-.232-3.281-.3-4.921,0-.085-.006-.171-.009-.256,5.569-3.009,8.414-8.691,12.016-13.614.059-.079-.053-.185-.115-.105-3.606,4.617-6.816,9.658-11.934,12.749-.083-2.349-.144-4.7-.2-7.042a32.737,32.737,0,0,0,11.034-12.929c.044-.089-.084-.167-.135-.078-2.87,5.037-6.569,8.448-10.924,12-.058-2.321-.119-4.643-.208-6.962,2.04-1.734,4.313-3.05,6.083-5.1a19.553,19.553,0,0,0,4.01-6.829.11.11,0,0,0-.208-.069c-1.917,5.09-6.118,7.585-9.93,10.971-.091-2.161-.213-4.32-.379-6.48,4.21-3.928,8.893-7.766,10.36-13.627.014-.058-.07-.09-.088-.031-1.738,5.482-6.353,8.821-10.359,12.579-.032-.384-.058-.768-.094-1.153-.185-2-.39-3.989-.6-5.981a48.492,48.492,0,0,0,6.916-6.386c1.5-1.622,3.123-3.266,3.835-5.4a.11.11,0,0,0-.2-.077c-1.674,4.421-6.869,8.044-10.636,11q-.322-3.018-.646-6.034c3.988-4.038,9.127-7.013,10.727-12.879a.141.141,0,0,0-.269-.086c-1.815,5.447-6.732,8.227-10.559,12.025q-.2-1.871-.381-3.741c4.61-3.153,9.446-8.9,10.966-14.176a.235.235,0,0,0-.446-.148,29.416,29.416,0,0,1-10.612,13.331c-.191-2.024-.369-4.048-.513-6.076a.562.562,0,0,0,.032-.191c2.112-1.249,3.962-3.428,5.625-5.141a18.36,18.36,0,0,0,4.711-7.124.25.25,0,0,0-.482-.133c-1.24,4.6-5.916,8.656-9.964,11.316-.048-.741-.1-1.482-.138-2.224q-.087-1.665-.16-3.332c1.5-1.713,3.654-2.9,5.143-4.682a34.768,34.768,0,0,0,3.331-5.037.156.156,0,0,0-.264-.168,29.5,29.5,0,0,1-4.814,6.1c-1.084.987-2.415,1.73-3.443,2.772-.082-1.817-.164-3.633-.264-5.447l.061-.031.068,0a.332.332,0,0,0,.276-.168c2.312-1.247,3.664-3.852,4.866-6.083a.047.047,0,0,0-.08-.048c-1.335,2.051-2.863,4.332-5.021,5.613a.263.263,0,0,0-.027,0l-.185.017q-.126-2.214-.306-4.423a.333.333,0,0,0,.2-.436,26.72,26.72,0,0,0,2.833-4.009.094.094,0,0,0-.157-.1,21.757,21.757,0,0,1-2.968,3.462,89.873,89.873,0,0,0-1.246-9.066c-.054-.279-.47-.177-.426.1.462,2.918.761,5.849.982,8.784a27.087,27.087,0,0,1-5.145-4.736c-.07-.1-.227-.009-.162.1a16.756,16.756,0,0,0,2.693,3.056,22.216,22.216,0,0,0,2.692,2.6c.108,1.58.191,3.16.261,4.742a8.6,8.6,0,0,1-4.993-.631,8.5,8.5,0,0,1-4.226-4.972c-.088-.267-.518-.157-.424.108a9.687,9.687,0,0,0,3.813,4.919,9.123,9.123,0,0,0,5.857,1.226q.114,2.741.2,5.487a41.791,41.791,0,0,1-5.057-2.087c-2.628-1.192-4.451-2.963-6.847-4.447-.24-.148-.479.214-.241.367,2.258,1.443,3.979,3.187,6.435,4.376a29.715,29.715,0,0,0,5.73,2.45c0,.1.006.193.009.289-.014.022-.031.042-.045.064a.287.287,0,0,0,.06.4c.054,1.753.109,3.505.179,5.258,0,.11.013.219.017.328-4.318-.794-10.881-2.411-12.528-6.771a.311.311,0,1,0-.555.276c2.429,4.792,8.584,5.633,13.132,7.432q.144,2.967.383,5.924a23.605,23.605,0,0,1-7.884-1.831c-2.293-1.035-5.456-2.184-6.91-4.32-.046-.066-.143.009-.1.077,1.387,2.136,4.216,3.131,6.381,4.28A19.222,19.222,0,0,0,93,310.611a.535.535,0,0,0,.056.254q.159,1.874.339,3.746c-4.792.826-12.271-1.081-15.572-4.03-.015-.014-.034.01-.02.024,2.323,2.3,5.2,3.26,8.342,3.93,2.345.5,4.906,1.147,7.311.726.225,2.309.461,4.618.692,6.928-2.232-.245-4.485-.063-6.706-.362a15.875,15.875,0,0,1-8.577-4.226c-.147-.133-.38.069-.233.209,4.563,4.352,9.627,4.687,15.6,5.238q.281,2.843.522,5.689c-4.707.274-11.2-1-14.46-4.324-.239-.244-.635.109-.4.356,2.066,2.135,4.938,3.09,7.781,3.727,2.047.459,4.933,1.347,7.137.962.005.063.011.125.016.187.219,2.734.36,5.473.457,8.214-5.333.007-9.513-2.889-14.035-5.445-.315-.178-.617.291-.3.475,4.636,2.715,8.866,5.726,14.366,5.773q.107,3.348.134,6.7A23.907,23.907,0,0,1,82.246,340.5c-.258-.2-.517.224-.27.422a25.7,25.7,0,0,0,13.487,5.3c.016,2.4.012,4.8,0,7.2-4.556.441-8.631-1.452-12.21-4.24-.083-.065-.2.077-.117.145,3.244,2.733,7.85,5.673,12.322,4.973q-.006,1.148-.012,2.3,0,.694-.016,1.405a25.7,25.7,0,0,1-10.219-2.09c-.092-.043-.149.1-.061.145a24.51,24.51,0,0,0,10.267,2.652c-.026,1.445-.064,2.934-.09,4.447a19.119,19.119,0,0,0-2.782-.435c-1.77-.077-3.1-.851-4.749-1.35-.151-.046-.253.178-.1.231,1.464.5,2.615,1.335,4.187,1.513,1.164.132,2.294.389,3.435.584-.088,6,.088,12.313,2.176,17.526.463,1.156,2.55.965,2.538-.385C100,376.691,98.895,372.524,98.331,368.415Z" transform="translate(-74.737 -268.074)" fill="#898cf6"/>
            </g>
          </g>
          <path id="Rectángulo_1122" data-name="Rectángulo 1122" d="M0,0H45.9a0,0,0,0,1,0,0V39.923a8.028,8.028,0,0,1-8.028,8.028H8.028A8.028,8.028,0,0,1,0,39.923V0A0,0,0,0,1,0,0Z" transform="translate(18.312 107.29)" fill="#c3d3dd"/>
          <rect id="Rectángulo_1123" data-name="Rectángulo 1123" width="45.904" height="5.6" transform="translate(18.312 113.913)" fill="#dce8ef"/>
        </g>
        <g id="Grupo_3223" data-name="Grupo 3223" transform="translate(52.469 0)">
          <g id="Grupo_3219" data-name="Grupo 3219" transform="translate(0 65.648)">
            <path id="Trazado_4964" data-name="Trazado 4964" d="M504.868,434.372H484.989l4.774,15.555h10.332Z" transform="translate(-167.791 -271.12)" fill="url(#linear-gradient-12)"/>
            <path id="Trazado_4965" data-name="Trazado 4965" d="M159.908,434.372h19.879l-4.774,15.555H164.682Z" transform="translate(-119.234 -271.12)" fill="url(#linear-gradient-12)"/>
            <path id="Trazado_4966" data-name="Trazado 4966" d="M441.1,242.454h-272a14.517,14.517,0,0,0-14.3,12.018l-15.056,86.165H470.455L455.4,254.472A14.517,14.517,0,0,0,441.1,242.454Z" transform="translate(-116.221 -242.454)" fill="url(#linear-gradient-14)"/>
            <path id="Trazado_4967" data-name="Trazado 4967" d="M422.006,271.357H198.554c-5.795,0-10.75,3.8-11.748,9.009l-12.368,64.588H446.122l-12.368-64.588C432.756,275.158,427.8,271.357,422.006,271.357Z" transform="translate(-121.404 -246.771)" fill="url(#linear-gradient-15)"/>
            <path id="Rectángulo_1124" data-name="Rectángulo 1124" d="M0,0H377.752a0,0,0,0,1,0,0V57.519a7.55,7.55,0,0,1-7.55,7.55H7.55A7.55,7.55,0,0,1,0,57.519V0A0,0,0,0,1,0,0Z" transform="translate(0 98.182)" fill="url(#linear-gradient-16)"/>
            <path id="Rectángulo_1125" data-name="Rectángulo 1125" d="M0,0H281.873a0,0,0,0,1,0,0V16.692a11.666,11.666,0,0,1-11.666,11.666H11.666A11.666,11.666,0,0,1,0,16.692V0A0,0,0,0,1,0,0Z" transform="translate(47.939 98.182)" fill="url(#linear-gradient-17)"/>
            <path id="Rectángulo_1126" data-name="Rectángulo 1126" d="M6.829,0H41.11a6.829,6.829,0,0,1,6.829,6.829v32.6a0,0,0,0,1,0,0H0a0,0,0,0,1,0,0V6.829A6.829,6.829,0,0,1,6.829,0Z" transform="translate(329.812 58.758)" fill="url(#linear-gradient-17)"/>
            <path id="Rectángulo_1127" data-name="Rectángulo 1127" d="M0,0H47.939a0,0,0,0,1,0,0V32.6a6.829,6.829,0,0,1-6.829,6.829H6.829A6.829,6.829,0,0,1,0,32.6V0A0,0,0,0,1,0,0Z" transform="translate(47.939 98.182) rotate(180)" fill="url(#linear-gradient-17)"/>
          </g>
          <path id="Trazado_4968" data-name="Trazado 4968" d="M321.758,405.706c.7,0,12.293-6.5,15.856-10.843s31.017-52.55,34.068-53.388,69.224-.235,75.09-.47,14.378-4.223,17.279-16.66,6.187-24.873,5.717-41.769-7.14-40.122-7.14-40.122l-36.922,37.071L399.335,311.2l-28.048,1.814L335.545,358.37,321,388.172,307.621,405.7l2.17,0h11.968Z" transform="translate(-141.298 -176.806)" fill="#c3d3dd" style="mix-blend-mode: multiply;isolation: isolate"/>
          <g id="Grupo_3222" data-name="Grupo 3222" transform="translate(107.036)">
            <g id="Grupo_3221" data-name="Grupo 3221">
              <g id="Grupo_3220" data-name="Grupo 3220">
                <path id="Trazado_4969" data-name="Trazado 4969" d="M461.978,283.087l13.847-27.54s-2.286,41.541-4.894,44.637c-2.57,3.044-13.437-15.594-13.784-16.172V284c.373-.642.732-1.3,1.118-1.978C460.527,282.753,461.978,283.087,461.978,283.087Z" transform="translate(-270.668 -178.762)" fill="#746cd7"/>
                <path id="Trazado_4970" data-name="Trazado 4970" d="M429.217,348.322c-24.187-.861-63.879-29.57-66.448-30.1s-10.366-2.158-14.233-.013a.013.013,0,0,1-.013.013c-1.541,1.246-3.853,4.124-6.679,8.106l-.219-.154-7.45,5.921a.267.267,0,0,0-.065.052c-1.361,1.156-23.07,19.5-25.716,20.809-2.685,1.3-18.586,5.369-19.371,5.575H289c-3.07-2.03-7.193-9.2-9.3-16.159,14.092-12.524,55.928-48.375,73.295-48.426,2.223-.013,8.851,1.208,16.93,2.878a.012.012,0,0,0,.013.013c11.883,6.525,29.081,15.234,36.416,15.311,5.664.064,9.39-1.554,12.486-4.535,12.768,2.929,19.73,8.247,23.34,13.565,3.725,5.485,1.362,12.138,8.5,15.388-1.8,5.935-9.7,11.432-21.465,11.78Z" transform="translate(-244.163 -184.498)" fill="url(#linear-gradient-20)"/>
                <path id="Trazado_4971" data-name="Trazado 4971" d="M472.261,321.775s-11.407-12.845-25.819-15.864c.668-.9,1.336-1.862,2-2.9C455.318,303.368,470.642,314.286,472.261,321.775Z" transform="translate(-269.069 -185.851)" fill="#746cd7"/>
                <path id="Trazado_4972" data-name="Trazado 4972" d="M456.3,223.382l-14.977,36.6c-.141-1.7-.334-3.687-.578-5.9Z" transform="translate(-268.218 -173.958)" fill="#746cd7"/>
                <path id="Trazado_4973" data-name="Trazado 4973" d="M450.582,204l.693,1.31a.04.04,0,0,0,.013.026c.116.282.977,2.518-.988,5.678-1.747,2.788-10.687,12.96-13.963,12.216-1.272-.3-1.464-2.531-1.246-4.958a27.741,27.741,0,0,1,1.182-5.9h.013l-.8-1.362-2.62-4.522a69.08,69.08,0,0,1-7.906,4.568,1.544,1.544,0,0,1-1.834-.312l-2.862-3.022c-2.685-2.839-6.217-8.966-8.645-14.541a48.288,48.288,0,0,1-2.133-5.716l12.948-7.309a11,11,0,0,1,2.569,1.811c1.966,1.632,3.482.809,4.11,1.747s3.687,6.563,4.124,6.178-.322-6.037-.322-6.037c.8-1.67,2.377-3.571,4.47-1.233,1.49,1.657,2.107,5.266,1.4,7.476a24.013,24.013,0,0,0,4.227,3.443,6.453,6.453,0,0,0,2.35.655Z" transform="translate(-263.549 -167.502)" fill="#ffc8af"/>
                <path id="Trazado_4974" data-name="Trazado 4974" d="M443.135,179.456c.642,5.433.925,12.524.925,12.524a6.453,6.453,0,0,1-2.35-.655,24.013,24.013,0,0,1-4.227-3.443c.707-2.21.09-5.819-1.4-7.476-2.093-2.338-3.674-.436-4.47,1.233,0,0,.745,5.652.322,6.037s-3.507-5.241-4.124-6.178-2.144-.116-4.11-1.747a11,11,0,0,0-2.569-1.811l-12.948,7.309a48.283,48.283,0,0,0,2.133,5.716,3.111,3.111,0,0,1-2.261.077,3.052,3.052,0,0,1-1.58-1.348,4.68,4.68,0,0,1-5.253-2.325,4.605,4.605,0,0,1,.488-4.882,3.677,3.677,0,0,1-.128-3.3,3.748,3.748,0,0,1,2.685-1.952c-.077-.179-1.182-2.929.244-4.881,1.464-2,5.06-2.531,7.951-.373a3.294,3.294,0,0,1,1.464-2.44,3.4,3.4,0,0,1,3.173-.128,4.553,4.553,0,0,1,1.837-2.685,5.143,5.143,0,0,1,6.1.976,7.308,7.308,0,0,1,4.033-2.325,7.881,7.881,0,0,1,7.579,3.43,3.648,3.648,0,0,1,2.569.244,4.148,4.148,0,0,1,1.824,4.521,3.56,3.56,0,0,1,2.2,1.221A3.975,3.975,0,0,1,443.135,179.456Z" transform="translate(-262.241 -165.279)" fill="url(#linear-gradient-21)"/>
                <path id="Trazado_4975" data-name="Trazado 4975" d="M455.351,209.5l-.693-1.31c5.575-.116,15.042,3.815,18.8,8.362,6.641,7.977,8.439,18.562,10.559,34.528s1.966,40.938-3.018,59.165l-4,14.49a16.533,16.533,0,0,1-2.864-.977c-7.142-3.249-4.779-9.9-8.5-15.388-3.609-5.318-10.572-10.636-23.34-13.565a25.462,25.462,0,0,0,2.7-3.057c14.412,3.019,25.819,15.864,25.819,15.864C469.2,300.123,453.874,289.2,447,288.845c1.477-2.26,2.967-4.855,4.675-7.707.745-1.233,1.555-2.659,2.428-4.2.347.578,11.214,19.217,13.784,16.172,2.607-3.1,4.894-44.637,4.894-44.637l-13.847,27.54s-1.451-.334-3.712-1.066c-4.431-1.427-11.972-4.355-17.777-9.2l3.289-8.041,14.977-36.6-15.556,30.7c-.167-1.464-.36-3.019-.591-4.637-.95-6.783-4.239-18.677-2.055-24.727l1.657.013c-.218,2.428-.026,4.662,1.246,4.958,3.276.744,12.216-9.428,13.963-12.216,1.965-3.16,1.1-5.4.988-5.678A.04.04,0,0,1,455.351,209.5Z" transform="translate(-267.625 -171.688)" fill="url(#linear-gradient-22)"/>
                <path id="Trazado_4976" data-name="Trazado 4976" d="M365.627,322.3c2.569.527,42.261,29.236,66.448,30.1v.026c-.373.013-.758.013-1.143.013-2.466,0-6.563-.167-11.56-.437,0,0-.1,0-.322-.013-4.226-.116-49.429-1.426-52.935-1.426-2.12,0-4.457,2.852-6.063,5.266,0,0-.026.052-.077.142-1.619,2.774-27.5,47.206-30.34,49.736-2.941,2.607-11.728,9.287-11.728,9.287a6.547,6.547,0,0,1-1.3-.18c-4.559-1.015-15.863-5.947-17.777-8.182,8.542-15.17,32.743-57.7,45.87-76.223,2.826-3.982,5.138-6.859,6.679-8.106a.013.013,0,0,0,.013-.013C355.261,320.139,363.071,321.783,365.627,322.3Z" transform="translate(-247.021 -188.57)" fill="url(#linear-gradient-20)"/>
                <path id="Trazado_4977" data-name="Trazado 4977" d="M437.64,224.907c0,.013-.013.026-.013.039h-.064Z" transform="translate(-267.743 -174.185)"/>
                <path id="Trazado_4978" data-name="Trazado 4978" d="M436.481,224.953c-2.184,6.05,1.1,17.944,2.055,24.727.231,1.618.424,3.173.591,4.637.244,2.209.437,4.2.578,5.9l-3.289,8.041-1,2.454s-.823-.244-2.184-.758c-.9-.347-2.042-.823-3.34-1.427.333-1.888,3.571-20.719,3.622-31.226.065-10.032,2.453-12.049,2.9-12.344Z" transform="translate(-266.597 -174.192)" fill="#746cd7"/>
                <path id="Trazado_4979" data-name="Trazado 4979" d="M437.162,217.8a27.74,27.74,0,0,0-1.182,5.9l-1.657-.013c0-.013.013-.026.013-.039l-.077.039c-.45.3-2.839,2.312-2.9,12.344-.051,10.507-3.289,29.338-3.622,31.226a43.931,43.931,0,0,1-12.293-8.5c5.613-13.205,12.717-29.75,15.915-36.4.154-.347.334-.693.514-1.015a14.7,14.7,0,0,1,4.508-4.894l.8,1.362Z" transform="translate(-264.438 -172.92)" fill="url(#linear-gradient-22)"/>
                <path id="Trazado_4980" data-name="Trazado 4980" d="M421.005,274.681c1.3.6,2.44,1.079,3.34,1.427l-6.975,14L371.5,275.169v-.013a14.314,14.314,0,0,0-1.1-1.438c13.513,4.251,30.892,9.711,31.021,9.763,1.13-2.7,3.943-9.4,7.3-17.3A43.93,43.93,0,0,0,421.005,274.681Z" transform="translate(-257.71 -180.35)" fill="#f4b298"/>
                <path id="Trazado_4981" data-name="Trazado 4981" d="M361.1,275.416h.026s-7.09,3.905-7.822,4.162c-1.824-.617-2.993-1-2.993-1l1.053-7.219s2.222.925,5.266,2.2C357.992,274.119,359.521,274.761,361.1,275.416Z" transform="translate(-254.71 -181.124)" fill="#c3d3dd"/>
                <path id="Trazado_4982" data-name="Trazado 4982" d="M424.078,275.228c5.806,4.843,13.346,7.771,17.777,9.2-.385.68-.745,1.335-1.118,1.978v.013c-.873,1.541-1.683,2.967-2.428,4.2-1.708,2.851-3.2,5.447-4.675,7.707-.668,1.041-1.336,2-2,2.9a25.467,25.467,0,0,1-2.7,3.057c-3.1,2.981-6.821,4.6-12.486,4.535-7.335-.077-24.534-8.786-36.416-15.311a.012.012,0,0,1-.013-.013c-7.116-3.905-12.319-7.027-12.319-7.027s-8.683,1.953-11.483,1.041-6.6-4.406-8.067-6.911a5.888,5.888,0,0,1-.847-2.428,2.924,2.924,0,0,1,.192-1.567,14.984,14.984,0,0,1,2.364,2.017s1.169.385,2.993,1c.732-.257,7.822-4.162,7.822-4.162h-.026c-1.58-.655-3.108-1.3-4.47-1.862l.013-.026c-.629-.5-.874-1-.668-1.438.116-.282,1.04-.424,2.248-.475a23.573,23.573,0,0,1,6.088.553,7.4,7.4,0,0,1,3.083,2.325,14.314,14.314,0,0,1,1.1,1.438v.013l45.87,14.939,3.3,1.079,5.857-14.322Z" transform="translate(-254.257 -181.167)" fill="#ffc8af"/>
                <path id="Trazado_4983" data-name="Trazado 4983" d="M344.992,276.96a2.924,2.924,0,0,0-.192,1.567h-.014l-14.257-4.072S338.557,272.528,344.992,276.96Z" transform="translate(-251.755 -181.524)" fill="#606bf1"/>
                <path id="Trazado_4984" data-name="Trazado 4984" d="M337.263,266.408l3.379,1.426a13.152,13.152,0,0,0-9.159,2.184s.424-5.241-3.6-7.63c2.749,1.208,6.563,2.827,9.3,3.983Z" transform="translate(-251.36 -179.784)" fill="#c3d3dd"/>
                <path id="Trazado_4985" data-name="Trazado 4985" d="M353.944,271c-.206.436.038.937.668,1.438l-.013.026c-3.044-1.273-5.266-2.2-5.266-2.2a21.136,21.136,0,0,0-7.373-2.184l-3.379-1.426-.077-.038c-1.465-.642-2.351-1.979-1.387-2.3a30.406,30.406,0,0,1,7.822,0c1.876.321,4.727,4.149,4.727,4.149l6.526,2.055C354.985,270.578,354.06,270.719,353.944,271Z" transform="translate(-252.679 -180.035)" fill="#f4b298"/>
                <path id="Trazado_4986" data-name="Trazado 4986" d="M343.443,275.037c-6.435-4.432-14.463-2.505-14.463-2.505-1.221-6.473-8.825-8.644-8.825-8.644l3.571-2.724a8.3,8.3,0,0,1,3.006,1.04c4.02,2.389,3.6,7.63,3.6,7.63a13.152,13.152,0,0,1,9.159-2.184,21.136,21.136,0,0,1,7.373,2.184l-1.053,7.219A14.982,14.982,0,0,0,343.443,275.037Z" transform="translate(-250.205 -179.601)" fill="#f0f5f7"/>
                <path id="Trazado_4987" data-name="Trazado 4987" d="M314.575,429.807c-.6.848-1.091,1.529-1.464,2.017-1.13,1.49-1.979,9.108-2.634,13.115h-.013c-.347.013-7,.244-14.977.333-.128-.641-2.364-10.956-10.276-12.806,4.689-3.019,8.5-5.331,8.5-5.331s1.13-2.042,3.083-5.51C298.711,423.86,310.015,428.792,314.575,429.807Z" transform="translate(-244.986 -203.569)" fill="#ffc8af"/>
                <path id="Trazado_4988" data-name="Trazado 4988" d="M292.672,447.176c-9.955.09-21.966-.026-26.307-1.066,2.788-2.929,10.11-7.913,16.031-11.74C290.309,436.22,292.544,446.535,292.672,447.176Z" transform="translate(-242.171 -205.473)" fill="url(#linear-gradient-25)"/>
                <path id="Trazado_4989" data-name="Trazado 4989" d="M285.162,367.037c-1.644,1.1-3.224,2.171-4.74,3.186a61.643,61.643,0,0,0-8.568,7.039c-4.419-3.609-11.612-11.009-17.842-17.778l7.835-8.118c5.2,2,9.287,3.776,9.287,3.776s1.747-1.605,4.727-4.264C277.969,357.84,282.092,365.008,285.162,367.037Z" transform="translate(-240.326 -193.001)" fill="#ffc8af"/>
                <path id="Trazado_4990" data-name="Trazado 4990" d="M292.469,449.238c7.976-.089,14.63-.321,14.977-.333a6.02,6.02,0,0,1-.629,2.466c-.719.334-40.8,1.722-41.786-1.22-.141-.424.283-1.118,1.13-1.979C270.5,449.212,282.514,449.328,292.469,449.238Z" transform="translate(-241.968 -207.534)" fill="#606bf1"/>
                <path id="Trazado_4991" data-name="Trazado 4991" d="M259.744,350.449l-7.835,8.118c-5.948-6.461-11.022-12.343-11.985-13.821C243.687,344.579,252.717,347.738,259.744,350.449Z" transform="translate(-238.222 -192.085)" fill="url(#linear-gradient-25)"/>
                <path id="Trazado_4992" data-name="Trazado 4992" d="M251.61,358.568c6.23,6.769,13.423,14.169,17.842,17.778-.937.912-1.478,1.49-1.478,1.49s-32.806-29.711-29.865-32.64a2.286,2.286,0,0,1,1.516-.449C240.588,346.225,245.662,352.107,251.61,358.568Z" transform="translate(-237.923 -192.086)" fill="#606bf1"/>
                <path id="Trazado_4993" data-name="Trazado 4993" d="M404.449,343.4c3.98,2.193,12.308,5.585,20.209,8.6,3.111.089,5.331.152,6.12.174.219.013.322.013.322.013,5,.271,9.094.437,11.56.437.385,0,.771,0,1.143-.013v-.026c-24.187-.861-63.879-29.57-66.448-30.1A126.447,126.447,0,0,0,404.449,343.4Z" transform="translate(-258.75 -188.761)" fill="#dce8ef" style="mix-blend-mode: multiply;isolation: isolate"/>
              </g>
            </g>
            <path id="Trazado_4994" data-name="Trazado 4994" d="M443.459,191.852a4.939,4.939,0,0,1-2.71,3.137s.925,3.109,2.71,2.582S443.459,191.852,443.459,191.852Z" transform="translate(-268.218 -169.248)" fill="#f4b298"/>
            <path id="Trazado_4995" data-name="Trazado 4995" d="M436.974,210.657c2.369-1.755,3.542-2.634,3.542-2.634l-2.618,4.229Z" transform="translate(-267.655 -171.663)" fill="#f4b298"/>
            <path id="Trazado_4996" data-name="Trazado 4996" d="M438.834,185.08a1.127,1.127,0,0,1,.561-.462.754.754,0,0,1,.656-.1.932.932,0,0,1,.268.24,4.489,4.489,0,0,1,1.115,2.8,5.251,5.251,0,0,1-.45,2.028,2.555,2.555,0,0,1-.6.969.656.656,0,0,1-.9.043,1.451,1.451,0,0,1-.136-1.5,1.434,1.434,0,0,0-.362-1.928A1.925,1.925,0,0,1,438.834,185.08Z" transform="translate(-267.898 -168.145)" fill="#f4b298"/>
          </g>
        </g>
      </g>
    </g>
  </g>
</svg>
